<svg width="1376" height="726" viewBox="0 0 1376 726" fill="none" xmlns="http://www.w3.org/2000/svg">
<g clip-path="url(#clip0_398_10)">
<rect width="1376" height="726" fill="url(#paint0_linear_398_10)" fill-opacity="0.1"/>
<g opacity="0.7" style="mix-blend-mode:overlay">
<path d="M108.182 30H70V68.2105M108.182 30V68.2105M108.182 30H146.364M108.182 68.2105H70M108.182 68.2105V106.421M108.182 68.2105H146.364M70 68.2105V106.421M108.182 106.421H70M108.182 106.421V144.632M108.182 106.421H146.364M70 106.421V144.632M108.182 144.632H70M108.182 144.632V182.842M108.182 144.632H146.364M70 144.632V182.842M108.182 182.842H70M108.182 182.842V221.053M108.182 182.842H146.364M70 182.842V221.053M108.182 221.053H70M108.182 221.053V259.263M108.182 221.053H146.364M70 221.053V259.263M108.182 259.263H70M108.182 259.263V297.474M108.182 259.263H146.364M70 259.263V297.474M108.182 297.474H70M108.182 297.474V335.684M108.182 297.474H146.364M70 297.474V335.684M108.182 335.684H70M108.182 335.684V373.895M108.182 335.684H146.364M70 335.684V373.895M108.182 373.895H70M108.182 373.895V412.105M108.182 373.895H146.364M70 373.895V412.105M108.182 412.105H70M108.182 412.105V450.316M108.182 412.105H146.364M70 412.105V450.316M108.182 450.316H70M108.182 450.316V488.526M108.182 450.316H146.364M70 450.316V488.526M108.182 488.526H70M108.182 488.526V526.737M108.182 488.526H146.364M70 488.526V526.737M108.182 526.737H70M108.182 526.737V564.947M108.182 526.737H146.364M70 526.737V564.947M108.182 564.947H70M108.182 564.947V603.158M108.182 564.947H146.364M70 564.947V603.158M108.182 603.158H70M108.182 603.158V641.368M108.182 603.158H146.364M70 603.158V641.368M108.182 641.368H70M108.182 641.368V679.579M108.182 641.368H146.364M70 641.368V679.579M108.182 679.579H70M108.182 679.579V717.789M108.182 679.579H146.364M70 679.579V717.789M108.182 717.789H70M108.182 717.789V756M108.182 717.789H146.364M70 717.789V756H108.182M108.182 756H146.364M146.364 30V68.2105M146.364 30H184.545M146.364 68.2105V106.421M146.364 68.2105H184.545M146.364 106.421V144.632M146.364 106.421H184.545M146.364 144.632V182.842M146.364 144.632H184.545M146.364 182.842V221.053M146.364 182.842H184.545M146.364 221.053V259.263M146.364 221.053H184.545M146.364 259.263V297.474M146.364 259.263H184.545M146.364 297.474V335.684M146.364 297.474H184.545M146.364 335.684V373.895M146.364 335.684H184.545M146.364 373.895V412.105M146.364 373.895H184.545M146.364 412.105V450.316M146.364 412.105H184.545M146.364 450.316V488.526M146.364 450.316H184.545M146.364 488.526V526.737M146.364 488.526H184.545M146.364 526.737V564.947M146.364 526.737H184.545M146.364 564.947V603.158M146.364 564.947H184.545M146.364 603.158V641.368M146.364 603.158H184.545M146.364 641.368V679.579M146.364 641.368H184.545M146.364 679.579V717.789M146.364 679.579H184.545M146.364 717.789V756M146.364 717.789H184.545M146.364 756H184.545M184.545 30V68.2105M184.545 30H222.727M184.545 68.2105V106.421M184.545 68.2105H222.727M184.545 106.421V144.632M184.545 106.421H222.727M184.545 144.632V182.842M184.545 144.632H222.727M184.545 182.842V221.053M184.545 182.842H222.727M184.545 221.053V259.263M184.545 221.053H222.727M184.545 259.263V297.474M184.545 259.263H222.727M184.545 297.474V335.684M184.545 297.474H222.727M184.545 335.684V373.895M184.545 335.684H222.727M184.545 373.895V412.105M184.545 373.895H222.727M184.545 412.105V450.316M184.545 412.105H222.727M184.545 450.316V488.526M184.545 450.316H222.727M184.545 488.526V526.737M184.545 488.526H222.727M184.545 526.737V564.947M184.545 526.737H222.727M184.545 564.947V603.158M184.545 564.947H222.727M184.545 603.158V641.368M184.545 603.158H222.727M184.545 641.368V679.579M184.545 641.368H222.727M184.545 679.579V717.789M184.545 679.579H222.727M184.545 717.789V756M184.545 717.789H222.727M184.545 756H222.727M222.727 30V68.2105M222.727 30H260.909M222.727 68.2105V106.421M222.727 68.2105H260.909M222.727 106.421V144.632M222.727 106.421H260.909M222.727 144.632V182.842M222.727 144.632H260.909M222.727 182.842V221.053M222.727 182.842H260.909M222.727 221.053V259.263M222.727 221.053H260.909M222.727 259.263V297.474M222.727 259.263H260.909M222.727 297.474V335.684M222.727 297.474H260.909M222.727 335.684V373.895M222.727 335.684H260.909M222.727 373.895V412.105M222.727 373.895H260.909M222.727 412.105V450.316M222.727 412.105H260.909M222.727 450.316V488.526M222.727 450.316H260.909M222.727 488.526V526.737M222.727 488.526H260.909M222.727 526.737V564.947M222.727 526.737H260.909M222.727 564.947V603.158M222.727 564.947H260.909M222.727 603.158V641.368M222.727 603.158H260.909M222.727 641.368V679.579M222.727 641.368H260.909M222.727 679.579V717.789M222.727 679.579H260.909M222.727 717.789V756M222.727 717.789H260.909M222.727 756H260.909M260.909 30V68.2105M260.909 30H299.091M260.909 68.2105V106.421M260.909 68.2105H299.091M260.909 106.421V144.632M260.909 106.421H299.091M260.909 144.632V182.842M260.909 144.632H299.091M260.909 182.842V221.053M260.909 182.842H299.091M260.909 221.053V259.263M260.909 221.053H299.091M260.909 259.263V297.474M260.909 259.263H299.091M260.909 297.474V335.684M260.909 297.474H299.091M260.909 335.684V373.895M260.909 335.684H299.091M260.909 373.895V412.105M260.909 373.895H299.091M260.909 412.105V450.316M260.909 412.105H299.091M260.909 450.316V488.526M260.909 450.316H299.091M260.909 488.526V526.737M260.909 488.526H299.091M260.909 526.737V564.947M260.909 526.737H299.091M260.909 564.947V603.158M260.909 564.947H299.091M260.909 603.158V641.368M260.909 603.158H299.091M260.909 641.368V679.579M260.909 641.368H299.091M260.909 679.579V717.789M260.909 679.579H299.091M260.909 717.789V756M260.909 717.789H299.091M260.909 756H299.091M299.091 30V68.2105M299.091 30H337.273M299.091 68.2105V106.421M299.091 68.2105H337.273M299.091 106.421V144.632M299.091 106.421H337.273M299.091 144.632V182.842M299.091 144.632H337.273M299.091 182.842V221.053M299.091 182.842H337.273M299.091 221.053V259.263M299.091 221.053H337.273M299.091 259.263V297.474M299.091 259.263H337.273M299.091 297.474V335.684M299.091 297.474H337.273M299.091 335.684V373.895M299.091 335.684H337.273M299.091 373.895V412.105M299.091 373.895H337.273M299.091 412.105V450.316M299.091 412.105H337.273M299.091 450.316V488.526M299.091 450.316H337.273M299.091 488.526V526.737M299.091 488.526H337.273M299.091 526.737V564.947M299.091 526.737H337.273M299.091 564.947V603.158M299.091 564.947H337.273M299.091 603.158V641.368M299.091 603.158H337.273M299.091 641.368V679.579M299.091 641.368H337.273M299.091 679.579V717.789M299.091 679.579H337.273M299.091 717.789V756M299.091 717.789H337.273M299.091 756H337.273M337.273 30V68.2105M337.273 30H375.455M337.273 68.2105V106.421M337.273 68.2105H375.455M337.273 106.421V144.632M337.273 106.421H375.455M337.273 144.632V182.842M337.273 144.632H375.455M337.273 182.842V221.053M337.273 182.842H375.455M337.273 221.053V259.263M337.273 221.053H375.455M337.273 259.263V297.474M337.273 259.263H375.455M337.273 297.474V335.684M337.273 297.474H375.455M337.273 335.684V373.895M337.273 335.684H375.455M337.273 373.895V412.105M337.273 373.895H375.455M337.273 412.105V450.316M337.273 412.105H375.455M337.273 450.316V488.526M337.273 450.316H375.455M337.273 488.526V526.737M337.273 488.526H375.455M337.273 526.737V564.947M337.273 526.737H375.455M337.273 564.947V603.158M337.273 564.947H375.455M337.273 603.158V641.368M337.273 603.158H375.455M337.273 641.368V679.579M337.273 641.368H375.455M337.273 679.579V717.789M337.273 679.579H375.455M337.273 717.789V756M337.273 717.789H375.455M337.273 756H375.455M375.455 30V68.2105M375.455 30H413.636M375.455 68.2105V106.421M375.455 68.2105H413.636M375.455 106.421V144.632M375.455 106.421H413.636M375.455 144.632V182.842M375.455 144.632H413.636M375.455 182.842V221.053M375.455 182.842H413.636M375.455 221.053V259.263M375.455 221.053H413.636M375.455 259.263V297.474M375.455 259.263H413.636M375.455 297.474V335.684M375.455 297.474H413.636M375.455 335.684V373.895M375.455 335.684H413.636M375.455 373.895V412.105M375.455 373.895H413.636M375.455 412.105V450.316M375.455 412.105H413.636M375.455 450.316V488.526M375.455 450.316H413.636M375.455 488.526V526.737M375.455 488.526H413.636M375.455 526.737V564.947M375.455 526.737H413.636M375.455 564.947V603.158M375.455 564.947H413.636M375.455 603.158V641.368M375.455 603.158H413.636M375.455 641.368V679.579M375.455 641.368H413.636M375.455 679.579V717.789M375.455 679.579H413.636M375.455 717.789V756M375.455 717.789H413.636M375.455 756H413.636M413.636 30V68.2105M413.636 30H451.818M413.636 68.2105V106.421M413.636 68.2105H451.818M413.636 106.421V144.632M413.636 106.421H451.818M413.636 144.632V182.842M413.636 144.632H451.818M413.636 182.842V221.053M413.636 182.842H451.818M413.636 221.053V259.263M413.636 221.053H451.818M413.636 259.263V297.474M413.636 259.263H451.818M413.636 297.474V335.684M413.636 297.474H451.818M413.636 335.684V373.895M413.636 335.684H451.818M413.636 373.895V412.105M413.636 373.895H451.818M413.636 412.105V450.316M413.636 412.105H451.818M413.636 450.316V488.526M413.636 450.316H451.818M413.636 488.526V526.737M413.636 488.526H451.818M413.636 526.737V564.947M413.636 526.737H451.818M413.636 564.947V603.158M413.636 564.947H451.818M413.636 603.158V641.368M413.636 603.158H451.818M413.636 641.368V679.579M413.636 641.368H451.818M413.636 679.579V717.789M413.636 679.579H451.818M413.636 717.789V756M413.636 717.789H451.818M413.636 756H451.818M451.818 30V68.2105M451.818 30H490M451.818 68.2105V106.421M451.818 68.2105H490M451.818 106.421V144.632M451.818 106.421H490M451.818 144.632V182.842M451.818 144.632H490M451.818 182.842V221.053M451.818 182.842H490M451.818 221.053V259.263M451.818 221.053H490M451.818 259.263V297.474M451.818 259.263H490M451.818 297.474V335.684M451.818 297.474H490M451.818 335.684V373.895M451.818 335.684H490M451.818 373.895V412.105M451.818 373.895H490M451.818 412.105V450.316M451.818 412.105H490M451.818 450.316V488.526M451.818 450.316H490M451.818 488.526V526.737M451.818 488.526H490M451.818 526.737V564.947M451.818 526.737H490M451.818 564.947V603.158M451.818 564.947H490M451.818 603.158V641.368M451.818 603.158H490M451.818 641.368V679.579M451.818 641.368H490M451.818 679.579V717.789M451.818 679.579H490M451.818 717.789V756M451.818 717.789H490M451.818 756H490M490 30V68.2105M490 30H528.182M490 68.2105V106.421M490 68.2105H528.182M490 106.421V144.632M490 106.421H528.182M490 144.632V182.842M490 144.632H528.182M490 182.842V221.053M490 182.842H528.182M490 221.053V259.263M490 221.053H528.182M490 259.263V297.474M490 259.263H528.182M490 297.474V335.684M490 297.474H528.182M490 335.684V373.895M490 335.684H528.182M490 373.895V412.105M490 373.895H528.182M490 412.105V450.316M490 412.105H528.182M490 450.316V488.526M490 450.316H528.182M490 488.526V526.737M490 488.526H528.182M490 526.737V564.947M490 526.737H528.182M490 564.947V603.158M490 564.947H528.182M490 603.158V641.368M490 603.158H528.182M490 641.368V679.579M490 641.368H528.182M490 679.579V717.789M490 679.579H528.182M490 717.789V756M490 717.789H528.182M490 756H528.182M528.182 30V68.2105M528.182 30H566.364M528.182 68.2105V106.421M528.182 68.2105H566.364M528.182 106.421V144.632M528.182 106.421H566.364M528.182 144.632V182.842M528.182 144.632H566.364M528.182 182.842V221.053M528.182 182.842H566.364M528.182 221.053V259.263M528.182 221.053H566.364M528.182 259.263V297.474M528.182 259.263H566.364M528.182 297.474V335.684M528.182 297.474H566.364M528.182 335.684V373.895M528.182 335.684H566.364M528.182 373.895V412.105M528.182 373.895H566.364M528.182 412.105V450.316M528.182 412.105H566.364M528.182 450.316V488.526M528.182 450.316H566.364M528.182 488.526V526.737M528.182 488.526H566.364M528.182 526.737V564.947M528.182 526.737H566.364M528.182 564.947V603.158M528.182 564.947H566.364M528.182 603.158V641.368M528.182 603.158H566.364M528.182 641.368V679.579M528.182 641.368H566.364M528.182 679.579V717.789M528.182 679.579H566.364M528.182 717.789V756M528.182 717.789H566.364M528.182 756H566.364M566.364 30V68.2105M566.364 30H604.545M566.364 68.2105V106.421M566.364 68.2105H604.545M566.364 106.421V144.632M566.364 106.421H604.545M566.364 144.632V182.842M566.364 144.632H604.545M566.364 182.842V221.053M566.364 182.842H604.545M566.364 221.053V259.263M566.364 221.053H604.545M566.364 259.263V297.474M566.364 259.263H604.545M566.364 297.474V335.684M566.364 297.474H604.545M566.364 335.684V373.895M566.364 335.684H604.545M566.364 373.895V412.105M566.364 373.895H604.545M566.364 412.105V450.316M566.364 412.105H604.545M566.364 450.316V488.526M566.364 450.316H604.545M566.364 488.526V526.737M566.364 488.526H604.545M566.364 526.737V564.947M566.364 526.737H604.545M566.364 564.947V603.158M566.364 564.947H604.545M566.364 603.158V641.368M566.364 603.158H604.545M566.364 641.368V679.579M566.364 641.368H604.545M566.364 679.579V717.789M566.364 679.579H604.545M566.364 717.789V756M566.364 717.789H604.545M566.364 756H604.545M604.545 30V68.2105M604.545 30H642.727M604.545 68.2105V106.421M604.545 68.2105H642.727M604.545 106.421V144.632M604.545 106.421H642.727M604.545 144.632V182.842M604.545 144.632H642.727M604.545 182.842V221.053M604.545 182.842H642.727M604.545 221.053V259.263M604.545 221.053H642.727M604.545 259.263V297.474M604.545 259.263H642.727M604.545 297.474V335.684M604.545 297.474H642.727M604.545 335.684V373.895M604.545 335.684H642.727M604.545 373.895V412.105M604.545 373.895H642.727M604.545 412.105V450.316M604.545 412.105H642.727M604.545 450.316V488.526M604.545 450.316H642.727M604.545 488.526V526.737M604.545 488.526H642.727M604.545 526.737V564.947M604.545 526.737H642.727M604.545 564.947V603.158M604.545 564.947H642.727M604.545 603.158V641.368M604.545 603.158H642.727M604.545 641.368V679.579M604.545 641.368H642.727M604.545 679.579V717.789M604.545 679.579H642.727M604.545 717.789V756M604.545 717.789H642.727M604.545 756H642.727M642.727 30V68.2105M642.727 30H680.909M642.727 68.2105V106.421M642.727 68.2105H680.909M642.727 106.421V144.632M642.727 106.421H680.909M642.727 144.632V182.842M642.727 144.632H680.909M642.727 182.842V221.053M642.727 182.842H680.909M642.727 221.053V259.263M642.727 221.053H680.909M642.727 259.263V297.474M642.727 259.263H680.909M642.727 297.474V335.684M642.727 297.474H680.909M642.727 335.684V373.895M642.727 335.684H680.909M642.727 373.895V412.105M642.727 373.895H680.909M642.727 412.105V450.316M642.727 412.105H680.909M642.727 450.316V488.526M642.727 450.316H680.909M642.727 488.526V526.737M642.727 488.526H680.909M642.727 526.737V564.947M642.727 526.737H680.909M642.727 564.947V603.158M642.727 564.947H680.909M642.727 603.158V641.368M642.727 603.158H680.909M642.727 641.368V679.579M642.727 641.368H680.909M642.727 679.579V717.789M642.727 679.579H680.909M642.727 717.789V756M642.727 717.789H680.909M642.727 756H680.909M680.909 30V68.2105M680.909 30H719.091M680.909 68.2105V106.421M680.909 68.2105H719.091M680.909 106.421V144.632M680.909 106.421H719.091M680.909 144.632V182.842M680.909 144.632H719.091M680.909 182.842V221.053M680.909 182.842H719.091M680.909 221.053V259.263M680.909 221.053H719.091M680.909 259.263V297.474M680.909 259.263H719.091M680.909 297.474V335.684M680.909 297.474H719.091M680.909 335.684V373.895M680.909 335.684H719.091M680.909 373.895V412.105M680.909 373.895H719.091M680.909 412.105V450.316M680.909 412.105H719.091M680.909 450.316V488.526M680.909 450.316H719.091M680.909 488.526V526.737M680.909 488.526H719.091M680.909 526.737V564.947M680.909 526.737H719.091M680.909 564.947V603.158M680.909 564.947H719.091M680.909 603.158V641.368M680.909 603.158H719.091M680.909 641.368V679.579M680.909 641.368H719.091M680.909 679.579V717.789M680.909 679.579H719.091M680.909 717.789V756M680.909 717.789H719.091M680.909 756H719.091M719.091 30V68.2105M719.091 30H757.273M719.091 68.2105V106.421M719.091 68.2105H757.273M719.091 106.421V144.632M719.091 106.421H757.273M719.091 144.632V182.842M719.091 144.632H757.273M719.091 182.842V221.053M719.091 182.842H757.273M719.091 221.053V259.263M719.091 221.053H757.273M719.091 259.263V297.474M719.091 259.263H757.273M719.091 297.474V335.684M719.091 297.474H757.273M719.091 335.684V373.895M719.091 335.684H757.273M719.091 373.895V412.105M719.091 373.895H757.273M719.091 412.105V450.316M719.091 412.105H757.273M719.091 450.316V488.526M719.091 450.316H757.273M719.091 488.526V526.737M719.091 488.526H757.273M719.091 526.737V564.947M719.091 526.737H757.273M719.091 564.947V603.158M719.091 564.947H757.273M719.091 603.158V641.368M719.091 603.158H757.273M719.091 641.368V679.579M719.091 641.368H757.273M719.091 679.579V717.789M719.091 679.579H757.273M719.091 717.789V756M719.091 717.789H757.273M719.091 756H757.273M757.273 30V68.2105M757.273 30H795.455M757.273 68.2105V106.421M757.273 68.2105H795.455M757.273 106.421V144.632M757.273 106.421H795.455M757.273 144.632V182.842M757.273 144.632H795.455M757.273 182.842V221.053M757.273 182.842H795.455M757.273 221.053V259.263M757.273 221.053H795.455M757.273 259.263V297.474M757.273 259.263H795.455M757.273 297.474V335.684M757.273 297.474H795.455M757.273 335.684V373.895M757.273 335.684H795.455M757.273 373.895V412.105M757.273 373.895H795.455M757.273 412.105V450.316M757.273 412.105H795.455M757.273 450.316V488.526M757.273 450.316H795.455M757.273 488.526V526.737M757.273 488.526H795.455M757.273 526.737V564.947M757.273 526.737H795.455M757.273 564.947V603.158M757.273 564.947H795.455M757.273 603.158V641.368M757.273 603.158H795.455M757.273 641.368V679.579M757.273 641.368H795.455M757.273 679.579V717.789M757.273 679.579H795.455M757.273 717.789V756M757.273 717.789H795.455M757.273 756H795.455M795.455 30V68.2105M795.455 30H833.636M795.455 68.2105V106.421M795.455 68.2105H833.636M795.455 106.421V144.632M795.455 106.421H833.636M795.455 144.632V182.842M795.455 144.632H833.636M795.455 182.842V221.053M795.455 182.842H833.636M795.455 221.053V259.263M795.455 221.053H833.636M795.455 259.263V297.474M795.455 259.263H833.636M795.455 297.474V335.684M795.455 297.474H833.636M795.455 335.684V373.895M795.455 335.684H833.636M795.455 373.895V412.105M795.455 373.895H833.636M795.455 412.105V450.316M795.455 412.105H833.636M795.455 450.316V488.526M795.455 450.316H833.636M795.455 488.526V526.737M795.455 488.526H833.636M795.455 526.737V564.947M795.455 526.737H833.636M795.455 564.947V603.158M795.455 564.947H833.636M795.455 603.158V641.368M795.455 603.158H833.636M795.455 641.368V679.579M795.455 641.368H833.636M795.455 679.579V717.789M795.455 679.579H833.636M795.455 717.789V756M795.455 717.789H833.636M795.455 756H833.636M833.636 30V68.2105M833.636 30H871.818M833.636 68.2105V106.421M833.636 68.2105H871.818M833.636 106.421V144.632M833.636 106.421H871.818M833.636 144.632V182.842M833.636 144.632H871.818M833.636 182.842V221.053M833.636 182.842H871.818M833.636 221.053V259.263M833.636 221.053H871.818M833.636 259.263V297.474M833.636 259.263H871.818M833.636 297.474V335.684M833.636 297.474H871.818M833.636 335.684V373.895M833.636 335.684H871.818M833.636 373.895V412.105M833.636 373.895H871.818M833.636 412.105V450.316M833.636 412.105H871.818M833.636 450.316V488.526M833.636 450.316H871.818M833.636 488.526V526.737M833.636 488.526H871.818M833.636 526.737V564.947M833.636 526.737H871.818M833.636 564.947V603.158M833.636 564.947H871.818M833.636 603.158V641.368M833.636 603.158H871.818M833.636 641.368V679.579M833.636 641.368H871.818M833.636 679.579V717.789M833.636 679.579H871.818M833.636 717.789V756M833.636 717.789H871.818M833.636 756H871.818M871.818 30V68.2105M871.818 30H910M871.818 68.2105V106.421M871.818 68.2105H910M871.818 106.421V144.632M871.818 106.421H910M871.818 144.632V182.842M871.818 144.632H910M871.818 182.842V221.053M871.818 182.842H910M871.818 221.053V259.263M871.818 221.053H910M871.818 259.263V297.474M871.818 259.263H910M871.818 297.474V335.684M871.818 297.474H910M871.818 335.684V373.895M871.818 335.684H910M871.818 373.895V412.105M871.818 373.895H910M871.818 412.105V450.316M871.818 412.105H910M871.818 450.316V488.526M871.818 450.316H910M871.818 488.526V526.737M871.818 488.526H910M871.818 526.737V564.947M871.818 526.737H910M871.818 564.947V603.158M871.818 564.947H910M871.818 603.158V641.368M871.818 603.158H910M871.818 641.368V679.579M871.818 641.368H910M871.818 679.579V717.789M871.818 679.579H910M871.818 717.789V756M871.818 717.789H910M871.818 756H910M910 30V68.2105M910 30H948.182M910 68.2105V106.421M910 68.2105H948.182M910 106.421V144.632M910 106.421H948.182M910 144.632V182.842M910 144.632H948.182M910 182.842V221.053M910 182.842H948.182M910 221.053V259.263M910 221.053H948.182M910 259.263V297.474M910 259.263H948.182M910 297.474V335.684M910 297.474H948.182M910 335.684V373.895M910 335.684H948.182M910 373.895V412.105M910 373.895H948.182M910 412.105V450.316M910 412.105H948.182M910 450.316V488.526M910 450.316H948.182M910 488.526V526.737M910 488.526H948.182M910 526.737V564.947M910 526.737H948.182M910 564.947V603.158M910 564.947H948.182M910 603.158V641.368M910 603.158H948.182M910 641.368V679.579M910 641.368H948.182M910 679.579V717.789M910 679.579H948.182M910 717.789V756M910 717.789H948.182M910 756H948.182M948.182 30V68.2105M948.182 30H986.364M948.182 68.2105V106.421M948.182 68.2105H986.364M948.182 106.421V144.632M948.182 106.421H986.364M948.182 144.632V182.842M948.182 144.632H986.364M948.182 182.842V221.053M948.182 182.842H986.364M948.182 221.053V259.263M948.182 221.053H986.364M948.182 259.263V297.474M948.182 259.263H986.364M948.182 297.474V335.684M948.182 297.474H986.364M948.182 335.684V373.895M948.182 335.684H986.364M948.182 373.895V412.105M948.182 373.895H986.364M948.182 412.105V450.316M948.182 412.105H986.364M948.182 450.316V488.526M948.182 450.316H986.364M948.182 488.526V526.737M948.182 488.526H986.364M948.182 526.737V564.947M948.182 526.737H986.364M948.182 564.947V603.158M948.182 564.947H986.364M948.182 603.158V641.368M948.182 603.158H986.364M948.182 641.368V679.579M948.182 641.368H986.364M948.182 679.579V717.789M948.182 679.579H986.364M948.182 717.789V756M948.182 717.789H986.364M948.182 756H986.364M986.364 30V68.2105M986.364 30H1024.55M986.364 68.2105V106.421M986.364 68.2105H1024.55M986.364 106.421V144.632M986.364 106.421H1024.55M986.364 144.632V182.842M986.364 144.632H1024.55M986.364 182.842V221.053M986.364 182.842H1024.55M986.364 221.053V259.263M986.364 221.053H1024.55M986.364 259.263V297.474M986.364 259.263H1024.55M986.364 297.474V335.684M986.364 297.474H1024.55M986.364 335.684V373.895M986.364 335.684H1024.55M986.364 373.895V412.105M986.364 373.895H1024.55M986.364 412.105V450.316M986.364 412.105H1024.55M986.364 450.316V488.526M986.364 450.316H1024.55M986.364 488.526V526.737M986.364 488.526H1024.55M986.364 526.737V564.947M986.364 526.737H1024.55M986.364 564.947V603.158M986.364 564.947H1024.55M986.364 603.158V641.368M986.364 603.158H1024.55M986.364 641.368V679.579M986.364 641.368H1024.55M986.364 679.579V717.789M986.364 679.579H1024.55M986.364 717.789V756M986.364 717.789H1024.55M986.364 756H1024.55M1024.55 30V68.2105M1024.55 30H1062.73M1024.55 68.2105V106.421M1024.55 68.2105H1062.73M1024.55 106.421V144.632M1024.55 106.421H1062.73M1024.55 144.632V182.842M1024.55 144.632H1062.73M1024.55 182.842V221.053M1024.55 182.842H1062.73M1024.55 221.053V259.263M1024.55 221.053H1062.73M1024.55 259.263V297.474M1024.55 259.263H1062.73M1024.55 297.474V335.684M1024.55 297.474H1062.73M1024.55 335.684V373.895M1024.55 335.684H1062.73M1024.55 373.895V412.105M1024.55 373.895H1062.73M1024.55 412.105V450.316M1024.55 412.105H1062.73M1024.55 450.316V488.526M1024.55 450.316H1062.73M1024.55 488.526V526.737M1024.55 488.526H1062.73M1024.55 526.737V564.947M1024.55 526.737H1062.73M1024.55 564.947V603.158M1024.55 564.947H1062.73M1024.55 603.158V641.368M1024.55 603.158H1062.73M1024.55 641.368V679.579M1024.55 641.368H1062.73M1024.55 679.579V717.789M1024.55 679.579H1062.73M1024.55 717.789V756M1024.55 717.789H1062.73M1024.55 756H1062.73M1062.73 30V68.2105M1062.73 30H1100.91M1062.73 68.2105V106.421M1062.73 68.2105H1100.91M1062.73 106.421V144.632M1062.73 106.421H1100.91M1062.73 144.632V182.842M1062.73 144.632H1100.91M1062.73 182.842V221.053M1062.73 182.842H1100.91M1062.73 221.053V259.263M1062.73 221.053H1100.91M1062.73 259.263V297.474M1062.73 259.263H1100.91M1062.73 297.474V335.684M1062.73 297.474H1100.91M1062.73 335.684V373.895M1062.73 335.684H1100.91M1062.73 373.895V412.105M1062.73 373.895H1100.91M1062.73 412.105V450.316M1062.73 412.105H1100.91M1062.73 450.316V488.526M1062.73 450.316H1100.91M1062.73 488.526V526.737M1062.73 488.526H1100.91M1062.73 526.737V564.947M1062.73 526.737H1100.91M1062.73 564.947V603.158M1062.73 564.947H1100.91M1062.73 603.158V641.368M1062.73 603.158H1100.91M1062.73 641.368V679.579M1062.73 641.368H1100.91M1062.73 679.579V717.789M1062.73 679.579H1100.91M1062.73 717.789V756M1062.73 717.789H1100.91M1062.73 756H1100.91M1100.91 30V68.2105M1100.91 30H1139.09M1100.91 68.2105V106.421M1100.91 68.2105H1139.09M1100.91 106.421V144.632M1100.91 106.421H1139.09M1100.91 144.632V182.842M1100.91 144.632H1139.09M1100.91 182.842V221.053M1100.91 182.842H1139.09M1100.91 221.053V259.263M1100.91 221.053H1139.09M1100.91 259.263V297.474M1100.91 259.263H1139.09M1100.91 297.474V335.684M1100.91 297.474H1139.09M1100.91 335.684V373.895M1100.91 335.684H1139.09M1100.91 373.895V412.105M1100.91 373.895H1139.09M1100.91 412.105V450.316M1100.91 412.105H1139.09M1100.91 450.316V488.526M1100.91 450.316H1139.09M1100.91 488.526V526.737M1100.91 488.526H1139.09M1100.91 526.737V564.947M1100.91 526.737H1139.09M1100.91 564.947V603.158M1100.91 564.947H1139.09M1100.91 603.158V641.368M1100.91 603.158H1139.09M1100.91 641.368V679.579M1100.91 641.368H1139.09M1100.91 679.579V717.789M1100.91 679.579H1139.09M1100.91 717.789V756M1100.91 717.789H1139.09M1100.91 756H1139.09M1139.09 30V68.2105M1139.09 30H1177.27M1139.09 68.2105V106.421M1139.09 68.2105H1177.27M1139.09 106.421V144.632M1139.09 106.421H1177.27M1139.09 144.632V182.842M1139.09 144.632H1177.27M1139.09 182.842V221.053M1139.09 182.842H1177.27M1139.09 221.053V259.263M1139.09 221.053H1177.27M1139.09 259.263V297.474M1139.09 259.263H1177.27M1139.09 297.474V335.684M1139.09 297.474H1177.27M1139.09 335.684V373.895M1139.09 335.684H1177.27M1139.09 373.895V412.105M1139.09 373.895H1177.27M1139.09 412.105V450.316M1139.09 412.105H1177.27M1139.09 450.316V488.526M1139.09 450.316H1177.27M1139.09 488.526V526.737M1139.09 488.526H1177.27M1139.09 526.737V564.947M1139.09 526.737H1177.27M1139.09 564.947V603.158M1139.09 564.947H1177.27M1139.09 603.158V641.368M1139.09 603.158H1177.27M1139.09 641.368V679.579M1139.09 641.368H1177.27M1139.09 679.579V717.789M1139.09 679.579H1177.27M1139.09 717.789V756M1139.09 717.789H1177.27M1139.09 756H1177.27M1177.27 30V68.2105M1177.27 30H1215.45M1177.27 68.2105V106.421M1177.27 68.2105H1215.45M1177.27 106.421V144.632M1177.27 106.421H1215.45M1177.27 144.632V182.842M1177.27 144.632H1215.45M1177.27 182.842V221.053M1177.27 182.842H1215.45M1177.27 221.053V259.263M1177.27 221.053H1215.45M1177.27 259.263V297.474M1177.27 259.263H1215.45M1177.27 297.474V335.684M1177.27 297.474H1215.45M1177.27 335.684V373.895M1177.27 335.684H1215.45M1177.27 373.895V412.105M1177.27 373.895H1215.45M1177.27 412.105V450.316M1177.27 412.105H1215.45M1177.27 450.316V488.526M1177.27 450.316H1215.45M1177.27 488.526V526.737M1177.27 488.526H1215.45M1177.27 526.737V564.947M1177.27 526.737H1215.45M1177.27 564.947V603.158M1177.27 564.947H1215.45M1177.27 603.158V641.368M1177.27 603.158H1215.45M1177.27 641.368V679.579M1177.27 641.368H1215.45M1177.27 679.579V717.789M1177.27 679.579H1215.45M1177.27 717.789V756M1177.27 717.789H1215.45M1177.27 756H1215.45M1215.45 30V68.2105M1215.45 30H1253.64M1215.45 68.2105V106.421M1215.45 68.2105H1253.64M1215.45 106.421V144.632M1215.45 106.421H1253.64M1215.45 144.632V182.842M1215.45 144.632H1253.64M1215.45 182.842V221.053M1215.45 182.842H1253.64M1215.45 221.053V259.263M1215.45 221.053H1253.64M1215.45 259.263V297.474M1215.45 259.263H1253.64M1215.45 297.474V335.684M1215.45 297.474H1253.64M1215.45 335.684V373.895M1215.45 335.684H1253.64M1215.45 373.895V412.105M1215.45 373.895H1253.64M1215.45 412.105V450.316M1215.45 412.105H1253.64M1215.45 450.316V488.526M1215.45 450.316H1253.64M1215.45 488.526V526.737M1215.45 488.526H1253.64M1215.45 526.737V564.947M1215.45 526.737H1253.64M1215.45 564.947V603.158M1215.45 564.947H1253.64M1215.45 603.158V641.368M1215.45 603.158H1253.64M1215.45 641.368V679.579M1215.45 641.368H1253.64M1215.45 679.579V717.789M1215.45 679.579H1253.64M1215.45 717.789V756M1215.45 717.789H1253.64M1215.45 756H1253.64M1253.64 30V68.2105M1253.64 30H1291.82M1253.64 68.2105V106.421M1253.64 68.2105H1291.82M1253.64 106.421V144.632M1253.64 106.421H1291.82M1253.64 144.632V182.842M1253.64 144.632H1291.82M1253.64 182.842V221.053M1253.64 182.842H1291.82M1253.64 221.053V259.263M1253.64 221.053H1291.82M1253.64 259.263V297.474M1253.64 259.263H1291.82M1253.64 297.474V335.684M1253.64 297.474H1291.82M1253.64 335.684V373.895M1253.64 335.684H1291.82M1253.64 373.895V412.105M1253.64 373.895H1291.82M1253.64 412.105V450.316M1253.64 412.105H1291.82M1253.64 450.316V488.526M1253.64 450.316H1291.82M1253.64 488.526V526.737M1253.64 488.526H1291.82M1253.64 526.737V564.947M1253.64 526.737H1291.82M1253.64 564.947V603.158M1253.64 564.947H1291.82M1253.64 603.158V641.368M1253.64 603.158H1291.82M1253.64 641.368V679.579M1253.64 641.368H1291.82M1253.64 679.579V717.789M1253.64 679.579H1291.82M1253.64 717.789V756M1253.64 717.789H1291.82M1253.64 756H1291.82M1291.82 30V68.2105M1291.82 30H1330M1291.82 68.2105V106.421M1291.82 68.2105H1330M1291.82 106.421V144.632M1291.82 106.421H1330M1291.82 144.632V182.842M1291.82 144.632H1330M1291.82 182.842V221.053M1291.82 182.842H1330M1291.82 221.053V259.263M1291.82 221.053H1330M1291.82 259.263V297.474M1291.82 259.263H1330M1291.82 297.474V335.684M1291.82 297.474H1330M1291.82 335.684V373.895M1291.82 335.684H1330M1291.82 373.895V412.105M1291.82 373.895H1330M1291.82 412.105V450.316M1291.82 412.105H1330M1291.82 450.316V488.526M1291.82 450.316H1330M1291.82 488.526V526.737M1291.82 488.526H1330M1291.82 526.737V564.947M1291.82 526.737H1330M1291.82 564.947V603.158M1291.82 564.947H1330M1291.82 603.158V641.368M1291.82 603.158H1330M1291.82 641.368V679.579M1291.82 641.368H1330M1291.82 679.579V717.789M1291.82 679.579H1330M1291.82 717.789V756M1291.82 717.789H1330M1291.82 756H1330M1330 30V68.2105M1330 30H1368.18M1330 68.2105V106.421M1330 68.2105H1368.18M1330 106.421V144.632M1330 106.421H1368.18M1330 144.632V182.842M1330 144.632H1368.18M1330 182.842V221.053M1330 182.842H1368.18M1330 221.053V259.263M1330 221.053H1368.18M1330 259.263V297.474M1330 259.263H1368.18M1330 297.474V335.684M1330 297.474H1368.18M1330 335.684V373.895M1330 335.684H1368.18M1330 373.895V412.105M1330 373.895H1368.18M1330 412.105V450.316M1330 412.105H1368.18M1330 450.316V488.526M1330 450.316H1368.18M1330 488.526V526.737M1330 488.526H1368.18M1330 526.737V564.947M1330 526.737H1368.18M1330 564.947V603.158M1330 564.947H1368.18M1330 603.158V641.368M1330 603.158H1368.18M1330 641.368V679.579M1330 641.368H1368.18M1330 679.579V717.789M1330 679.579H1368.18M1330 717.789V756M1330 717.789H1368.18M1330 756H1368.18M1368.18 30V68.2105M1368.18 30H1406.36M1368.18 68.2105V106.421M1368.18 68.2105H1406.36M1368.18 106.421V144.632M1368.18 106.421H1406.36M1368.18 144.632V182.842M1368.18 144.632H1406.36M1368.18 182.842V221.053M1368.18 182.842H1406.36M1368.18 221.053V259.263M1368.18 221.053H1406.36M1368.18 259.263V297.474M1368.18 259.263H1406.36M1368.18 297.474V335.684M1368.18 297.474H1406.36M1368.18 335.684V373.895M1368.18 335.684H1406.36M1368.18 373.895V412.105M1368.18 373.895H1406.36M1368.18 412.105V450.316M1368.18 412.105H1406.36M1368.18 450.316V488.526M1368.18 450.316H1406.36M1368.18 488.526V526.737M1368.18 488.526H1406.36M1368.18 526.737V564.947M1368.18 526.737H1406.36M1368.18 564.947V603.158M1368.18 564.947H1406.36M1368.18 603.158V641.368M1368.18 603.158H1406.36M1368.18 641.368V679.579M1368.18 641.368H1406.36M1368.18 679.579V717.789M1368.18 679.579H1406.36M1368.18 717.789V756M1368.18 717.789H1406.36M1368.18 756H1406.36M1406.36 30V68.2105M1406.36 30H1444.55M1406.36 68.2105V106.421M1406.36 68.2105H1444.55M1406.36 106.421V144.632M1406.36 106.421H1444.55M1406.36 144.632V182.842M1406.36 144.632H1444.55M1406.36 182.842V221.053M1406.36 182.842H1444.55M1406.36 221.053V259.263M1406.36 221.053H1444.55M1406.36 259.263V297.474M1406.36 259.263H1444.55M1406.36 297.474V335.684M1406.36 297.474H1444.55M1406.36 335.684V373.895M1406.36 335.684H1444.55M1406.36 373.895V412.105M1406.36 373.895H1444.55M1406.36 412.105V450.316M1406.36 412.105H1444.55M1406.36 450.316V488.526M1406.36 450.316H1444.55M1406.36 488.526V526.737M1406.36 488.526H1444.55M1406.36 526.737V564.947M1406.36 526.737H1444.55M1406.36 564.947V603.158M1406.36 564.947H1444.55M1406.36 603.158V641.368M1406.36 603.158H1444.55M1406.36 641.368V679.579M1406.36 641.368H1444.55M1406.36 679.579V717.789M1406.36 679.579H1444.55M1406.36 717.789V756M1406.36 717.789H1444.55M1406.36 756H1444.55M1444.55 30V68.2105M1444.55 30H1482.73M1444.55 68.2105V106.421M1444.55 68.2105H1482.73M1444.55 106.421V144.632M1444.55 106.421H1482.73M1444.55 144.632V182.842M1444.55 144.632H1482.73M1444.55 182.842V221.053M1444.55 182.842H1482.73M1444.55 221.053V259.263M1444.55 221.053H1482.73M1444.55 259.263V297.474M1444.55 259.263H1482.73M1444.55 297.474V335.684M1444.55 297.474H1482.73M1444.55 335.684V373.895M1444.55 335.684H1482.73M1444.55 373.895V412.105M1444.55 373.895H1482.73M1444.55 412.105V450.316M1444.55 412.105H1482.73M1444.55 450.316V488.526M1444.55 450.316H1482.73M1444.55 488.526V526.737M1444.55 488.526H1482.73M1444.55 526.737V564.947M1444.55 526.737H1482.73M1444.55 564.947V603.158M1444.55 564.947H1482.73M1444.55 603.158V641.368M1444.55 603.158H1482.73M1444.55 641.368V679.579M1444.55 641.368H1482.73M1444.55 679.579V717.789M1444.55 679.579H1482.73M1444.55 717.789V756M1444.55 717.789H1482.73M1444.55 756H1482.73M1482.73 30V68.2105M1482.73 30H1520.91M1482.73 68.2105V106.421M1482.73 68.2105H1520.91M1482.73 106.421V144.632M1482.73 106.421H1520.91M1482.73 144.632V182.842M1482.73 144.632H1520.91M1482.73 182.842V221.053M1482.73 182.842H1520.91M1482.73 221.053V259.263M1482.73 221.053H1520.91M1482.73 259.263V297.474M1482.73 259.263H1520.91M1482.73 297.474V335.684M1482.73 297.474H1520.91M1482.73 335.684V373.895M1482.73 335.684H1520.91M1482.73 373.895V412.105M1482.73 373.895H1520.91M1482.73 412.105V450.316M1482.73 412.105H1520.91M1482.73 450.316V488.526M1482.73 450.316H1520.91M1482.73 488.526V526.737M1482.73 488.526H1520.91M1482.73 526.737V564.947M1482.73 526.737H1520.91M1482.73 564.947V603.158M1482.73 564.947H1520.91M1482.73 603.158V641.368M1482.73 603.158H1520.91M1482.73 641.368V679.579M1482.73 641.368H1520.91M1482.73 679.579V717.789M1482.73 679.579H1520.91M1482.73 717.789V756M1482.73 717.789H1520.91M1482.73 756H1520.91M1520.91 30V68.2105M1520.91 30H1559.09M1520.91 68.2105V106.421M1520.91 68.2105H1559.09M1520.91 106.421V144.632M1520.91 106.421H1559.09M1520.91 144.632V182.842M1520.91 144.632H1559.09M1520.91 182.842V221.053M1520.91 182.842H1559.09M1520.91 221.053V259.263M1520.91 221.053H1559.09M1520.91 259.263V297.474M1520.91 259.263H1559.09M1520.91 297.474V335.684M1520.91 297.474H1559.09M1520.91 335.684V373.895M1520.91 335.684H1559.09M1520.91 373.895V412.105M1520.91 373.895H1559.09M1520.91 412.105V450.316M1520.91 412.105H1559.09M1520.91 450.316V488.526M1520.91 450.316H1559.09M1520.91 488.526V526.737M1520.91 488.526H1559.09M1520.91 526.737V564.947M1520.91 526.737H1559.09M1520.91 564.947V603.158M1520.91 564.947H1559.09M1520.91 603.158V641.368M1520.91 603.158H1559.09M1520.91 641.368V679.579M1520.91 641.368H1559.09M1520.91 679.579V717.789M1520.91 679.579H1559.09M1520.91 717.789V756M1520.91 717.789H1559.09M1520.91 756H1559.09M1559.09 30V68.2105M1559.09 30H1597.27M1559.09 68.2105V106.421M1559.09 68.2105H1597.27M1559.09 106.421V144.632M1559.09 106.421H1597.27M1559.09 144.632V182.842M1559.09 144.632H1597.27M1559.09 182.842V221.053M1559.09 182.842H1597.27M1559.09 221.053V259.263M1559.09 221.053H1597.27M1559.09 259.263V297.474M1559.09 259.263H1597.27M1559.09 297.474V335.684M1559.09 297.474H1597.27M1559.09 335.684V373.895M1559.09 335.684H1597.27M1559.09 373.895V412.105M1559.09 373.895H1597.27M1559.09 412.105V450.316M1559.09 412.105H1597.27M1559.09 450.316V488.526M1559.09 450.316H1597.27M1559.09 488.526V526.737M1559.09 488.526H1597.27M1559.09 526.737V564.947M1559.09 526.737H1597.27M1559.09 564.947V603.158M1559.09 564.947H1597.27M1559.09 603.158V641.368M1559.09 603.158H1597.27M1559.09 641.368V679.579M1559.09 641.368H1597.27M1559.09 679.579V717.789M1559.09 679.579H1597.27M1559.09 717.789V756M1559.09 717.789H1597.27M1559.09 756H1597.27M1597.27 30V68.2105M1597.27 30H1635.45M1597.27 68.2105V106.421M1597.27 68.2105H1635.45M1597.27 106.421V144.632M1597.27 106.421H1635.45M1597.27 144.632V182.842M1597.27 144.632H1635.45M1597.27 182.842V221.053M1597.27 182.842H1635.45M1597.27 221.053V259.263M1597.27 221.053H1635.45M1597.27 259.263V297.474M1597.27 259.263H1635.45M1597.27 297.474V335.684M1597.27 297.474H1635.45M1597.27 335.684V373.895M1597.27 335.684H1635.45M1597.27 373.895V412.105M1597.27 373.895H1635.45M1597.27 412.105V450.316M1597.27 412.105H1635.45M1597.27 450.316V488.526M1597.27 450.316H1635.45M1597.27 488.526V526.737M1597.27 488.526H1635.45M1597.27 526.737V564.947M1597.27 526.737H1635.45M1597.27 564.947V603.158M1597.27 564.947H1635.45M1597.27 603.158V641.368M1597.27 603.158H1635.45M1597.27 641.368V679.579M1597.27 641.368H1635.45M1597.27 679.579V717.789M1597.27 679.579H1635.45M1597.27 717.789V756M1597.27 717.789H1635.45M1597.27 756H1635.45M1635.45 30V68.2105M1635.45 30H1673.64M1635.45 68.2105V106.421M1635.45 68.2105H1673.64M1635.45 106.421V144.632M1635.45 106.421H1673.64M1635.45 144.632V182.842M1635.45 144.632H1673.64M1635.45 182.842V221.053M1635.45 182.842H1673.64M1635.45 221.053V259.263M1635.45 221.053H1673.64M1635.45 259.263V297.474M1635.45 259.263H1673.64M1635.45 297.474V335.684M1635.45 297.474H1673.64M1635.45 335.684V373.895M1635.45 335.684H1673.64M1635.45 373.895V412.105M1635.45 373.895H1673.64M1635.45 412.105V450.316M1635.45 412.105H1673.64M1635.45 450.316V488.526M1635.45 450.316H1673.64M1635.45 488.526V526.737M1635.45 488.526H1673.64M1635.45 526.737V564.947M1635.45 526.737H1673.64M1635.45 564.947V603.158M1635.45 564.947H1673.64M1635.45 603.158V641.368M1635.45 603.158H1673.64M1635.45 641.368V679.579M1635.45 641.368H1673.64M1635.45 679.579V717.789M1635.45 679.579H1673.64M1635.45 717.789V756M1635.45 717.789H1673.64M1635.45 756H1673.64M1673.64 30V68.2105M1673.64 30H1711.82M1673.64 68.2105V106.421M1673.64 68.2105H1711.82M1673.64 106.421V144.632M1673.64 106.421H1711.82M1673.64 144.632V182.842M1673.64 144.632H1711.82M1673.64 182.842V221.053M1673.64 182.842H1711.82M1673.64 221.053V259.263M1673.64 221.053H1711.82M1673.64 259.263V297.474M1673.64 259.263H1711.82M1673.64 297.474V335.684M1673.64 297.474H1711.82M1673.64 335.684V373.895M1673.64 335.684H1711.82M1673.64 373.895V412.105M1673.64 373.895H1711.82M1673.64 412.105V450.316M1673.64 412.105H1711.82M1673.64 450.316V488.526M1673.64 450.316H1711.82M1673.64 488.526V526.737M1673.64 488.526H1711.82M1673.64 526.737V564.947M1673.64 526.737H1711.82M1673.64 564.947V603.158M1673.64 564.947H1711.82M1673.64 603.158V641.368M1673.64 603.158H1711.82M1673.64 641.368V679.579M1673.64 641.368H1711.82M1673.64 679.579V717.789M1673.64 679.579H1711.82M1673.64 717.789V756M1673.64 717.789H1711.82M1673.64 756H1711.82M1711.82 30V68.2105M1711.82 30H1750V68.2105M1711.82 68.2105V106.421M1711.82 68.2105H1750M1711.82 106.421V144.632M1711.82 106.421H1750M1711.82 144.632V182.842M1711.82 144.632H1750M1711.82 182.842V221.053M1711.82 182.842H1750M1711.82 221.053V259.263M1711.82 221.053H1750M1711.82 259.263V297.474M1711.82 259.263H1750M1711.82 297.474V335.684M1711.82 297.474H1750M1711.82 335.684V373.895M1711.82 335.684H1750M1711.82 373.895V412.105M1711.82 373.895H1750M1711.82 412.105V450.316M1711.82 412.105H1750M1711.82 450.316V488.526M1711.82 450.316H1750M1711.82 488.526V526.737M1711.82 488.526H1750M1711.82 526.737V564.947M1711.82 526.737H1750M1711.82 564.947V603.158M1711.82 564.947H1750M1711.82 603.158V641.368M1711.82 603.158H1750M1711.82 641.368V679.579M1711.82 641.368H1750M1711.82 679.579V717.789M1711.82 679.579H1750M1711.82 717.789V756M1711.82 717.789H1750M1711.82 756H1750V717.789M1750 68.2105V106.421M1750 106.421V144.632M1750 144.632V182.842M1750 182.842V221.053M1750 221.053V259.263M1750 259.263V297.474M1750 297.474V335.684M1750 335.684V373.895M1750 373.895V412.105M1750 412.105V450.316M1750 450.316V488.526M1750 488.526V526.737M1750 526.737V564.947M1750 564.947V603.158M1750 603.158V641.368M1750 641.368V679.579M1750 679.579V717.789" stroke="url(#paint1_radial_398_10)"/>
</g>
</g>
<defs>
<linearGradient id="paint0_linear_398_10" x1="0" y1="0" x2="1460.79" y2="274.034" gradientUnits="userSpaceOnUse">
<stop stop-color="#7E4BA4"/>
<stop offset="1" stop-color="#301C3E"/>
</linearGradient>
<radialGradient id="paint1_radial_398_10" cx="0" cy="0" r="1" gradientUnits="userSpaceOnUse" gradientTransform="translate(910 393) rotate(90) scale(363 678.315)">
<stop stop-color="white"/>
<stop offset="1" stop-color="white" stop-opacity="0.2"/>
</radialGradient>
<clipPath id="clip0_398_10">
<rect width="1376" height="726" fill="white"/>
</clipPath>
</defs>
</svg>
