<svg width="100" height="100" viewBox="0 0 100 100" fill="none" xmlns="http://www.w3.org/2000/svg">
<path d="M58.6035 24.5906C57.9816 17.9953 55.1205 11.5648 50.0204 6.49465C49.8545 6.32977 49.6886 6.16488 49.4813 6C43.7177 11.7297 40.8152 19.2731 40.7738 26.8165C35.4248 21.6227 28.0856 18.4075 20 18.4075C20 18.6548 20 18.9021 20 19.1082C20 34.8134 32.315 47.6742 47.9057 48.6223C48.4447 36.5446 53.2546 29.1249 58.6035 24.5906Z" fill="#7F4CA5"/>
<path d="M51.761 48.5804C66.8126 47.5911 78.7959 35.5134 79.5008 20.4678C75.6031 20.6327 53.0049 22.6937 51.761 48.5804Z" fill="#7F4CA5"/>
<path d="M51.6797 52.6611C51.3894 60.2045 49.2333 70.3449 40.8574 77.3524C41.5623 83.9477 44.4234 90.3782 49.5235 95.4484C49.6894 95.6132 49.8967 95.7781 50.0626 95.943C55.9505 90.0896 58.8945 82.4638 58.8945 74.7967C64.3264 80.073 71.79 83.3706 80 83.3706C80 83.1233 80 82.876 80 82.6287C80.0415 66.6762 67.4777 53.6092 51.6797 52.6611Z" fill="#7F4CA5"/>
<path d="M47.8635 51.8789C32.3143 52.8682 20.0408 65.6879 20.0408 81.393C42.3487 78.9198 47.5733 64.2864 47.8635 51.8789Z" fill="#7F4CA5"/>
</svg>
