<svg width="40" height="40" viewBox="0 0 40 40" fill="none" xmlns="http://www.w3.org/2000/svg">
<path d="M36.6055 13.7876C36.3741 12.4889 35.5348 11.4554 34.3027 10.9521L33.6745 10.6955C32.5618 10.241 31.9207 9.14218 32.0792 7.96135L32.1688 7.2945C32.3443 5.98725 31.8595 4.75129 30.8385 3.90345C29.8174 3.05568 28.5029 2.79794 27.2327 3.19596L26.5847 3.39897C25.437 3.75873 24.232 3.32475 23.5864 2.31905L23.222 1.75168C22.5073 0.638495 21.3329 0 20.0001 0C18.6673 0 17.4929 0.638495 16.7782 1.75168L16.4138 2.31921C15.7681 3.32475 14.5631 3.75873 13.4154 3.39905L12.7674 3.19604C11.4969 2.7981 10.1826 3.05592 9.16161 3.90352C8.14063 4.75129 7.65579 5.98725 7.83141 7.29457L7.92098 7.96127C8.07955 9.14218 7.43847 10.241 6.32551 10.6955L5.69723 10.9522C4.46532 11.4554 3.62604 12.4889 3.39447 13.7878C3.16314 15.0865 3.59459 16.3417 4.57835 17.2316L5.08008 17.6854C5.96874 18.4891 6.19135 19.7387 5.63415 20.7948L5.31957 21.3908C4.70266 22.56 4.73108 23.8855 5.39746 25.0276C6.06392 26.1699 7.20985 26.857 8.54142 26.9129L9.22029 26.9413C9.22309 26.9414 9.22581 26.9419 9.22861 26.942L5.45677 35.7351C5.41163 35.8403 5.39814 35.9562 5.4179 36.0688C5.43766 36.1814 5.48985 36.286 5.56819 36.37C5.64653 36.454 5.74771 36.5139 5.85958 36.5424C5.97145 36.5709 6.08926 36.5669 6.19888 36.5308L11.322 34.8445L13.6548 39.6626C13.7037 39.7636 13.7805 39.8489 13.8763 39.9086C13.9721 39.9683 14.083 40 14.1962 40L14.2099 39.9998C14.3254 39.9973 14.4376 39.9618 14.5333 39.8976C14.6289 39.8334 14.7037 39.7433 14.7489 39.6381L18.2247 31.535L18.4047 31.398C19.359 30.6717 20.6411 30.6717 21.5954 31.398L21.7752 31.5349L25.2512 39.638C25.2964 39.7433 25.3712 39.8334 25.4668 39.8975C25.5625 39.9617 25.6748 39.9972 25.7903 39.9998L25.8039 39.9999C25.9171 39.9999 26.028 39.9682 26.1238 39.9085C26.2196 39.8488 26.2964 39.7635 26.3453 39.6625L28.6781 34.8444L33.8012 36.5308C33.9108 36.5669 34.0286 36.571 34.1405 36.5424C34.2523 36.5139 34.3535 36.454 34.4318 36.37C34.5102 36.286 34.5624 36.1814 34.5822 36.0687C34.6019 35.9561 34.5884 35.8402 34.5433 35.735L30.7712 26.9418C30.7741 26.9416 30.7769 26.9412 30.7797 26.9411L31.4585 26.9126C32.7901 26.8568 33.936 26.1697 34.6024 25.0275C35.2689 23.8853 35.2974 22.5598 34.6805 21.3907L34.3659 20.7945C33.8088 19.7385 34.0314 18.489 34.9199 17.6852L35.4215 17.2314C36.4054 16.3417 36.8368 15.0865 36.6055 13.7876ZM14.1632 37.9627L12.1761 33.8588C12.113 33.7283 12.0039 33.6251 11.8693 33.5685C11.7348 33.512 11.584 33.506 11.4452 33.5518L7.08154 34.9882L10.3938 27.2667C11.0281 27.6157 11.4974 28.22 11.6647 28.9705L11.811 29.6273C12.0979 30.9153 12.9808 31.9127 14.2331 32.3637C14.6714 32.5216 15.1183 32.5994 15.5597 32.5994C15.8842 32.5994 16.2054 32.5566 16.5179 32.4733L14.1632 37.9627ZM32.9184 34.9882L28.5548 33.5518C28.4161 33.5062 28.2653 33.5122 28.1307 33.5687C27.9962 33.6252 27.8871 33.7284 27.8239 33.8588L25.8368 37.9628L23.4817 32.4724C24.2193 32.6691 25.0062 32.6377 25.767 32.3638C27.0194 31.9127 27.9023 30.9153 28.1891 29.6274L28.3355 28.9706C28.5026 28.2199 28.9718 27.6156 29.6061 27.2667L32.9184 34.9882ZM34.6115 16.3545L34.1099 16.8082C32.8136 17.9808 32.4888 19.8036 33.3016 21.3443L33.6162 21.9406C34.0452 22.7537 34.0263 23.639 33.5627 24.4334C33.0992 25.2278 32.3338 25.6867 31.4077 25.7255L30.7289 25.754C28.9741 25.8276 27.541 27.0174 27.163 28.7149L27.0167 29.3716C26.8172 30.2674 26.2275 30.9335 25.3564 31.2473C24.4853 31.561 23.6009 31.4257 22.8663 30.8665L22.3276 30.4563C20.9354 29.3964 19.0647 29.3966 17.6726 30.4563L17.134 30.8665C16.3992 31.4257 15.5148 31.5611 14.6439 31.2473C13.7729 30.9335 13.1833 30.2675 12.9837 29.3716L12.8374 28.7148C12.4592 27.0175 11.0262 25.8277 9.27152 25.7541L8.59265 25.7256C7.66652 25.6868 6.9012 25.2279 6.43765 24.4334C5.97419 23.6391 5.95522 22.7537 6.38426 21.9406L6.69884 21.3446C7.51179 19.8039 7.18696 17.9808 5.89054 16.8082L5.38881 16.3545C4.70458 15.7356 4.41642 14.8973 4.57731 13.994C4.73836 13.0906 5.29892 12.4003 6.15581 12.0503L6.78401 11.7936C8.40758 11.1305 9.34292 9.52737 9.1115 7.80459L9.02193 7.1379C8.89978 6.22867 9.22357 5.40317 9.93365 4.81354C10.4224 4.40768 10.9907 4.19968 11.5856 4.19968C11.8549 4.19968 12.1299 4.24238 12.4053 4.32863L13.0532 4.53156C14.7275 5.05655 16.4855 4.42329 17.4274 2.9562L17.7918 2.38867C18.2888 1.61457 19.0731 1.18812 20.0001 1.18812C20.9271 1.18812 21.7114 1.61457 22.2084 2.38883L22.5728 2.95628C23.5147 4.42329 25.2727 5.05624 26.947 4.53172L27.595 4.32871C28.4786 4.0518 29.3565 4.224 30.0666 4.81362C30.7768 5.40333 31.1006 6.22875 30.9785 7.13798L30.8889 7.80483C30.6576 9.5276 31.5929 11.1307 33.2163 11.7937L33.8445 12.0503C34.7014 12.4003 35.262 13.0906 35.4229 13.9939C35.5839 14.8973 35.2958 15.7356 34.6115 16.3545ZM20.0001 6.29909C14.4269 6.29909 9.89275 10.7857 9.89275 16.3006C9.89275 21.8154 14.4269 26.302 20.0001 26.302C25.5732 26.302 30.1074 21.8154 30.1074 16.3005C30.1074 10.7857 25.5732 6.29909 20.0001 6.29909ZM20.0001 25.1139C15.0889 25.1139 11.0934 21.1602 11.0934 16.3005C11.0934 11.4408 15.0889 7.48713 20.0001 7.48713C24.9112 7.48713 28.9067 11.4408 28.9067 16.3005C28.9067 21.1602 24.9112 25.1139 20.0001 25.1139ZM25.4593 11.7278C25.054 11.3846 24.5383 11.2184 24.0058 11.2591C23.4739 11.3 22.9899 11.5435 22.6433 11.9442L18.8066 16.3735L17.3252 14.741C16.5879 13.9304 15.3214 13.8643 14.502 14.594C14.1052 14.9474 13.8711 15.4327 13.843 15.9603C13.8149 16.4878 13.9961 16.9945 14.353 17.3871L17.3545 20.6948C17.55 20.9101 17.791 21.0802 18.0604 21.1929C18.3298 21.3056 18.6209 21.3583 18.9132 21.3471C19.2034 21.337 19.4879 21.2643 19.7468 21.1343C20.0057 21.0042 20.2329 20.8198 20.4124 20.5939L25.6784 14.5146C26.3945 13.6866 26.2962 12.4364 25.4593 11.7278ZM24.7665 13.7419L19.4918 19.831C19.4854 19.8384 19.479 19.8461 19.473 19.8539C19.4011 19.9457 19.3097 20.0207 19.2053 20.0735C19.1009 20.1264 18.986 20.1559 18.8688 20.1598C18.6293 20.1679 18.4075 20.0764 18.2475 19.9006L15.2465 16.5934L15.246 16.5929C15.1756 16.5159 15.1213 16.4259 15.0864 16.3281C15.0514 16.2302 15.0364 16.1265 15.0422 16.0229C15.0474 15.9192 15.0734 15.8176 15.1185 15.7239C15.1637 15.6303 15.2272 15.5464 15.3054 15.4771C15.4518 15.3466 15.6421 15.2744 15.8392 15.2747C15.951 15.2745 16.0617 15.2975 16.1639 15.3425C16.2661 15.3874 16.3576 15.4531 16.4324 15.5354L18.3705 17.6711C18.4859 17.7983 18.6506 17.869 18.8241 17.8683C18.9095 17.8673 18.9938 17.8483 19.0712 17.8125C19.1486 17.7767 19.2174 17.725 19.273 17.6608L23.5555 12.7171C23.8411 12.3868 24.345 12.348 24.6788 12.6307C24.8405 12.7676 24.9386 12.9586 24.9551 13.1686C24.9716 13.3785 24.9045 13.5823 24.7665 13.7419Z" fill="url(#paint0_linear_2427_108)"/>
<defs>
<linearGradient id="paint0_linear_2427_108" x1="3.33331" y1="0" x2="39.7184" y2="3.00108" gradientUnits="userSpaceOnUse">
<stop stop-color="#7E4BA4"/>
<stop offset="1" stop-color="#301C3E"/>
</linearGradient>
</defs>
</svg>
