<svg width="104" height="36" viewBox="0 0 104 36" fill="none" xmlns="http://www.w3.org/2000/svg">
<g clip-path="url(#clip0_410_7)">
<path d="M104 36.0628V-0.0126953H58.7539L74.667 36.0628H104Z" fill="#0070CE"/>
<path d="M19.4893 23.6522C17.3873 25.6525 15.3169 26.9861 12.0251 26.9861C6.94376 26.9861 3.10909 22.891 3.10909 17.4656C3.10909 12.0401 6.94376 8.00793 12.0251 8.00793C14.7709 8.00793 16.9423 8.95149 19.2841 11.172L19.4388 11.3198L21.5439 9.06472L21.3924 8.92318C19.3031 6.95743 16.7245 5.14894 12.0535 5.14894C5.14162 5.1395 -0.0722656 10.4675 -0.0722656 17.5316C-0.0722656 24.5957 5.09744 29.8545 11.9588 29.8545C16.7435 29.8545 19.483 27.7346 21.5344 25.6651L21.6828 25.5141L19.6376 23.5138L19.4893 23.6522Z" fill="#003057"/>
<path d="M30.3809 11.3228C25.5015 11.3228 21.8184 15.2983 21.8184 20.5854C21.8184 25.8725 25.6467 29.8543 30.7186 29.8543C33.72 29.8543 35.9798 28.829 38.0471 26.5298L38.1859 26.3726L36.2639 24.6553L36.1218 24.8031C34.5627 26.4292 32.8679 27.1872 30.7849 27.1872C27.654 27.1872 25.309 25.0044 24.8924 21.7334H38.6499L38.672 21.5478C38.6994 21.273 38.711 20.9968 38.7067 20.7206C38.7067 15.097 35.3486 11.3228 30.3809 11.3228ZM24.8924 19.4028C25.3027 16.1601 27.5057 13.9144 30.3146 13.9144C33.7863 13.9144 35.3391 16.7073 35.6389 19.4028H24.8924Z" fill="#003057"/>
<path d="M50.1275 14.5874V11.3888H49.9255C47.0503 11.2692 44.5254 12.8198 43.0199 15.5341V11.6844H40.0059V29.4517H43.0199V22.3309C43.0199 17.6131 45.649 14.5874 49.714 14.5874H50.1275Z" fill="#003057"/>
<path d="M84.5775 5.54199L76.299 25.4385L68.0552 5.54199H64.6309L74.9482 29.6185H77.5835L87.9008 5.54199H84.5775Z" fill="white"/>
<path d="M56.7602 11.4487H51.3443V14.1536H56.6056C59.7396 14.1913 61.466 15.7954 61.466 18.6733V18.9878C59.7916 18.523 58.0596 18.2964 56.3215 18.3147C51.5306 18.3147 48.668 20.5006 48.668 24.1616C48.668 28.0428 52.1397 29.823 55.3779 29.823C58.4077 29.823 60.3235 28.4926 61.466 27.2125V29.455H64.3854V18.6387C64.3854 14.0026 61.6806 11.4487 56.7697 11.4487M55.8828 27.3635C53.8787 27.3635 51.7168 26.3381 51.7168 24.083C51.7168 21.9474 53.5378 20.6705 56.5898 20.6705C58.2497 20.671 59.9015 20.9017 61.4975 21.3561V22.8658C61.4975 25.426 59.0863 27.354 55.8828 27.354" fill="#003057"/>
<path d="M4.00598 35.7988C3.80758 35.9795 3.54544 36.0745 3.27692 36.063H2.28906V33.2575H3.27692C3.40996 33.2511 3.54293 33.2712 3.6681 33.3166C3.79327 33.3619 3.90813 33.4317 4.00598 33.5217C4.32159 33.8362 4.29003 34.2325 4.29003 34.6382C4.29003 35.044 4.30897 35.4937 4.00598 35.7988ZM3.71247 33.8268C3.65034 33.7634 3.5755 33.7139 3.49283 33.6814C3.41016 33.6489 3.32153 33.6341 3.23274 33.6381H2.71514V35.6793H3.23274C3.32171 35.685 3.41083 35.671 3.49375 35.6384C3.57668 35.6057 3.65136 35.5553 3.71247 35.4906C3.85765 35.3302 3.86396 35.0251 3.86396 34.6382C3.86396 34.2514 3.86396 33.9903 3.71247 33.8268Z" fill="#003057"/>
<path d="M4.91992 36.0631V33.2544H6.7189V33.6381H5.346V34.459H6.51691V34.8364H5.346V35.6793H6.7189V36.0631H4.91992Z" fill="#003057"/>
<path d="M8.21316 36.0631H7.88177L6.95703 33.2544H7.40204L8.04904 35.2956L8.69605 33.2544H9.14737L8.21316 36.0631Z" fill="#003057"/>
<path d="M9.53516 36.0631V33.2544H11.3341V33.6381H9.96123V34.459H11.1321V34.8364H9.96123V35.6793H11.3341V36.0631H9.53516Z" fill="#003057"/>
<path d="M11.918 36.0631V33.2544H12.344V35.6793H13.7012V36.0631H11.918Z" fill="#003057"/>
<path d="M15.7372 35.786C15.6417 35.886 15.5266 35.9656 15.399 36.0196C15.2715 36.0737 15.1341 36.1012 14.9955 36.1005C14.8573 36.1016 14.7204 36.0742 14.5933 36.0201C14.4662 35.9659 14.3517 35.8862 14.257 35.786C13.9793 35.5092 13.9824 35.1978 13.9824 34.66C13.9824 34.1222 13.9824 33.8076 14.257 33.5309C14.3517 33.4306 14.4662 33.3509 14.5933 33.2968C14.7204 33.2426 14.8573 33.2153 14.9955 33.2163C15.1341 33.2156 15.2715 33.2431 15.399 33.2972C15.5266 33.3513 15.6417 33.4308 15.7372 33.5309C16.015 33.8076 16.0055 34.119 16.0055 34.66C16.0055 35.201 16.0055 35.5092 15.7372 35.786ZM15.4216 33.7888C15.3669 33.7333 15.3015 33.6894 15.2294 33.6597C15.1573 33.63 15.0799 33.615 15.0018 33.6158C14.9237 33.6145 14.8462 33.6292 14.774 33.6589C14.7018 33.6887 14.6365 33.7329 14.5821 33.7888C14.4432 33.9366 14.4148 34.1033 14.4148 34.66C14.4148 35.2167 14.4432 35.3802 14.5821 35.5312C14.6369 35.5865 14.7023 35.6303 14.7744 35.66C14.8465 35.6898 14.9238 35.7048 15.0018 35.7042C15.0798 35.7042 15.157 35.689 15.229 35.6593C15.301 35.6296 15.3665 35.5861 15.4216 35.5312C15.5573 35.3802 15.5857 35.2167 15.5857 34.66C15.5857 34.1033 15.5573 33.9366 15.4216 33.7888Z" fill="#003057"/>
<path d="M17.7054 34.959H17.0742V36.063H16.6387V33.2574H17.7054C17.8219 33.2504 17.9386 33.2671 18.0483 33.3067C18.1581 33.3463 18.2585 33.4078 18.3435 33.4875C18.4285 33.5672 18.4962 33.6634 18.5425 33.7701C18.5888 33.8769 18.6127 33.9919 18.6127 34.1082C18.6127 34.2245 18.5888 34.3396 18.5425 34.4463C18.4962 34.5531 18.4285 34.6492 18.3435 34.7289C18.2585 34.8086 18.1581 34.8702 18.0483 34.9097C17.9386 34.9493 17.8219 34.966 17.7054 34.959ZM17.6739 33.6537H17.0427V34.5973H17.6739C17.7994 34.5973 17.9198 34.5476 18.0086 34.4591C18.0974 34.3706 18.1473 34.2506 18.1473 34.1255C18.1473 34.0004 18.0974 33.8804 18.0086 33.7919C17.9198 33.7034 17.7994 33.6537 17.6739 33.6537Z" fill="#003057"/>
<path d="M19.127 36.0631V33.2544H20.9259V33.6381H19.553V34.459H20.7239V34.8364H19.553V35.6793H20.9259V36.0631H19.127Z" fill="#003057"/>
<path d="M23.2267 35.7988C23.0283 35.9795 22.7661 36.0745 22.4976 36.063H21.5098V33.2575H22.4976C22.6307 33.2511 22.7636 33.2712 22.8888 33.3166C23.014 33.3619 23.1288 33.4317 23.2267 33.5217C23.5423 33.8362 23.5107 34.2325 23.5107 34.6382C23.5107 35.044 23.5297 35.4937 23.2267 35.7988ZM22.9332 33.8268C22.871 33.7634 22.7962 33.7139 22.7135 33.6814C22.6309 33.6489 22.5422 33.6341 22.4534 33.6381H21.9358V35.6793H22.4534C22.5424 35.685 22.6315 35.671 22.7145 35.6384C22.7974 35.6057 22.8721 35.5553 22.9332 35.4906C23.0784 35.3302 23.0815 35.0251 23.0815 34.6382C23.0815 34.2514 23.0815 33.9903 22.9332 33.8268Z" fill="#003057"/>
<path d="M27.3883 36.0631H27.0159L26.4415 34.0942L25.8734 36.0631H25.501L24.7656 33.2544H25.2169L25.7061 35.261L26.2711 33.2544H26.6151L27.1832 35.261L27.6724 33.2544H28.1237L27.3883 36.0631Z" fill="#003057"/>
<path d="M28.9612 33.2573H28.5352V36.0628H28.9612V33.2573Z" fill="#003057"/>
<path d="M30.6497 33.6381V36.0631H30.2205V33.6381H29.4473V33.2544H31.423V33.6381H30.6497Z" fill="#003057"/>
<path d="M33.4799 36.0631V34.8364H32.3343V36.0631H31.9082V33.2544H32.3343V34.4559H33.4799V33.2544H33.906V36.0631H33.4799Z" fill="#003057"/>
<path d="M37.3048 35.7989C37.2072 35.8884 37.0929 35.9578 36.9683 36.0031C36.8437 36.0485 36.7114 36.0688 36.5789 36.0631H35.5879V33.2575H36.5789C36.7115 33.2511 36.844 33.2711 36.9687 33.3165C37.0933 33.3618 37.2076 33.4316 37.3048 33.5217C37.6204 33.8363 37.5889 34.2326 37.5889 34.6383C37.5889 35.044 37.611 35.4938 37.3048 35.7989ZM37.0113 33.8268C36.9505 33.7626 36.8764 33.7124 36.794 33.6797C36.7117 33.6471 36.6232 33.6329 36.5347 33.6381H36.0171V35.6793H36.5347C36.6233 35.6854 36.712 35.6716 36.7945 35.6389C36.877 35.6063 36.9511 35.5556 37.0113 35.4906C37.1596 35.3302 37.1628 35.0251 37.1628 34.6383C37.1628 34.2514 37.1628 33.9904 37.0113 33.8268Z" fill="#003057"/>
<path d="M38.2227 36.0631V33.2544H40.0216V33.6381H38.6487V34.459H39.8196V34.8364H38.6487V35.6793H40.0216V36.0631H38.2227Z" fill="#003057"/>
<path d="M42.1595 36.0629L41.5661 34.8803H41.0296V36.0629H40.6035V33.2574H41.6955C41.8083 33.2476 41.9218 33.2617 42.0287 33.2986C42.1356 33.3355 42.2335 33.3945 42.316 33.4716C42.3985 33.5488 42.4637 33.6424 42.5074 33.7464C42.5512 33.8504 42.5724 33.9624 42.5698 34.0752C42.5763 34.2448 42.524 34.4115 42.4217 34.5473C42.3194 34.683 42.1733 34.7795 42.008 34.8206L42.6392 36.0787L42.1595 36.0629ZM41.6608 33.6537H41.0296V34.5312H41.6608C41.7218 34.5364 41.7831 34.5288 41.841 34.5091C41.8989 34.4894 41.952 34.4579 41.9971 34.4167C42.0421 34.3754 42.0781 34.3253 42.1027 34.2695C42.1273 34.2137 42.14 34.1534 42.14 34.0925C42.14 34.0315 42.1273 33.9712 42.1027 33.9154C42.0781 33.8596 42.0421 33.8095 41.9971 33.7682C41.952 33.727 41.8989 33.6955 41.841 33.6758C41.7831 33.6561 41.7218 33.6486 41.6608 33.6537Z" fill="#003057"/>
<path d="M45.2531 36.0631V34.1854L44.6029 35.5535H44.2873L43.6245 34.1854V36.0631H43.1953V33.2544H43.6245L44.4451 35.0031L45.2531 33.2544H45.6792V36.0631H45.2531Z" fill="#003057"/>
<path d="M48.0274 36.0631L47.8349 35.4969H46.7113L46.5156 36.0631H46.0801L47.1121 33.2544H47.4561L48.4882 36.0631H48.0274ZM47.2889 33.8897L46.8502 35.1478H47.7149L47.2889 33.8897Z" fill="#003057"/>
<path d="M49.5951 33.6381V36.0631H49.169V33.6381H48.3926V33.2544H50.3715V33.6381H49.5951Z" fill="#003057"/>
<path d="M52.4318 35.786C52.3354 35.8858 52.2197 35.9652 52.0917 36.0192C51.9637 36.0733 51.826 36.1009 51.6869 36.1005C51.5488 36.1012 51.412 36.0736 51.285 36.0195C51.1579 35.9654 51.0434 35.8859 50.9484 35.786C50.6707 35.5092 50.6738 35.1978 50.6738 34.66C50.6738 34.1221 50.6738 33.8076 50.9484 33.5308C51.0434 33.4309 51.1579 33.3514 51.285 33.2973C51.412 33.2432 51.5488 33.2156 51.6869 33.2163C51.826 33.2159 51.9637 33.2435 52.0917 33.2976C52.2197 33.3516 52.3354 33.431 52.4318 33.5308C52.7064 33.8076 52.7 34.119 52.7 34.66C52.7 35.2009 52.7001 35.5092 52.4318 35.786ZM52.1162 33.7887C52.0615 33.7333 51.9961 33.6894 51.924 33.6597C51.8518 33.6299 51.7745 33.615 51.6964 33.6158C51.6183 33.6145 51.5407 33.6291 51.4685 33.6589C51.3963 33.6886 51.331 33.7328 51.2766 33.7887C51.1378 33.9366 51.1125 34.1033 51.1125 34.66C51.1125 35.2167 51.1378 35.3802 51.2766 35.5312C51.3315 35.5865 51.3969 35.6303 51.469 35.66C51.541 35.6897 51.6184 35.7048 51.6964 35.7042C51.7743 35.7042 51.8515 35.689 51.9236 35.6593C51.9956 35.6296 52.061 35.5861 52.1162 35.5312C52.255 35.3802 52.2803 35.2167 52.2803 34.66C52.2803 34.1033 52.255 33.9366 52.1162 33.7887Z" fill="#003057"/>
<path d="M53.332 36.0631V33.2544H53.7581V35.6793H55.1152V36.0631H53.332Z" fill="#003057"/>
<path d="M57.1513 35.786C56.9523 35.9778 56.6864 36.085 56.4096 36.085C56.1328 36.085 55.8669 35.9778 55.6679 35.786C55.3902 35.5093 55.3965 35.1979 55.3965 34.66C55.3965 34.1222 55.3965 33.8077 55.6679 33.5309C55.8669 33.3391 56.1328 33.2319 56.4096 33.2319C56.6864 33.2319 56.9523 33.3391 57.1513 33.5309C57.429 33.8077 57.4196 34.1191 57.4196 34.66C57.4196 35.201 57.4196 35.5093 57.1513 35.786ZM56.8357 33.7888C56.7808 33.734 56.7157 33.6904 56.6439 33.6607C56.5722 33.631 56.4952 33.6157 56.4175 33.6157C56.3398 33.6157 56.2628 33.631 56.1911 33.6607C56.1193 33.6904 56.0541 33.734 55.9993 33.7888C55.8604 33.9367 55.832 34.1033 55.832 34.66C55.832 35.2167 55.8604 35.3803 55.9993 35.5313C56.0541 35.5861 56.1193 35.6297 56.1911 35.6594C56.2628 35.6891 56.3398 35.7044 56.4175 35.7044C56.4952 35.7044 56.5722 35.6891 56.6439 35.6594C56.7157 35.6297 56.7808 35.5861 56.8357 35.5313C56.9745 35.3803 57.003 35.2167 57.003 34.66C57.003 34.1033 56.9745 33.9367 56.8357 33.7888Z" fill="#003057"/>
<path d="M59.7356 35.7673C59.6363 35.8711 59.516 35.9528 59.3828 36.0071C59.2495 36.0613 59.1062 36.0867 58.9623 36.0818C58.8239 36.0816 58.6868 36.0537 58.5594 35.9997C58.432 35.9456 58.3168 35.8666 58.2206 35.7673C57.9461 35.4905 57.9492 35.1791 57.9492 34.6381C57.9492 34.0972 57.9492 33.7889 58.2206 33.5122C58.3164 33.4124 58.4316 33.3331 58.5591 33.279C58.6866 33.2249 58.8238 33.1972 58.9623 33.1976C59.2117 33.1873 59.4557 33.2713 59.6454 33.433C59.8351 33.5946 59.9564 33.8218 59.9849 34.0689H59.5557C59.5347 33.9289 59.4625 33.8016 59.3529 33.7116C59.2434 33.6215 59.1042 33.5751 58.9623 33.5813C58.8847 33.5799 58.8075 33.5945 58.7358 33.6243C58.6641 33.6541 58.5994 33.6984 58.5457 33.7543C58.4069 33.9022 58.3753 34.0689 58.3753 34.6224C58.3753 35.176 58.4069 35.349 58.5457 35.4999C58.5997 35.5553 58.6645 35.599 58.7362 35.6282C58.8079 35.6575 58.8849 35.6716 58.9623 35.6698C59.0484 35.6716 59.1339 35.6549 59.2129 35.6207C59.2919 35.5865 59.3626 35.5356 59.42 35.4716C59.5217 35.3481 59.5725 35.1907 59.562 35.0313V34.9118H58.9623V34.5501H59.9912V34.981C60.0049 35.1235 59.9892 35.2672 59.9453 35.4035C59.9013 35.5398 59.83 35.6657 59.7356 35.7736" fill="#003057"/>
<path d="M61.0413 33.2573H60.6152V36.0628H61.0413V33.2573Z" fill="#003057"/>
<path d="M62.5286 36.0852C62.3452 36.0994 62.161 36.0736 61.9887 36.0095C61.8165 35.9454 61.6603 35.8445 61.5312 35.714L61.8153 35.4341C61.9086 35.5282 62.0212 35.601 62.1454 35.6477C62.2696 35.6944 62.4025 35.7138 62.5349 35.7046C62.9042 35.7046 63.1156 35.5473 63.1156 35.2737C63.119 35.2199 63.1109 35.166 63.0919 35.1156C63.0729 35.0652 63.0433 35.0194 63.0052 34.9812C62.9175 34.9057 62.8054 34.8644 62.6895 34.8648L62.355 34.8176C62.1578 34.7996 61.9713 34.7204 61.8216 34.5912C61.7513 34.5217 61.6966 34.4381 61.6612 34.3459C61.6259 34.2537 61.6106 34.155 61.6165 34.0565C61.6165 33.5659 61.9731 33.2325 62.5633 33.2325C62.7228 33.2232 62.8825 33.2463 63.0328 33.3004C63.1831 33.3544 63.3208 33.4383 63.4375 33.547L63.163 33.8175C63.0814 33.7412 62.9849 33.6825 62.8796 33.6452C62.7742 33.6078 62.6622 33.5926 62.5507 33.6005C62.2351 33.6005 62.0362 33.7892 62.0362 34.0376C62.0343 34.0863 62.0429 34.1347 62.0614 34.1798C62.0799 34.2248 62.1079 34.2654 62.1435 34.2987C62.2355 34.3686 62.3444 34.4131 62.4591 34.4276L62.7748 34.4748C62.968 34.4871 63.1524 34.5598 63.3018 34.6824C63.3788 34.7565 63.439 34.8463 63.4782 34.9456C63.5174 35.0449 63.5347 35.1514 63.5291 35.258C63.5291 35.7738 63.1061 36.082 62.5191 36.082" fill="#003057"/>
<path d="M65.0658 33.6381V36.0631H64.6365V33.6381H63.8633V33.2544H65.839V33.6381H65.0658Z" fill="#003057"/>
<path d="M67.0735 36.0848C66.8902 36.0991 66.7059 36.0733 66.5337 36.0091C66.3614 35.945 66.2053 35.8442 66.0762 35.7137L66.3602 35.4338C66.4538 35.5275 66.5664 35.6001 66.6906 35.6468C66.8147 35.6935 66.9474 35.7131 67.0798 35.7043C67.4491 35.7043 67.6637 35.547 67.6637 35.2734C67.6667 35.2194 67.6581 35.1653 67.6385 35.1149C67.6189 35.0645 67.5888 35.0188 67.5501 34.9809C67.4624 34.9054 67.3503 34.864 67.2345 34.8645L66.9094 34.8173C66.7111 34.7999 66.5234 34.7207 66.3728 34.5909C66.3025 34.5214 66.2478 34.4377 66.2125 34.3455C66.1771 34.2533 66.1618 34.1547 66.1677 34.0562C66.1677 33.5655 66.5243 33.2321 67.1145 33.2321C67.2741 33.2225 67.4339 33.2454 67.5842 33.2995C67.7345 33.3536 67.8722 33.4377 67.9888 33.5466L67.7173 33.8171C67.6355 33.7413 67.539 33.683 67.4337 33.6456C67.3284 33.6083 67.2166 33.5928 67.1051 33.6001C66.7705 33.6001 66.5906 33.7888 66.5906 34.0373C66.5887 34.0859 66.5973 34.1344 66.6158 34.1794C66.6343 34.2245 66.6623 34.265 66.6979 34.2983C66.7893 34.3694 66.8985 34.414 67.0135 34.4273L67.3291 34.4745C67.5224 34.4868 67.7068 34.5594 67.8562 34.6821C67.9343 34.7555 67.9954 34.8451 68.0352 34.9445C68.075 35.0439 68.0925 35.1508 68.0866 35.2576C68.0866 35.7734 67.6637 36.0817 67.0735 36.0817" fill="#003057"/>
<path d="M92.0945 11.3228C87.2152 11.3228 83.5352 15.3077 83.5352 20.5948C83.5352 25.8819 87.3604 29.8637 92.4322 29.8637C95.4337 29.8637 97.6934 28.8384 99.7607 26.5392L99.9027 26.382L97.9775 24.6647L97.8355 24.8125C96.2795 26.4386 94.5847 27.1966 92.5017 27.1966C89.3676 27.1966 87.0258 25.0138 86.6061 21.7428H100.364L100.386 21.5572C100.413 21.2824 100.425 21.0062 100.42 20.7301C100.423 15.097 97.0748 11.3228 92.0945 11.3228ZM97.3526 19.4122H86.6218C87.0353 16.1695 89.2382 13.9238 92.044 13.9238C95.5157 13.9238 97.0717 16.7168 97.3684 19.4122" fill="white"/>
<path d="M97.9086 10.5366C97.5802 10.5378 97.2547 10.4742 96.9511 10.3494C96.6474 10.2246 96.3715 10.0412 96.1394 9.80956C95.9073 9.57795 95.7235 9.30283 95.5987 9.00006C95.4739 8.69729 95.4105 8.37288 95.4121 8.04556C95.4109 7.55097 95.557 7.06716 95.8321 6.65545C96.1071 6.24374 96.4986 5.92269 96.9569 5.73299C97.4153 5.54329 97.9198 5.49349 98.4066 5.5899C98.8934 5.68632 99.3405 5.9246 99.6912 6.27455C100.042 6.6245 100.28 7.07034 100.377 7.55556C100.473 8.04078 100.422 8.54352 100.231 9.00004C100.04 9.45656 99.7176 9.8463 99.3041 10.1198C98.8906 10.3934 98.4049 10.5384 97.9086 10.5366ZM97.9086 5.81875C97.4663 5.81502 97.0329 5.94255 96.6636 6.18511C96.2943 6.42766 96.0058 6.77425 95.8348 7.18076C95.6638 7.58727 95.6181 8.03529 95.7035 8.46778C95.7888 8.90027 96.0014 9.29765 96.3142 9.60933C96.6269 9.921 97.0257 10.1329 97.4597 10.2179C97.8937 10.303 98.3433 10.2575 98.7512 10.0871C99.1591 9.91666 99.5069 9.62913 99.7503 9.26109C99.9937 8.89306 100.122 8.46116 100.118 8.0204C100.118 7.43648 99.8851 6.87649 99.4708 6.4636C99.0565 6.05071 98.4946 5.81875 97.9086 5.81875ZM98.5398 8.33492L99.19 9.27848H98.5051L97.937 8.42298H97.4731V9.27848H96.8924V6.63965H98.0759C98.7071 6.63965 99.1206 6.95417 99.1206 7.51716C99.1292 7.69837 99.0776 7.87736 98.9737 8.02635C98.8699 8.17534 98.7196 8.28602 98.5462 8.34121M98.0538 7.15861H97.4794V7.93547H98.0696C98.3663 7.93547 98.5272 7.77821 98.5272 7.54862C98.5272 7.31902 98.3442 7.15861 98.0538 7.15861Z" fill="white"/>
</g>
<defs>
<clipPath id="clip0_410_7">
<rect width="104" height="36" fill="white"/>
</clipPath>
</defs>
</svg>
