<svg width="32" height="29" viewBox="0 0 32 29" fill="none" xmlns="http://www.w3.org/2000/svg">
<path fill-rule="evenodd" clip-rule="evenodd" d="M20.7953 19.1827C20.963 19.0146 21.0571 18.7869 21.0571 18.5496C21.0571 18.3122 20.963 18.0845 20.7953 17.9165L20.6875 17.8086C20.8365 17.5318 20.9572 17.2406 21.0475 16.9395H21.2C21.4374 16.9393 21.665 16.8449 21.8328 16.677C22.0007 16.5091 22.0951 16.2815 22.0953 16.0441V15.1404C22.0952 14.903 22.0008 14.6753 21.8329 14.5074C21.6651 14.3395 21.4374 14.245 21.2 14.2447H21.0475C20.9573 13.9437 20.8367 13.6527 20.6875 13.3761L20.7955 13.2681C20.9632 13.1 21.0575 12.8722 21.0575 12.6347C21.0575 12.3973 20.9632 12.1695 20.7955 12.0014L20.1563 11.3622C19.9882 11.1946 19.7605 11.1005 19.5232 11.1005C19.2858 11.1005 19.0582 11.1946 18.8901 11.3622L18.7822 11.4701C18.5055 11.321 18.2145 11.2002 17.9135 11.1096V10.9571C17.9131 10.7197 17.8186 10.4922 17.6507 10.3244C17.4828 10.1566 17.2552 10.0622 17.0179 10.0619H16.1133C15.876 10.0622 15.6484 10.1566 15.4805 10.3245C15.3127 10.4923 15.2183 10.7199 15.218 10.9573V11.1099C14.9169 11.2003 14.6257 11.3212 14.349 11.4705L14.2411 11.3625C14.0731 11.1947 13.8454 11.1005 13.608 11.1005C13.3706 11.1005 13.1429 11.1947 12.9749 11.3625L12.3362 12.002C12.1685 12.1701 12.0743 12.3979 12.0743 12.6353C12.0743 12.8728 12.1685 13.1006 12.3362 13.2687L12.4441 13.3765C12.2953 13.6534 12.1747 13.9445 12.0841 14.2455H11.9316C11.6942 14.2458 11.4666 14.3402 11.2988 14.5081C11.1309 14.6759 11.0365 14.9035 11.0363 15.1409V16.0447C11.0365 16.2821 11.131 16.5097 11.2988 16.6776C11.4667 16.8454 11.6943 16.9398 11.9317 16.9401H12.0841C12.1744 17.2411 12.295 17.5322 12.4441 17.8088L12.3361 17.9167C12.1683 18.0848 12.0741 18.3126 12.0741 18.5501C12.0741 18.7876 12.1683 19.0153 12.3361 19.1834L12.9753 19.8225C13.1434 19.9901 13.3711 20.0842 13.6085 20.0842C13.8458 20.0842 14.0735 19.9901 14.2416 19.8225L14.3495 19.7145C14.6262 19.8639 14.9175 19.9847 15.2187 20.0751V20.2276C15.2191 20.4647 15.3134 20.6921 15.4812 20.8597C15.6489 21.0274 15.8762 21.1217 16.1133 21.1221H17.0175C17.255 21.1219 17.4827 21.0275 17.6506 20.8597C17.8186 20.6918 17.9131 20.4641 17.9133 20.2267V20.0742C18.2144 19.984 18.5055 19.8632 18.782 19.7137L18.8899 19.8217C19.058 19.9894 19.2857 20.0836 19.5232 20.0836C19.7607 20.0836 19.9884 19.9894 20.1565 19.8217L20.7956 19.1827H20.7953ZM19.4922 19.2196L19.1518 18.8793C19.0832 18.8107 18.9933 18.7676 18.8969 18.757C18.8005 18.7465 18.7034 18.7693 18.6217 18.8215C18.2457 19.0613 17.8305 19.2333 17.395 19.3295C17.3004 19.3506 17.2159 19.4032 17.1553 19.4788C17.0947 19.5543 17.0616 19.6483 17.0617 19.7452V20.2268C17.0612 20.2383 17.0565 20.2491 17.0483 20.2572C17.0402 20.2653 17.0293 20.2701 17.0179 20.2705H16.1133C16.1019 20.27 16.0911 20.2652 16.083 20.2571C16.0749 20.249 16.0702 20.2382 16.0697 20.2267V19.7453C16.0697 19.6483 16.0366 19.5542 15.9759 19.4786C15.9151 19.4029 15.8304 19.3503 15.7357 19.3294C15.3002 19.2335 14.8852 19.0615 14.5096 18.8213C14.4278 18.7691 14.3307 18.7465 14.2344 18.757C14.138 18.7675 14.0481 18.8106 13.9795 18.8791L13.6395 19.2195C13.6311 19.2274 13.6201 19.2318 13.6086 19.2318C13.5971 19.2318 13.5861 19.2274 13.5777 19.2195L12.9385 18.5804C12.9308 18.572 12.9265 18.561 12.9265 18.5495C12.9265 18.5381 12.9308 18.5271 12.9386 18.5187L13.2789 18.1783C13.3475 18.1097 13.3906 18.0198 13.4012 17.9234C13.4117 17.827 13.389 17.7298 13.3369 17.6481C13.0969 17.2724 12.9249 16.8574 12.8288 16.4221C12.8079 16.3275 12.7553 16.2428 12.6797 16.1821C12.6041 16.1214 12.5101 16.0883 12.4131 16.0883H11.9315C11.92 16.0881 11.909 16.0834 11.9009 16.0752C11.8928 16.0671 11.8881 16.0562 11.8879 16.0447V15.1404C11.8883 15.1289 11.893 15.1181 11.9011 15.11C11.9092 15.1018 11.9201 15.0971 11.9315 15.0967H12.4131C12.51 15.0967 12.604 15.0637 12.6795 15.0031C12.7551 14.9425 12.8078 14.8579 12.8289 14.7633C12.9248 14.328 13.0967 13.913 13.3368 13.5373C13.389 13.4556 13.4117 13.3585 13.4012 13.2621C13.3907 13.1656 13.3476 13.0757 13.279 13.0071L12.939 12.6671C12.9311 12.6588 12.9267 12.6478 12.9267 12.6363C12.9267 12.6248 12.9311 12.6137 12.939 12.6054L13.5782 11.9662C13.5865 11.9582 13.5976 11.9538 13.6091 11.9538C13.6206 11.9538 13.6316 11.9582 13.6399 11.9662L13.9799 12.3065C14.0485 12.3751 14.1385 12.4182 14.2349 12.4288C14.3313 12.4393 14.4284 12.4165 14.5102 12.3643C14.8859 12.1243 15.301 11.9523 15.7364 11.8563C15.831 11.8353 15.9155 11.7827 15.9761 11.7071C16.0367 11.6315 16.0697 11.5375 16.0697 11.4407V10.959C16.0701 10.9476 16.0749 10.9367 16.0829 10.9286C16.091 10.9205 16.1018 10.9158 16.1133 10.9153H17.0178C17.0293 10.9157 17.0401 10.9205 17.0483 10.9286C17.0564 10.9367 17.0612 10.9475 17.0616 10.959V11.4405C17.0616 11.5374 17.0946 11.6314 17.1552 11.707C17.2158 11.7825 17.3004 11.8352 17.3949 11.8562C17.8304 11.9522 18.2454 12.1243 18.6211 12.3645C18.7029 12.4165 18.8 12.4392 18.8963 12.4286C18.9927 12.418 19.0826 12.3749 19.1512 12.3064L19.4915 11.9661C19.4999 11.9582 19.5109 11.9538 19.5224 11.9538C19.5339 11.9538 19.5449 11.9582 19.5533 11.9661L20.1925 12.6052C20.2003 12.6136 20.2046 12.6246 20.2046 12.6361C20.2046 12.6476 20.2003 12.6586 20.1925 12.667L19.8521 13.007C19.7835 13.0756 19.7404 13.1655 19.7299 13.262C19.7194 13.3584 19.7421 13.4555 19.7943 13.5373C20.0343 13.913 20.2063 14.3281 20.3023 14.7635C20.3233 14.858 20.376 14.9426 20.4516 15.0032C20.5271 15.0638 20.6211 15.0968 20.718 15.0968H21.2C21.2114 15.0972 21.2223 15.1019 21.2304 15.11C21.2385 15.1181 21.2433 15.129 21.2437 15.1404V16.0447C21.2434 16.0562 21.2387 16.0672 21.2306 16.0753C21.2224 16.0834 21.2115 16.0881 21.2 16.0884H20.7184C20.6215 16.0884 20.5275 16.1214 20.4519 16.182C20.3764 16.2426 20.3237 16.3272 20.3027 16.4217C20.2066 16.8571 20.0348 17.2722 19.7949 17.6479C19.7426 17.7296 19.7198 17.8267 19.7303 17.9231C19.7408 18.0195 19.7839 18.1095 19.8525 18.178L20.1933 18.518C20.2011 18.5263 20.2055 18.5374 20.2055 18.5488C20.2055 18.5603 20.2011 18.5713 20.1933 18.5797L19.5541 19.2189C19.5458 19.2268 19.5349 19.2313 19.5234 19.2314C19.512 19.2315 19.5009 19.2272 19.4925 19.2194L19.4922 19.2196ZM16.5655 12.7637C17.125 12.7637 17.6718 12.9296 18.137 13.2404C18.6021 13.5512 18.9647 13.9929 19.1788 14.5098C19.3928 15.0266 19.4489 15.5954 19.3397 16.144C19.2306 16.6927 18.9612 17.1967 18.5656 17.5923C18.17 17.9879 17.666 18.2573 17.1173 18.3664C16.5686 18.4755 15.9999 18.4195 15.4831 18.2054C14.9662 17.9913 14.5245 17.6288 14.2137 17.1636C13.9029 16.6984 13.737 16.1516 13.737 15.5921C13.7379 14.8422 14.0362 14.1233 14.5664 13.5931C15.0967 13.0628 15.8156 12.7645 16.5655 12.7637ZM16.5655 17.5692C16.1745 17.5692 15.7923 17.4533 15.4672 17.236C15.1422 17.0188 14.8888 16.7101 14.7391 16.3488C14.5895 15.9876 14.5504 15.5901 14.6267 15.2067C14.7029 14.8232 14.8912 14.4709 15.1677 14.1945C15.4441 13.918 15.7964 13.7297 16.1799 13.6535C16.5633 13.5772 16.9608 13.6163 17.322 13.7659C17.6833 13.9156 17.992 14.169 18.2092 14.494C18.4265 14.8191 18.5424 15.2013 18.5424 15.5923C18.5417 16.1164 18.3333 16.6188 17.9627 16.9894C17.5921 17.3599 17.0897 17.5684 16.5657 17.5691L16.5655 17.5692ZM12.1383 21.9971V24.1313C12.138 24.4028 12.03 24.6631 11.838 24.8551C11.646 25.047 11.3858 25.155 11.1143 25.1553H10.9359C10.8799 25.4685 10.7155 25.752 10.4715 25.9562C10.2275 26.1604 9.91944 26.2723 9.60127 26.2723C9.28309 26.2723 8.97505 26.1604 8.73105 25.9562C8.48705 25.752 8.32265 25.4685 8.2666 25.1553H3.98887C3.93274 25.4684 3.7683 25.7518 3.52432 25.956C3.28033 26.1601 2.97233 26.272 2.6542 26.272C2.33607 26.272 2.02807 26.1601 1.78408 25.956C1.5401 25.7518 1.37566 25.4684 1.31953 25.1553H0.4262C0.370252 25.1553 0.314844 25.1443 0.263141 25.123C0.211438 25.1016 0.164455 25.0702 0.124875 25.0307C0.0852951 24.9911 0.0538947 24.9442 0.0324682 24.8925C0.0110416 24.8408 8.74117e-06 24.7854 0 24.7295V22.3495C1.76761e-05 22.2365 0.0448913 22.1282 0.124753 22.0484C0.204615 21.9685 0.312925 21.9236 0.425867 21.9236H0.508733V19.0895C0.508733 18.7481 0.822667 18.5002 1.2554 18.5002H7.32873C7.34007 18.4998 7.35187 18.4995 7.36333 18.4995C7.5723 18.4995 7.77332 18.5795 7.92513 18.7231H9.50313C9.77623 18.7232 10.0447 18.7934 10.2828 18.9272C10.5209 19.0609 10.7206 19.2537 10.8627 19.4869L11.8933 21.1387C12.0539 21.3916 12.1391 21.685 12.1391 21.9845V21.9973L12.1383 21.9971ZM1.36047 19.3519V21.9237H7.22273V19.3519H1.36047ZM0.851667 22.7755V24.3033H1.445C1.55811 24.0796 1.73102 23.8917 1.94451 23.7605C2.158 23.6292 2.40371 23.5597 2.65433 23.5597C2.90495 23.5597 3.15066 23.6292 3.36416 23.7605C3.57765 23.8917 3.75056 24.0796 3.86367 24.3033H7.22267V22.7755H0.851667ZM2.6542 25.4205C2.78797 25.4203 2.91622 25.3671 3.0108 25.2726C3.10538 25.178 3.15856 25.0497 3.15867 24.9159C3.15868 24.8161 3.1291 24.7186 3.07366 24.6356C3.01822 24.5526 2.93942 24.4879 2.84722 24.4497C2.75501 24.4115 2.65355 24.4015 2.55567 24.421C2.45778 24.4404 2.36786 24.4885 2.29728 24.559C2.22671 24.6296 2.17864 24.7195 2.15917 24.8174C2.13969 24.9153 2.14968 25.0167 2.18787 25.109C2.22606 25.2012 2.29074 25.28 2.37372 25.3354C2.4567 25.3909 2.55426 25.4205 2.65407 25.4205H2.6542ZM9.60087 25.4205C9.73458 25.4202 9.86274 25.367 9.95725 25.2724C10.0518 25.1778 10.1049 25.0496 10.1051 24.9159C10.1051 24.8161 10.0755 24.7186 10.0201 24.6356C9.96461 24.5526 9.88581 24.4879 9.7936 24.4497C9.70139 24.4115 9.59993 24.4015 9.50204 24.421C9.40415 24.4404 9.31423 24.4885 9.24366 24.5591C9.17309 24.6296 9.12503 24.7196 9.10556 24.8174C9.08609 24.9153 9.09609 25.0168 9.13429 25.109C9.17249 25.2012 9.23718 25.28 9.32017 25.3355C9.40316 25.3909 9.50073 25.4205 9.60053 25.4205H9.60087ZM11.2862 24.1309C11.2862 24.1766 11.268 24.2204 11.2357 24.2527C11.2035 24.285 11.1597 24.3032 11.114 24.3032H10.8102C10.6971 24.0796 10.5242 23.8917 10.3107 23.7604C10.0972 23.6291 9.85146 23.5596 9.60083 23.5596C9.35021 23.5596 9.1045 23.6291 8.891 23.7604C8.6775 23.8917 8.50459 24.0796 8.39147 24.3032H8.07387V19.5748H9.50387C9.63219 19.5748 9.75829 19.6083 9.86971 19.672C9.98113 19.7356 10.074 19.8273 10.1392 19.9378L11.1697 21.5898C11.246 21.7068 11.2866 21.8434 11.2866 21.9831V24.1309H11.2862ZM31.7867 4.36273L27.6733 1.98787C27.6086 1.95053 27.5352 1.93087 27.4604 1.93087C27.3857 1.93087 27.3123 1.95053 27.2475 1.98787L23.1342 4.36273C23.0695 4.40012 23.0157 4.45389 22.9783 4.51864C22.9409 4.58339 22.9213 4.65684 22.9213 4.7316V11.8562C22.9213 11.9691 22.9661 12.0774 23.046 12.1573C23.1258 12.2372 23.2341 12.282 23.3471 12.2821H31.5741C31.6871 12.2821 31.7954 12.2372 31.8752 12.1574C31.9551 12.0775 32 11.9692 32 11.8563V4.7314C32 4.65664 31.9803 4.58319 31.9429 4.51845C31.9056 4.4537 31.8518 4.39993 31.7871 4.36253L31.7867 4.36273ZM29.4933 11.4303H25.4279V7.14547H29.4933V11.4303ZM31.1483 11.4303H30.3452V6.7196C30.3452 6.60668 30.3003 6.49838 30.2205 6.41853C30.1406 6.33868 30.0323 6.29382 29.9194 6.2938H25.0023C24.8893 6.2938 24.781 6.33866 24.7012 6.41851C24.6213 6.49836 24.5764 6.60667 24.5764 6.7196V11.4303H23.7733V4.977L27.4607 2.84853L31.1483 4.9774V11.4303H31.1483ZM25.6723 4.78573H26.5298V5.6374H25.6781L25.6723 4.78573ZM27.0323 4.78573H27.8897V5.6374H27.0376L27.0321 4.78573H27.0323ZM28.3976 5.6374L28.3919 4.78567H29.2493V5.6374H28.3976ZM4.28073 9.62713H12.2188C12.4428 9.62697 12.6575 9.53796 12.8159 9.37962C12.9744 9.22129 13.0635 9.00657 13.0637 8.7826V0.844733C13.0635 0.62079 12.9745 0.406082 12.8161 0.247717C12.6578 0.0893526 12.4431 0.000264717 12.2191 0H4.28073C4.05678 0.000264684 3.84208 0.0893504 3.68373 0.247713C3.52538 0.406076 3.43631 0.620784 3.43607 0.844733V8.78273C3.43631 9.00667 3.52539 9.22137 3.68374 9.37971C3.8421 9.53805 4.0568 9.6271 4.28073 9.62733V9.62713ZM8.8572 3.0438L8.57793 2.7064C8.53799 2.65807 8.48786 2.61915 8.43113 2.59244C8.3744 2.56573 8.31247 2.55188 8.24977 2.55188C8.18706 2.55188 8.12513 2.56573 8.0684 2.59244C8.01167 2.61915 7.96155 2.65807 7.9216 2.7064L7.64233 3.04407V0.8514H8.85727L8.8572 3.0438ZM4.28773 0.8514H6.79087V4.22687C6.79147 4.31382 6.81863 4.39852 6.86871 4.46961C6.91879 4.5407 6.9894 4.5948 7.07107 4.62465C7.15275 4.65449 7.2416 4.65867 7.32571 4.63662C7.40983 4.61457 7.4852 4.56734 7.54173 4.50127C7.77153 4.214 8.0144 3.93007 8.24927 3.64607L8.95373 4.49807C9.00947 4.56536 9.08453 4.61389 9.16876 4.63711C9.25299 4.66032 9.34232 4.65709 9.42466 4.62785C9.50699 4.59862 9.57836 4.54479 9.62908 4.47365C9.67981 4.40251 9.70745 4.3175 9.70827 4.23013V0.851467H12.2108V8.77547H4.28773V0.8514ZM7.54247 7.6194C7.54247 7.73234 7.49761 7.84065 7.41776 7.92051C7.33791 8.00037 7.2296 8.04525 7.11667 8.04527H5.4488C5.33677 8.04387 5.2298 7.99838 5.15107 7.91866C5.07234 7.83894 5.0282 7.73141 5.0282 7.61937C5.0282 7.50733 5.07234 7.3998 5.15107 7.32008C5.2298 7.24036 5.33677 7.19487 5.4488 7.19347H7.11667C7.2296 7.19349 7.33791 7.23836 7.41776 7.31822C7.49761 7.39809 7.54247 7.50647 7.54247 7.6194ZM26.0341 23.2957H22.4721C21.0721 23.2957 19.9336 24.5479 19.9336 26.0872V28.5305C19.9336 28.6434 19.9785 28.7517 20.0584 28.8316C20.1383 28.9115 20.2466 28.9563 20.3595 28.9563H28.1472C28.2601 28.9563 28.3685 28.9114 28.4483 28.8316C28.5282 28.7517 28.5731 28.6434 28.5731 28.5305V26.0872C28.5731 24.548 27.4341 23.2957 26.0344 23.2957H26.0341ZM22.4721 24.1476H26.0344C26.9645 24.1476 27.7211 25.0178 27.7211 26.0876V28.1047H26.9133V27.3218C26.9133 27.2659 26.9023 27.2105 26.8809 27.1588C26.8595 27.1072 26.8281 27.0602 26.7886 27.0207C26.7491 26.9811 26.7021 26.9498 26.6504 26.9284C26.5988 26.9069 26.5434 26.8959 26.4875 26.8959C26.4315 26.8959 26.3762 26.9069 26.3245 26.9284C26.2728 26.9498 26.2259 26.9811 26.1863 27.0207C26.1468 27.0602 26.1154 27.1072 26.094 27.1588C26.0726 27.2105 26.0616 27.2659 26.0616 27.3218V28.1047H22.4443V27.3218C22.445 27.2654 22.4345 27.2095 22.4134 27.1572C22.3923 27.1049 22.361 27.0573 22.3214 27.0172C22.2818 26.9771 22.2346 26.9452 22.1826 26.9235C22.1306 26.9017 22.0748 26.8905 22.0184 26.8905C21.962 26.8905 21.9062 26.9017 21.8541 26.9235C21.8021 26.9452 21.7549 26.9771 21.7153 27.0172C21.6757 27.0573 21.6444 27.1049 21.6233 27.1572C21.6023 27.2095 21.5918 27.2654 21.5925 27.3218V28.1047H20.7851V26.0872C20.7851 25.0176 21.542 24.1476 22.4721 24.1476ZM24.2533 23.0591C24.6698 23.0591 25.077 22.9357 25.4233 22.7043C25.7696 22.4729 26.0396 22.144 26.1989 21.7592C26.3583 21.3744 26.4001 20.951 26.3188 20.5425C26.2376 20.134 26.037 19.7587 25.7425 19.4642C25.448 19.1697 25.0728 18.9691 24.6643 18.8879C24.2558 18.8066 23.8323 18.8483 23.4475 19.0077C23.0627 19.1671 22.7338 19.437 22.5024 19.7833C22.271 20.1296 22.1475 20.5368 22.1475 20.9533C22.1482 21.5116 22.3702 22.0468 22.765 22.4416C23.1598 22.8363 23.695 23.0584 24.2533 23.0589V23.0591ZM24.2533 19.6991C24.5014 19.6991 24.7439 19.7727 24.9501 19.9105C25.1564 20.0483 25.3171 20.2441 25.412 20.4733C25.507 20.7024 25.5318 20.9546 25.4834 21.1979C25.4351 21.4412 25.3156 21.6646 25.1402 21.8401C24.9648 22.0155 24.7414 22.1349 24.4981 22.1833C24.2548 22.2317 24.0026 22.2069 23.7735 22.1119C23.5443 22.017 23.3484 21.8563 23.2106 21.65C23.0728 21.4438 22.9993 21.2013 22.9993 20.9533C22.9993 20.6207 23.1315 20.3018 23.3667 20.0666C23.6018 19.8315 23.9208 19.6993 24.2533 19.6993V19.6991ZM14.5547 3.44673C15.2197 3.33851 15.8923 3.28378 16.5661 3.28307H16.5771C17.7379 3.28345 18.8928 3.44765 20.0077 3.7708L19.7327 3.18807C19.7049 3.13075 19.6905 3.06788 19.6906 3.0042C19.6906 2.90716 19.7237 2.81303 19.7845 2.7374C19.8453 2.66176 19.9301 2.60915 20.0249 2.58827C20.1196 2.5674 20.2187 2.57951 20.3056 2.62261C20.3926 2.66571 20.4622 2.73721 20.5029 2.82527L21.2036 4.31093C21.2276 4.36144 21.2414 4.41619 21.2442 4.47204C21.247 4.52789 21.2388 4.58374 21.2199 4.6364C21.2011 4.68905 21.172 4.73746 21.1344 4.77885C21.0968 4.82025 21.0514 4.8538 21.0008 4.8776L19.5151 5.57807C19.4645 5.60236 19.4096 5.61641 19.3535 5.61939C19.2974 5.62237 19.2413 5.61423 19.1884 5.59543C19.1354 5.57664 19.0868 5.54756 19.0451 5.50988C19.0035 5.47219 18.9697 5.42665 18.9457 5.37586C18.9218 5.32507 18.9081 5.27004 18.9055 5.21394C18.9029 5.15784 18.9114 5.10178 18.9305 5.04898C18.9497 4.99619 18.979 4.9477 19.017 4.9063C19.055 4.86491 19.1007 4.83143 19.1517 4.8078L19.6753 4.56113C18.6676 4.27816 17.6258 4.1346 16.5791 4.13447H16.5651C15.9376 4.13507 15.3111 4.18619 14.6918 4.28733C14.6691 4.29066 14.6461 4.29238 14.6231 4.29247C14.1057 4.29247 14.0456 3.5304 14.5544 3.44693L14.5547 3.44673ZM18.8992 27.2546C18.8827 27.1549 18.8314 27.0644 18.7544 26.999C18.6774 26.9336 18.5797 26.8977 18.4787 26.8976C18.4559 26.8975 18.4332 26.8996 18.4108 26.9037C17.8008 27.0015 17.184 27.0507 16.5662 27.0508H16.5529C15.5061 27.0507 14.4643 26.9071 13.4565 26.6241L13.9802 26.3775C14.0811 26.3285 14.1585 26.2417 14.1958 26.136C14.2331 26.0303 14.2272 25.9141 14.1794 25.8127C14.1316 25.7113 14.0457 25.6328 13.9404 25.5943C13.8351 25.5558 13.7189 25.5604 13.6169 25.607L12.1313 26.3073C12.0292 26.3555 11.9505 26.4423 11.9123 26.5485C11.8741 26.6548 11.8797 26.7719 11.9278 26.874L12.6285 28.3598C12.6692 28.4479 12.7388 28.5194 12.8258 28.5626C12.9127 28.6057 13.0118 28.6178 13.1066 28.5969C13.2014 28.5761 13.2862 28.5234 13.347 28.4478C13.4078 28.3721 13.4409 28.2779 13.4409 28.1809C13.4407 28.1169 13.4266 28.0537 13.3995 27.9957L13.1246 27.4129C14.2391 27.7365 15.3936 27.9011 16.5541 27.902H16.5659C17.2293 27.9012 17.8917 27.8481 18.5469 27.7432C18.6583 27.725 18.758 27.6634 18.824 27.5719C18.8901 27.4803 18.9171 27.3663 18.8992 27.2549V27.2546ZM5.5348 12.4827C5.25183 13.4904 5.10827 14.5322 5.10813 15.5789V15.5928C5.10813 15.9294 5.12293 16.2694 5.15213 16.6035C5.1532 16.6154 5.1538 16.6278 5.1538 16.6401C5.1538 17.1801 4.35087 17.2149 4.3038 16.6773C4.27239 16.3165 4.25662 15.9546 4.25653 15.5925V15.5809C4.25748 14.4204 4.42215 13.2659 4.74567 12.1514L4.1628 12.4264C4.10632 12.4517 4.04516 12.4649 3.98327 12.4651C3.88679 12.4651 3.79319 12.4323 3.71778 12.3721C3.64238 12.312 3.58963 12.228 3.56818 12.1339C3.54672 12.0399 3.55784 11.9413 3.5997 11.8544C3.64156 11.7675 3.71169 11.6973 3.7986 11.6555L5.28433 10.9548C5.3865 10.9066 5.5036 10.901 5.60994 10.939C5.71629 10.977 5.80322 11.0557 5.85167 11.1577L6.55233 12.6434C6.5991 12.7453 6.60377 12.8616 6.56534 12.967C6.5269 13.0723 6.44846 13.1582 6.34704 13.2061C6.24562 13.254 6.12942 13.2599 6.02365 13.2226C5.91789 13.1853 5.8311 13.1078 5.78213 13.0069L5.5348 12.4829V12.4827ZM29.5363 18.9627C29.5602 19.0133 29.5739 19.0681 29.5766 19.1241C29.5794 19.18 29.571 19.2358 29.5522 19.2885C29.5333 19.3412 29.5042 19.3897 29.4665 19.4311C29.4289 19.4725 29.3835 19.5061 29.3329 19.53L27.8471 20.2307C27.745 20.2786 27.6281 20.2841 27.5219 20.2461C27.4157 20.208 27.3289 20.1294 27.2805 20.0275L26.58 18.5415C26.5334 18.4396 26.5288 18.3234 26.5673 18.2181C26.6058 18.1128 26.6843 18.027 26.7856 17.9792C26.887 17.9313 27.0032 17.9254 27.1089 17.9627C27.2146 17.9999 27.3014 18.0773 27.3504 18.1781L27.5971 18.7019C27.88 17.6941 28.0235 16.6523 28.0237 15.6056V15.5912C28.0239 15.0354 27.9841 14.4804 27.9048 13.9303C27.9011 13.9089 27.8992 13.8872 27.8993 13.8655C27.8993 13.3394 28.6767 13.2895 28.747 13.8081C28.832 14.3988 28.8749 14.9947 28.8753 15.5914V15.6039C28.8749 16.7645 28.7108 17.9193 28.3877 19.034L28.9704 18.759C29.0268 18.7323 29.0885 18.7184 29.1509 18.7185C29.2317 18.7185 29.3109 18.7415 29.3791 18.7848C29.4473 18.828 29.5018 18.8898 29.5363 18.9629V18.9627Z" fill="white"/>
</svg>
