<svg width="68" height="68" viewBox="0 0 68 68" fill="none" xmlns="http://www.w3.org/2000/svg">
<path d="M34 64.8125C32.5125 64.8125 31.118 64.2281 30.0688 63.1789L25.3141 58.4242C24.6633 57.7734 23.8 57.4148 22.8836 57.4148H16.15C13.082 57.4148 10.5852 54.918 10.5852 51.85V45.1164C10.5852 44.2 10.2266 43.3367 9.57578 42.6859L4.8211 37.9313C2.65625 35.7664 2.65625 32.2336 4.8211 30.0687L9.57578 25.3141C10.2266 24.6633 10.5852 23.8 10.5852 22.8836V16.15C10.5852 13.082 13.082 10.5852 16.15 10.5852H22.8836C23.8 10.5852 24.6633 10.2266 25.3141 9.57578L30.0688 4.82109C31.118 3.77187 32.5125 3.1875 34 3.1875C35.4875 3.1875 36.882 3.77187 37.9313 4.82109L42.6859 9.57578C43.3367 10.2266 44.2 10.5852 45.1164 10.5852H51.85C54.918 10.5852 57.4148 13.082 57.4148 16.15V22.8836C57.4148 23.8 57.7734 24.6633 58.4242 25.3141L63.1789 30.0687C65.3438 32.2336 65.3438 35.7664 63.1789 37.9313L58.4242 42.6859C57.7734 43.3367 57.4148 44.2 57.4148 45.1164V51.85C57.4148 54.918 54.918 57.4148 51.85 57.4148H45.1164C44.2 57.4148 43.3367 57.7734 42.6859 58.4242L37.9313 63.1789C36.882 64.2281 35.4875 64.8125 34 64.8125ZM16.15 12.7102C14.2508 12.7102 12.7102 14.2508 12.7102 16.15V22.8836C12.7102 24.3711 12.1258 25.7656 11.0766 26.8148L6.32188 31.5695C4.98047 32.9109 4.98047 35.0891 6.32188 36.4305L11.0766 41.1852C12.1258 42.2344 12.7102 43.6289 12.7102 45.1164V51.85C12.7102 53.7492 14.2508 55.2898 16.15 55.2898H22.8836C24.3711 55.2898 25.7656 55.8742 26.8148 56.9234L31.5695 61.6781C32.2203 62.3289 33.0836 62.6875 34 62.6875C34.9164 62.6875 35.7797 62.3289 36.4305 61.6781L41.1852 56.9234C42.2344 55.8742 43.6289 55.2898 45.1164 55.2898H51.85C53.7492 55.2898 55.2898 53.7492 55.2898 51.85V45.1164C55.2898 43.6289 55.8742 42.2344 56.9234 41.1852L61.6781 36.4305C63.0195 35.0891 63.0195 32.9109 61.6781 31.5695L56.9234 26.8148C55.8742 25.7656 55.2898 24.3711 55.2898 22.8836V16.15C55.2898 14.2508 53.7492 12.7102 51.85 12.7102H45.1164C43.6289 12.7102 42.2344 12.1258 41.1852 11.0766L36.4305 6.32187C35.7797 5.67109 34.9164 5.3125 34 5.3125C33.0836 5.3125 32.2203 5.67109 31.5695 6.32187L26.8148 11.0766C25.7656 12.1258 24.3711 12.7102 22.8836 12.7102H16.15Z" fill="url(#paint0_linear_2427_349)"/>
<path d="M34 53.404C23.2953 53.404 14.5961 44.6915 14.5961 34.0001C14.5961 23.3087 23.2953 14.5962 34 14.5962C44.7047 14.5962 53.4039 23.2954 53.4039 34.0001C53.4039 44.7048 44.7047 53.404 34 53.404ZM34 16.7212C24.4641 16.7212 16.7211 24.4774 16.7211 34.0001C16.7211 43.5228 24.4641 51.279 34 51.279C43.5359 51.279 51.2789 43.5228 51.2789 34.0001C51.2789 24.4774 43.5359 16.7212 34 16.7212Z" fill="url(#paint1_linear_2427_349)"/>
<path d="M41.4375 44.625H26.5625C26.0844 44.625 25.6727 44.3063 25.5399 43.8547L21.2899 28.8868C21.1703 28.4618 21.3297 27.9969 21.6883 27.7313C22.0469 27.4657 22.5383 27.4524 22.8969 27.7047L28.3555 31.3438L33.0836 23.7735C33.2828 23.468 33.6149 23.2688 33.9867 23.2688C34.3586 23.2688 34.6906 23.4547 34.8899 23.7735L39.618 31.3438L45.0766 27.7047C45.4484 27.4524 45.9266 27.4657 46.2852 27.7313C46.6438 27.9969 46.8031 28.4485 46.6836 28.8868L42.4336 43.8547C42.3274 44.3063 41.9156 44.625 41.4375 44.625ZM27.3594 42.5H40.6406L43.8813 31.0782L39.9102 33.7344C39.6711 33.8938 39.3789 33.9469 39.1 33.8938C38.8211 33.8274 38.5688 33.668 38.4227 33.4157L34 26.35L29.5906 33.4024C29.4445 33.6415 29.1922 33.8141 28.9133 33.8805C28.6344 33.9469 28.3422 33.8805 28.1031 33.7211L24.132 31.0649L27.3594 42.5Z" fill="url(#paint2_linear_2427_349)"/>
<defs>
<linearGradient id="paint0_linear_2427_349" x1="3.19746" y1="3.1875" x2="70.2437" y2="9.82141" gradientUnits="userSpaceOnUse">
<stop stop-color="#7E4BA4"/>
<stop offset="1" stop-color="#301C3E"/>
</linearGradient>
<linearGradient id="paint1_linear_2427_349" x1="14.5961" y1="14.5962" x2="56.8313" y2="18.7765" gradientUnits="userSpaceOnUse">
<stop stop-color="#7E4BA4"/>
<stop offset="1" stop-color="#301C3E"/>
</linearGradient>
<linearGradient id="paint2_linear_2427_349" x1="21.2506" y1="23.2688" x2="48.8593" y2="26.5281" gradientUnits="userSpaceOnUse">
<stop stop-color="#7E4BA4"/>
<stop offset="1" stop-color="#301C3E"/>
</linearGradient>
</defs>
</svg>
