<svg width="68" height="68" viewBox="0 0 68 68" fill="none" xmlns="http://www.w3.org/2000/svg">
<g clip-path="url(#clip0_2427_241)">
<path d="M67.4007 32.7449L64.0716 22.7106C63.2074 20.1025 60.8132 18.4167 57.9742 18.4167H49.0606L49.3864 15.7604C49.461 15.2044 49.4166 14.6389 49.2561 14.1014C49.0957 13.5638 48.8228 13.0665 48.4557 12.6424C48.0831 12.2268 47.6265 11.8951 47.116 11.6694C46.6056 11.4438 46.0529 11.3292 45.4948 11.3334H11.1591C8.89241 11.3334 6.83541 13.1651 6.57333 15.4034L6.392 16.8201C6.36835 17.0047 6.38129 17.1921 6.43008 17.3716C6.47887 17.5512 6.56255 17.7194 6.67635 17.8666C6.79014 18.0138 6.93182 18.1371 7.09329 18.2296C7.25476 18.322 7.43286 18.3818 7.61741 18.4054C7.80228 18.4312 7.99043 18.4197 8.17082 18.3718C8.35122 18.3239 8.52022 18.2404 8.66789 18.1262C8.81557 18.0121 8.93894 17.8696 9.03078 17.7071C9.12261 17.5446 9.18105 17.3653 9.20266 17.1799L9.38541 15.7477C9.48316 14.9048 10.3119 14.1667 11.1591 14.1667H45.4948C45.8348 14.1667 46.1309 14.2914 46.3307 14.5166C46.4335 14.6394 46.5087 14.783 46.551 14.9375C46.5932 15.092 46.6017 15.2539 46.5757 15.4119L43.2579 42.5014H6.06758C6.07185 42.1586 5.95017 41.8262 5.7256 41.5671C5.50102 41.3081 5.18919 41.1405 4.84925 41.0961C4.66462 41.0727 4.47719 41.0861 4.29774 41.1353C4.11828 41.1846 3.95034 41.2689 3.80355 41.3833C3.65676 41.4977 3.53403 41.64 3.44241 41.802C3.35079 41.964 3.29208 42.1424 3.26966 42.3272L2.74125 46.5871C2.67047 47.145 2.71871 47.7116 2.8828 48.2496C3.04689 48.7875 3.32311 49.2846 3.69325 49.708C4.06237 50.1215 4.51594 50.4509 5.02331 50.6741C5.53068 50.8972 6.08003 51.0088 6.63425 51.0014H9.37691C9.39816 52.4082 9.86283 53.72 10.778 54.7514C11.8702 55.9867 13.4257 56.6681 15.1541 56.6681C18.3954 56.6681 21.3421 54.1677 22.0051 51.0014H46.5517C46.5729 52.4082 47.0376 53.7186 47.9499 54.7499C49.0436 55.9867 50.5991 56.6681 52.3288 56.6681C55.5687 56.6681 58.5154 54.1677 59.1798 51.0014H62.2299C64.5221 51.0014 66.5366 49.2094 66.8157 46.9243L67.9037 38.0517C68.1341 36.2679 67.9628 34.4552 67.4022 32.7463L67.4007 32.7449ZM64.362 32.5834H55.8252L56.4981 27.0895C56.508 27.0173 56.6242 26.9167 56.6823 26.9167H62.4821L64.362 32.5834ZM48.7149 21.25H57.9757C59.5977 21.25 60.9011 22.151 61.3827 23.6031L61.5428 24.0834H56.6823C55.1848 24.0834 53.8702 25.2521 53.6874 26.7439L52.9933 32.4105C52.9444 32.7884 52.9764 33.1724 53.087 33.537C53.1976 33.9016 53.3844 34.2386 53.635 34.5256C54.1365 35.0909 54.8661 35.4153 55.641 35.4153H65.0958C65.1858 36.1758 65.1843 36.9444 65.0916 37.7046L64.5037 42.4986H46.1111L48.7135 21.2486L48.7149 21.25ZM47.1566 48.1667H45.4169L45.764 45.3334H49.4672C48.4709 46.0684 47.6762 47.0429 47.1566 48.1667ZM42.5637 48.1667H21.9668C21.7504 47.3039 21.3323 46.5047 20.7471 45.8349C20.5799 45.6464 20.3844 45.4963 20.1974 45.3334H42.9122L42.5637 48.1667ZM9.96908 48.1667H6.63283C6.4788 48.1724 6.32536 48.1447 6.18304 48.0856C6.04072 48.0264 5.91289 47.9371 5.80833 47.8239C5.70411 47.7008 5.62733 47.5568 5.58312 47.4017C5.5389 47.2466 5.52826 47.0838 5.55191 46.9243L5.74883 45.3334H12.2442C11.2546 46.0665 10.4705 47.0423 9.96766 48.1667H9.96908ZM19.3134 50.1189C19.0669 52.1334 17.1615 53.8334 15.1527 53.8334C14.246 53.8334 13.447 53.4919 12.8973 52.8714C12.3392 52.2424 12.0955 51.3868 12.2074 50.4645C12.4553 48.45 14.3607 46.75 16.3696 46.75C17.2762 46.75 18.0767 47.0914 18.6249 47.7119C19.1831 48.3409 19.4267 49.1966 19.3134 50.1189ZM56.4882 50.1189C56.2402 52.1334 54.3348 53.8334 52.3274 53.8334C51.4207 53.8334 50.6203 53.4919 50.0707 52.8714C49.5125 52.2424 49.2688 51.3868 49.3822 50.4645C49.6301 48.45 51.5355 46.75 53.5429 46.75C54.4496 46.75 55.25 47.0914 55.7997 47.7119C56.3578 48.3409 56.6015 49.1966 56.4882 50.1189ZM62.2299 48.1667H59.1416C58.9251 47.3039 58.5071 46.5047 57.9218 45.8349C57.7547 45.6464 57.5592 45.4963 57.3722 45.3334H64.158L64.005 46.5772C63.9016 47.4244 63.0714 48.1667 62.2299 48.1667Z" fill="url(#paint0_linear_2427_241)"/>
<path d="M12.7925 36.8333C12.7925 36.4576 12.6432 36.0973 12.3776 35.8316C12.1119 35.5659 11.7516 35.4167 11.3758 35.4167H1.41667C1.04094 35.4167 0.680609 35.5659 0.414932 35.8316C0.149256 36.0973 0 36.4576 0 36.8333C0 37.2091 0.149256 37.5694 0.414932 37.8351C0.680609 38.1007 1.04094 38.25 1.41667 38.25H11.3758C11.7516 38.25 12.1119 38.1007 12.3776 37.8351C12.6432 37.5694 12.7925 37.2091 12.7925 36.8333ZM5.78992 28.3333C5.41419 28.3333 5.05386 28.4826 4.78818 28.7483C4.52251 29.0139 4.37325 29.3743 4.37325 29.75C4.37325 30.1257 4.52251 30.4861 4.78818 30.7517C5.05386 31.0174 5.41419 31.1667 5.78992 31.1667H12.2513C12.6271 31.1667 12.9874 31.0174 13.2531 30.7517C13.5187 30.4861 13.668 30.1257 13.668 29.75C13.668 29.3743 13.5187 29.0139 13.2531 28.7483C12.9874 28.4826 12.6271 28.3333 12.2513 28.3333H5.78992ZM3.08125 24.0833H14.5279C14.9036 24.0833 15.264 23.9341 15.5297 23.6684C15.7953 23.4027 15.9446 23.0424 15.9446 22.6667C15.9446 22.2909 15.7953 21.9306 15.5297 21.6649C15.264 21.3993 14.9036 21.25 14.5279 21.25H3.08125C2.70553 21.25 2.34519 21.3993 2.07952 21.6649C1.81384 21.9306 1.66458 22.2909 1.66458 22.6667C1.66458 23.0424 1.81384 23.4027 2.07952 23.6684C2.34519 23.9341 2.70553 24.0833 3.08125 24.0833Z" fill="url(#paint1_linear_2427_241)"/>
</g>
<defs>
<linearGradient id="paint0_linear_2427_241" x1="2.70959" y1="11.3333" x2="73.0365" y2="21.3585" gradientUnits="userSpaceOnUse">
<stop stop-color="#7E4BA4"/>
<stop offset="1" stop-color="#301C3E"/>
</linearGradient>
<linearGradient id="paint1_linear_2427_241" x1="0" y1="21.25" x2="17.373" y2="22.8628" gradientUnits="userSpaceOnUse">
<stop stop-color="#7E4BA4"/>
<stop offset="1" stop-color="#301C3E"/>
</linearGradient>
<clipPath id="clip0_2427_241">
<rect width="68" height="68" fill="white"/>
</clipPath>
</defs>
</svg>
