<svg width="68" height="68" viewBox="0 0 68 68" fill="none" xmlns="http://www.w3.org/2000/svg">
<g clip-path="url(#clip0_2427_389)">
<path d="M66.9696 65.891H63.1989C63.5705 65.2665 63.7872 64.543 63.7872 63.7696V42.35C63.7872 40.0175 61.8497 38.1196 59.4682 38.1196H48.8143C49.1879 37.4952 49.409 36.7732 49.409 35.9983V14.5785C49.409 12.2461 47.4715 10.3482 45.09 10.3482H45.0558C44.5349 4.55388 39.7781 0 34 0C28.2222 0 23.4653 4.55374 22.9447 10.3482H22.9105C20.529 10.3482 18.5915 12.2461 18.5915 14.5785V35.9983C18.5915 36.7734 18.813 37.4952 19.1867 38.1196H8.53218C6.15065 38.1196 4.21316 40.0175 4.21316 42.35V63.7696C4.21316 64.543 4.4298 65.2665 4.80149 65.891H1.03033C0.46121 65.891 0 66.363 0 66.9455C0 67.528 0.46121 68 1.03033 68H66.9697C67.105 68 67.239 67.9727 67.364 67.9197C67.489 67.8667 67.6026 67.789 67.6983 67.6911C67.7939 67.5932 67.8698 67.4769 67.9216 67.349C67.9734 67.221 68 67.0839 68 66.9454C68 66.8069 67.9733 66.6698 67.9215 66.5419C67.8698 66.4139 67.7939 66.2977 67.6982 66.1998C67.6025 66.1019 67.4889 66.0242 67.3639 65.9712C67.2389 65.9182 67.1049 65.891 66.9696 65.891ZM51.23 40.2287V47.6133L49.0073 45.8705C48.8275 45.7299 48.6074 45.6536 48.381 45.6536C48.1547 45.6535 47.9346 45.7297 47.7546 45.8703L45.5268 47.6149V40.2287H51.23ZM34 2.10904C38.9885 2.10904 43.047 6.27832 43.047 11.4028C43.047 16.5273 38.9885 20.6962 34 20.6962C29.0114 20.6962 24.9533 16.5273 24.9533 11.4028C24.9533 6.27832 29.0114 2.10904 34 2.10904ZM20.652 14.5785C20.652 13.4087 21.6652 12.4572 22.9105 12.4572H22.9447C23.4653 18.2512 28.2222 22.8051 34 22.8051C39.778 22.8051 44.5349 18.2512 45.0555 12.4572H45.0897C46.3351 12.4572 47.3482 13.4087 47.3482 14.5785V35.9983C47.3482 37.1682 46.3351 38.1196 45.0897 38.1196H22.9104C21.665 38.1196 20.6519 37.1682 20.6519 35.9983L20.652 14.5785ZM16.7702 40.2287H22.4734V47.6133L20.2507 45.8705C20.0709 45.7299 19.8508 45.6536 19.6244 45.6536C19.3981 45.6535 19.178 45.7297 18.998 45.8703L16.7701 47.6151V40.2287H16.7702ZM32.9696 63.7696C32.9696 64.9395 31.9567 65.891 30.7115 65.891H8.53218C7.28685 65.891 6.27368 64.9395 6.27368 63.7696V42.35C6.27368 41.1801 7.28685 40.2287 8.53218 40.2287H14.7097V49.7493C14.7098 49.946 14.7636 50.1387 14.8651 50.3057C14.9666 50.4727 15.1116 50.6074 15.2839 50.6945C15.4562 50.7816 15.6488 50.8176 15.84 50.7986C16.0313 50.7796 16.2135 50.7063 16.3662 50.5869L19.6241 48.0358L22.8774 50.5866C23.0302 50.7057 23.2124 50.779 23.4037 50.7981C23.5949 50.8173 23.7875 50.7816 23.96 50.6951C24.1324 50.6079 24.2774 50.4732 24.3789 50.3061C24.4804 50.139 24.5341 49.9462 24.5342 49.7495V40.2288H30.7117C31.957 40.2288 32.9698 41.1803 32.9698 42.3501L32.9696 63.7696ZM61.7265 63.7696C61.7265 64.9395 60.7134 65.891 59.468 65.891H37.2888C36.0435 65.891 35.0303 64.9395 35.0303 63.7696V42.35C35.0303 41.1801 36.0435 40.2287 37.2888 40.2287H43.4663V49.7493C43.4664 49.946 43.5202 50.1387 43.6217 50.3057C43.7232 50.4727 43.8682 50.6074 44.0405 50.6945C44.2128 50.7816 44.4054 50.8176 44.5967 50.7986C44.7879 50.7796 44.9701 50.7063 45.1228 50.5869L48.3807 48.0358L51.634 50.5866C51.7868 50.7058 51.9691 50.779 52.1603 50.7982C52.3515 50.8174 52.5441 50.7817 52.7166 50.6951C52.889 50.6079 53.0341 50.4732 53.1355 50.3061C53.237 50.139 53.2908 49.9462 53.2908 49.7495V40.2288H59.4683C60.7136 40.2288 61.7268 41.1803 61.7268 42.3501V63.7696H61.7265Z" fill="url(#paint0_linear_2427_389)"/>
<path d="M31.5349 15.2614C31.6306 15.3597 31.7444 15.4377 31.8696 15.4909C31.9948 15.5441 32.1291 15.5714 32.2647 15.5714C32.4002 15.5714 32.5345 15.5441 32.6597 15.4909C32.7849 15.4377 32.8987 15.3597 32.9944 15.2614L39.0592 9.03375C39.2521 8.83564 39.3602 8.56723 39.3598 8.28755C39.3593 8.00787 39.2504 7.73982 39.0569 7.54233C38.6535 7.13151 38.0011 7.13179 37.5997 7.5447L32.2648 13.0231L30.4033 11.1114C30.0019 10.6992 29.3496 10.6981 28.9461 11.109C28.7526 11.3065 28.6437 11.5746 28.6433 11.8543C28.6428 12.1339 28.7509 12.4023 28.9438 12.6005L31.5349 15.2614Z" fill="url(#paint1_linear_2427_389)"/>
</g>
<defs>
<linearGradient id="paint0_linear_2427_389" x1="0" y1="0" x2="74.0055" y2="7.32487" gradientUnits="userSpaceOnUse">
<stop stop-color="#7E4BA4"/>
<stop offset="1" stop-color="#301C3E"/>
</linearGradient>
<linearGradient id="paint1_linear_2427_389" x1="28.6432" y1="7.23462" x2="40.2329" y2="8.70917" gradientUnits="userSpaceOnUse">
<stop stop-color="#7E4BA4"/>
<stop offset="1" stop-color="#301C3E"/>
</linearGradient>
<clipPath id="clip0_2427_389">
<rect width="68" height="68" fill="white"/>
</clipPath>
</defs>
</svg>
