<svg width="40" height="40" viewBox="0 0 40 40" fill="none" xmlns="http://www.w3.org/2000/svg">
<path d="M37.1579 23.4472L36.0661 23.2042L28.9103 10.7143L29.1739 9.61509L39.2194 3.3335L40 4.70795L30.6122 10.5787L36.9516 21.6437L38.9309 20.1875L39.8067 21.4975L37.1579 23.4472ZM2.84211 23.4472L0.193684 21.4979L1.06947 20.188L3.04842 21.6441L9.38821 10.5787L0 4.70795L0.780632 3.3335L10.8261 9.61509L11.0897 10.7143L3.93389 23.2042L2.84211 23.4472Z" fill="url(#paint0_linear_2427_451)"/>
<path d="M31.3002 28.8827C30.8794 28.8823 30.4654 28.7714 30.0959 28.5602L23.9229 25.0478L24.6496 23.6411L30.8252 27.1543C31.2349 27.3881 31.7629 27.2798 32.0555 26.9158C32.3545 26.5447 32.3701 25.9933 32.0913 25.6067C32.0464 25.5471 31.9961 25.4922 31.941 25.4428L26.6728 20.7742L21.3776 17.3264C21.1854 17.2022 20.9702 17.1222 20.7462 17.0917C20.5223 17.0613 20.2948 17.081 20.0787 17.1496L18.4084 17.6816L16.6092 19.7545C16.1351 20.2995 15.5178 20.685 14.8353 20.8626C14.1527 21.0402 13.4353 21.0019 12.7734 20.7526C12.4795 20.6425 12.2121 20.4663 11.9899 20.2362C11.7678 20.0062 11.5963 19.7279 11.4875 19.421C11.3775 19.1131 11.3331 18.7837 11.3573 18.4558C11.3816 18.128 11.4741 17.8097 11.6282 17.5234L14.2244 12.6901L14.6551 12.3198C17.1818 11.4636 19.7338 10.9206 22.4581 10.6604L22.7191 10.6829L28.4218 12.2434L30.3966 11.4658L30.9313 12.9644L28.7313 13.8304L28.2711 13.8555L22.4639 12.2668C20.0054 12.5111 17.6922 12.9967 15.4071 13.7482L12.9566 18.3089C12.9115 18.3922 12.8845 18.4849 12.8775 18.5803C12.8705 18.6758 12.8837 18.7717 12.9162 18.8612C12.9541 18.9668 13.0522 19.1572 13.2879 19.2456C14.0564 19.5363 14.941 19.3004 15.4808 18.6774L17.4218 16.441L17.7642 16.2143L19.6378 15.6166C20.0612 15.483 20.5067 15.4451 20.945 15.5053C21.3834 15.5654 21.8046 15.7223 22.181 15.9656L27.6134 19.5133L32.9229 24.2185C33.0526 24.3325 33.1755 24.4668 33.2964 24.6263C34.0239 25.6354 33.9882 26.9957 33.2197 27.9496C32.9837 28.2424 32.6897 28.4777 32.358 28.6388C32.0264 28.8 31.6656 28.8832 31.3002 28.8827Z" fill="url(#paint1_linear_2427_451)"/>
<path d="M33.1482 25.77L32.2484 24.4777C33.4672 23.5459 34.5572 22.4413 35.4871 21.1956L36.6888 22.1817C35.6718 23.5434 34.4806 24.751 33.1482 25.77ZM28.8509 31.8201C28.4425 31.8201 28.0332 31.7101 27.6669 31.5029L21.805 28.1893L22.5288 26.7804L28.3911 30.094C28.7966 30.325 29.2917 30.2177 29.5844 29.8656C29.7557 29.6579 29.8383 29.3902 29.8151 29.1136C29.8043 28.9778 29.7673 28.8458 29.7063 28.7255C29.6454 28.6052 29.5618 28.4991 29.4606 28.4138L28.6538 27.7241L29.6172 26.4835L30.4223 27.1719C30.6824 27.3917 30.8974 27.6647 31.0542 27.9742C31.2109 28.2837 31.3062 28.6234 31.3343 28.9727C31.3649 29.3221 31.3277 29.6744 31.2248 30.0083C31.122 30.3422 30.9557 30.6508 30.7359 30.9153C30.5016 31.1987 30.2121 31.4261 29.8869 31.5822C29.5618 31.7383 29.2085 31.8194 28.8509 31.8201Z" fill="url(#paint2_linear_2427_451)"/>
<path d="M26.5125 34.5121C26.1709 34.5109 25.8335 34.4328 25.5231 34.2832L19.8633 31.5246L20.5058 30.0733L26.1622 32.8301C26.4919 32.9879 26.8915 32.8999 27.1243 32.63C27.2696 32.4647 27.3479 32.2465 27.3425 32.0216C27.337 31.7968 27.2484 31.583 27.0953 31.4256L26.5934 30.9039L27.6666 29.7671L28.1669 30.2871C28.6018 30.734 28.8539 31.3409 28.8699 31.9794C28.8858 32.6179 28.6644 33.2378 28.2523 33.708C28.0315 33.9616 27.7628 34.164 27.4632 34.3025C27.1637 34.4409 26.8399 34.5123 26.5125 34.5121Z" fill="url(#paint3_linear_2427_451)"/>
<path d="M23.1513 36.4955C22.8654 36.4957 22.5813 36.448 22.3097 36.3542C20.8532 35.8589 19.26 35.2178 17.4402 34.397L18.0423 32.9266C19.8191 33.7285 21.369 34.3515 22.7821 34.8326C23.3059 35.0124 23.8743 34.7884 24.169 34.2892L24.2701 34.1235C24.4097 33.8861 24.4682 33.606 24.436 33.3291L25.9509 33.1462C26.0206 33.7855 25.8826 34.4307 25.5593 34.9775L25.46 35.141C25.2171 35.5546 24.8776 35.8961 24.4735 36.1332C24.0694 36.3703 23.6143 36.495 23.1513 36.4955ZM14.5004 14.244C12.1193 13.629 10.2608 12.756 9.36523 12.2907L10.0419 10.8562C10.8819 11.2931 12.6254 12.1114 14.8646 12.6897L14.5004 14.244ZM5.48355 25.9324C4.62712 24.9357 3.70544 23.4768 3.0827 22.4284L4.37702 21.5815C4.85997 22.3953 5.79386 23.9032 6.61618 24.8615L5.48355 25.9324Z" fill="url(#paint4_linear_2427_451)"/>
<path d="M6.96935 29.7357C6.1285 29.7357 5.31882 29.2837 4.89693 28.4871L4.86829 28.4266C4.58661 27.8836 4.53398 27.1825 4.7365 26.5299C4.92306 25.9472 5.18699 25.3949 5.5205 24.8895C5.86493 24.3536 6.31124 23.8221 6.84261 23.3162C7.30785 22.8724 7.91943 22.636 8.54787 22.6571C8.87718 22.6677 9.20088 22.7493 9.49887 22.8967C9.79686 23.0442 10.0628 23.2543 10.2801 23.5142C10.5491 23.8413 10.734 24.2352 10.8172 24.6583C10.9005 25.0815 10.8794 25.52 10.7559 25.9322L9.30198 25.4471C9.34703 25.2969 9.35482 25.1371 9.32461 24.9829C9.2944 24.8286 9.22719 24.685 9.12935 24.5657C9.05084 24.4713 8.95449 24.395 8.84642 24.3418C8.73835 24.2886 8.62091 24.2595 8.50156 24.2564C8.26872 24.259 8.04135 24.3359 7.86661 24.502C7.42661 24.9209 7.06072 25.3547 6.78029 25.7908C6.52732 26.1727 6.32703 26.5902 6.18535 27.0309C6.11377 27.2589 6.12766 27.5072 6.22198 27.6906L6.24261 27.733C6.47293 28.1677 7.02745 28.2304 7.40093 28.0237L8.10914 29.441C7.75759 29.6347 7.36642 29.7358 6.96935 29.7357ZM15.334 36.6667C15.2611 36.6667 15.1879 36.6636 15.115 36.6566C14.3525 36.585 13.6952 36.1556 13.3125 35.4787L13.3184 35.4743L13.2759 35.4146C12.9841 34.892 12.9117 34.1931 13.0952 33.5299C13.2447 32.9997 13.467 32.4828 13.7567 31.9902L15.0548 32.8305C14.8359 33.203 14.6691 33.5895 14.5588 33.9801C14.4923 34.22 14.5108 34.4621 14.6098 34.6402L14.6085 34.641L14.6241 34.6614C14.8018 34.9759 15.0931 35.0475 15.251 35.0625C15.3978 35.0769 15.5457 35.0544 15.6826 34.997C15.8195 34.9397 15.9414 34.849 16.0384 34.7325C16.4641 34.22 16.8161 33.6814 17.1041 33.222C17.2426 33.0011 17.3811 32.7735 17.5205 32.546C17.7348 32.1934 17.6973 31.7344 17.427 31.4309C17.099 31.0553 16.5091 31.0492 16.1639 31.4022C16.1138 31.4508 16.0839 31.4826 16.054 31.5166L14.9285 30.4368C14.9896 30.3661 15.0506 30.3021 15.1171 30.238C15.5654 29.7843 16.1647 29.5321 16.7875 29.5351C17.4561 29.5351 18.0969 29.8302 18.5466 30.344C19.2868 31.1773 19.395 32.4391 18.8051 33.408C18.6628 33.6412 18.5209 33.8732 18.379 34.1003C18.0616 34.6066 17.6725 35.2004 17.1887 35.7827C16.9577 36.0605 16.6726 36.2831 16.3527 36.4356C16.0327 36.5881 15.6854 36.6669 15.334 36.6667Z" fill="url(#paint5_linear_2427_451)"/>
<path d="M9.0314 32.2072C8.8554 32.2072 8.68109 32.1891 8.51098 32.1528C7.76319 31.992 7.17625 31.4813 6.90004 30.7514L6.9034 30.7501L6.88951 30.7125L6.8853 30.7143C6.59183 29.9182 6.67225 29.0107 7.09583 28.3475C7.79814 27.2461 8.62593 26.2039 9.42677 25.1961C9.61793 24.9554 9.80867 24.7159 9.99688 24.476C10.2247 24.1838 10.5072 23.9436 10.8268 23.7701C11.1464 23.5966 11.4964 23.4936 11.8554 23.4674C12.5674 23.409 13.2617 23.6489 13.7573 24.1177C13.876 24.2304 13.9779 24.3488 14.068 24.48C14.7531 25.471 14.6436 26.9572 13.8011 28.0931C13.0306 29.1304 12.2617 30.166 11.3438 31.138L11.343 31.1384C10.6954 31.8228 9.84614 32.2072 9.0314 32.2072ZM8.3093 30.1426L8.31688 30.1603C8.4053 30.3927 8.56867 30.5314 8.81709 30.5844C9.27225 30.6829 9.83814 30.4572 10.2613 30.0105C11.1152 29.107 11.8221 28.154 12.5712 27.1458C13.0188 26.5419 13.1177 25.8306 12.8322 25.4184C12.804 25.3776 12.7717 25.3401 12.7358 25.3066C12.5535 25.1339 12.2588 25.0389 11.9678 25.0636C11.8144 25.0738 11.6646 25.1172 11.528 25.1912C11.3914 25.2652 11.2709 25.3681 11.1741 25.4935C10.983 25.7366 10.7911 25.9792 10.5986 26.2211C9.82256 27.1971 9.02088 28.2062 8.36277 29.2373C8.19351 29.5029 8.2133 29.8802 8.30762 30.1364L8.3093 30.1426Z" fill="url(#paint6_linear_2427_451)"/>
<path d="M11.8431 35.0323C11.6789 35.0323 11.5155 35.016 11.3547 34.9846C10.585 34.8304 9.96902 34.3193 9.66418 33.5819L9.64986 33.5448L9.6486 33.5452C9.3867 32.8953 9.41281 32.097 9.72102 31.3552C10.2819 29.9913 11.2052 28.7406 12.5438 27.5344C13.6301 26.5558 15.1635 26.4962 16.1113 27.3922C16.2284 27.5026 16.3286 27.6179 16.4179 27.7439C17.1168 28.7225 17.0549 30.1614 16.2646 31.2403L16.2372 31.2774C15.5543 32.2083 14.8478 33.1714 13.9922 34.0696L13.9913 34.071C13.404 34.6864 12.6145 35.0323 11.8431 35.0323ZM11.0541 32.924L11.0633 32.9452C11.1947 33.2616 11.4499 33.3738 11.641 33.4122C12.0654 33.4966 12.553 33.3159 12.9139 32.9386C13.6995 32.1124 14.3454 31.2328 15.0288 30.301L15.0558 30.2648C15.4301 29.7532 15.4873 29.1099 15.1951 28.7008C15.1641 28.657 15.1288 28.6168 15.0899 28.5806C14.7101 28.221 14.0427 28.2935 13.5379 28.7485C12.3787 29.7925 11.5884 30.8537 11.121 31.9914C10.9795 32.3316 10.9547 32.6779 11.0536 32.9227L11.0541 32.924Z" fill="url(#paint7_linear_2427_451)"/>
<defs>
<linearGradient id="paint0_linear_2427_451" x1="0" y1="3.3335" x2="42.3194" y2="11.6635" gradientUnits="userSpaceOnUse">
<stop stop-color="#7E4BA4"/>
<stop offset="1" stop-color="#301C3E"/>
</linearGradient>
<linearGradient id="paint1_linear_2427_451" x1="11.3509" y1="10.6604" x2="35.6814" y2="13.6298" gradientUnits="userSpaceOnUse">
<stop stop-color="#7E4BA4"/>
<stop offset="1" stop-color="#301C3E"/>
</linearGradient>
<linearGradient id="paint2_linear_2427_451" x1="21.805" y1="21.1956" x2="37.8534" y2="23.4208" gradientUnits="userSpaceOnUse">
<stop stop-color="#7E4BA4"/>
<stop offset="1" stop-color="#301C3E"/>
</linearGradient>
<linearGradient id="paint3_linear_2427_451" x1="19.8633" y1="29.7671" x2="29.4247" y2="31.5636" gradientUnits="userSpaceOnUse">
<stop stop-color="#7E4BA4"/>
<stop offset="1" stop-color="#301C3E"/>
</linearGradient>
<linearGradient id="paint4_linear_2427_451" x1="3.0827" y1="10.8562" x2="28.039" y2="13.061" gradientUnits="userSpaceOnUse">
<stop stop-color="#7E4BA4"/>
<stop offset="1" stop-color="#301C3E"/>
</linearGradient>
<linearGradient id="paint5_linear_2427_451" x1="4.61426" y1="22.6558" x2="20.4584" y2="24.2865" gradientUnits="userSpaceOnUse">
<stop stop-color="#7E4BA4"/>
<stop offset="1" stop-color="#301C3E"/>
</linearGradient>
<linearGradient id="paint6_linear_2427_451" x1="6.71063" y1="23.4587" x2="15.2223" y2="24.2104" gradientUnits="userSpaceOnUse">
<stop stop-color="#7E4BA4"/>
<stop offset="1" stop-color="#301C3E"/>
</linearGradient>
<linearGradient id="paint7_linear_2427_451" x1="9.46942" y1="26.7583" x2="17.5743" y2="27.479" gradientUnits="userSpaceOnUse">
<stop stop-color="#7E4BA4"/>
<stop offset="1" stop-color="#301C3E"/>
</linearGradient>
</defs>
</svg>
