<svg width="32" height="32" viewBox="0 0 32 32" fill="none" xmlns="http://www.w3.org/2000/svg">
<path d="M16.0057 1.71096e-07C9.60366 -0.000932968 3.81767 3.81514 1.29786 9.70038L1.09844 9.7665L1.17575 9.99845C-2.14195 18.1811 1.80182 27.5041 9.98452 30.8218C11.8957 31.5967 13.9387 31.9945 16.0009 31.9933C24.8356 31.9947 31.9987 24.8338 32 15.9991C32.0013 7.16437 24.8404 0.00126657 16.0057 1.71096e-07ZM28.5532 24.0619L27.7318 23.241V21.3289C27.7328 21.2464 27.7145 21.1648 27.6785 21.0905L25.5989 16.9373V14.9302C25.5989 14.8425 25.5773 14.756 25.5359 14.6787C25.4945 14.6013 25.4347 14.5353 25.3616 14.4866L23.762 13.4201C23.7 13.3787 23.63 13.3508 23.5565 13.3381C23.483 13.3254 23.4077 13.3283 23.3354 13.3466L21.3763 13.8361L18.0858 12.4241L17.6331 9.25247L18.8878 7.99833H21.5811L22.4876 9.36072C22.5281 9.42134 22.5806 9.47301 22.6419 9.51254C22.7031 9.55207 22.7718 9.57862 22.8438 9.59054L26.0431 10.1238C26.1288 10.1381 26.2167 10.1312 26.2991 10.1035L29.2456 9.1213C31.7171 13.864 31.4527 19.5682 28.5532 24.0619ZM26.354 5.25437L25.487 5.83239L23.0699 5.34875L21.5017 4.82673C21.4057 4.79411 21.3023 4.79003 21.2041 4.815L19.2216 5.31036L18.3524 5.02082L18.9966 3.73256H20.7999C20.8827 3.73264 20.9643 3.71347 21.0383 3.67657L22.8832 2.75409C24.1538 3.41726 25.3226 4.25926 26.354 5.25437ZM10.1605 2.25713L11.4403 3.11029C11.5032 3.15213 11.5742 3.18013 11.6488 3.1924L14.2328 3.62325L13.9806 4.37776L12.6342 4.82726C12.5136 4.86738 12.4113 4.94926 12.3457 5.05815L10.8143 7.61015L8.35453 9.08611L4.72861 9.60387C4.6015 9.62184 4.48513 9.68507 4.40089 9.78195C4.31665 9.87882 4.27019 10.0028 4.27004 10.1312V11.7309C4.27007 11.8723 4.32627 12.0079 4.42628 12.1079L5.33649 13.0181V13.9342L3.11828 12.455L2.31365 10.0411C3.84451 6.54317 6.6504 3.75978 10.1605 2.25713ZM8.64247 19.7399L6.2323 19.2573L5.33649 17.4705V16.2174L7.32327 14.2306L8.05859 15.7018C8.10289 15.7904 8.171 15.865 8.2553 15.9171C8.33959 15.9691 8.43673 15.9967 8.53582 15.9967H11.9666L13.4111 18.4042C13.4585 18.483 13.5254 18.5483 13.6055 18.5936C13.6856 18.6389 13.776 18.6628 13.868 18.6628H15.3504L14.9771 20.5328L12.9584 22.5516C12.9088 22.601 12.8694 22.6598 12.8425 22.7245C12.8156 22.7892 12.8017 22.8585 12.8016 22.9286V24.2616L10.882 25.7013C10.8158 25.751 10.762 25.8154 10.725 25.8894C10.688 25.9635 10.6687 26.0451 10.6687 26.1279V28.0539L10.0054 27.8342L9.06904 25.4923V20.2624C9.06907 20.1395 9.02662 20.0204 8.94889 19.9251C8.87115 19.8299 8.76291 19.7645 8.64247 19.7399ZM7.0396 27.9369C2.01205 24.1651 -0.114111 17.6481 1.72177 11.637L2.16488 12.9658C2.2022 13.0783 2.27594 13.1751 2.37444 13.241L5.03255 15.0129L4.42628 15.6197C4.32627 15.7197 4.27007 15.8553 4.27004 15.9967V17.5963C4.26996 17.6791 4.28913 17.7607 4.32603 17.8347L5.39248 19.9676C5.42892 20.0403 5.48149 20.1037 5.54618 20.1529C5.61087 20.2022 5.68597 20.236 5.76573 20.2518L8.00526 20.6992V25.5947C8.00521 25.6624 8.01806 25.7296 8.04312 25.7925L9.10957 28.4586C9.13841 28.5306 9.1826 28.5954 9.23905 28.6485C9.2955 28.7016 9.36286 28.7418 9.43643 28.7663L11.0361 29.2995C11.0895 29.3176 11.1455 29.327 11.2019 29.3272C11.3434 29.3272 11.479 29.271 11.579 29.171C11.679 29.071 11.7352 28.9354 11.7352 28.794V26.3945L13.6548 24.9548C13.721 24.9051 13.7747 24.8407 13.8117 24.7667C13.8488 24.6926 13.868 24.611 13.868 24.5282V23.1493L15.8447 21.1727C15.919 21.0982 15.9697 21.0034 15.9903 20.9002L16.5235 18.2341C16.5389 18.1567 16.5371 18.0769 16.518 18.0004C16.4989 17.9239 16.463 17.8526 16.4131 17.7916C16.3631 17.7306 16.3002 17.6815 16.2289 17.6477C16.1577 17.6139 16.0798 17.5964 16.0009 17.5963H14.1698L12.7253 15.1888C12.678 15.11 12.611 15.0447 12.5309 14.9994C12.4508 14.9541 12.3604 14.9302 12.2684 14.9302H8.86535L7.94928 13.0922C7.91147 13.0166 7.85621 12.951 7.78806 12.9009C7.71991 12.8509 7.64084 12.8177 7.55736 12.8043C7.47397 12.7899 7.38833 12.7959 7.3078 12.8219C7.22727 12.8479 7.15426 12.8931 7.09505 12.9536L6.40293 13.643V12.7973C6.4029 12.6559 6.3467 12.5203 6.2467 12.4203L5.33649 11.5101V10.5935L8.61154 10.1259C8.68188 10.1157 8.7495 10.0916 8.81043 10.055L11.4765 8.45531C11.5513 8.41036 11.614 8.34774 11.6589 8.27294L13.1573 5.77586L14.5698 5.3045C14.6484 5.27869 14.7199 5.23475 14.7785 5.1762C14.837 5.11766 14.881 5.04617 14.9068 4.9675L15.44 3.36783C15.4641 3.29482 15.4722 3.21746 15.4636 3.14105C15.455 3.06464 15.43 2.99098 15.3903 2.92514C15.3506 2.8593 15.2971 2.80282 15.2335 2.75958C15.17 2.71634 15.0978 2.68737 15.0219 2.67464L11.9356 2.16008L11.3934 1.79856C14.7488 0.706413 18.3832 0.841528 21.6483 2.17981L20.6741 2.66611H18.667C18.5675 2.66557 18.4698 2.6929 18.385 2.74501C18.3002 2.79712 18.2316 2.87194 18.1871 2.96098L17.1207 5.09387C17.0866 5.16221 17.0676 5.23707 17.065 5.31338C17.0623 5.3897 17.0761 5.46569 17.1054 5.53621C17.1347 5.60674 17.1788 5.67016 17.2347 5.72217C17.2906 5.77419 17.357 5.81359 17.4294 5.83772L19.0291 6.37094C19.1251 6.40353 19.2284 6.40767 19.3266 6.38267L21.3092 5.88731L22.7617 6.37094C22.7825 6.37841 22.8038 6.38414 22.8256 6.388L25.4918 6.92123C25.5604 6.93522 25.6311 6.93545 25.6999 6.92191C25.7686 6.90836 25.834 6.88131 25.8922 6.84231L27.1058 6.03288C27.7031 6.69813 28.2399 7.41531 28.7098 8.1759L26.0863 9.05038L23.2458 8.57688L22.3074 7.16917C22.2589 7.09654 22.1933 7.03692 22.1164 6.99555C22.0396 6.95417 21.9537 6.93231 21.8664 6.93189H18.667C18.5256 6.93192 18.39 6.98812 18.2901 7.08812L16.6904 8.68779C16.6318 8.74634 16.5877 8.81774 16.5615 8.89632C16.5353 8.9749 16.5278 9.0585 16.5395 9.1405L17.0727 12.8731C17.0859 12.9638 17.1223 13.0496 17.1783 13.1222C17.2344 13.1947 17.3082 13.2516 17.3926 13.2874L21.1252 14.887C21.2321 14.9333 21.3514 14.9429 21.4643 14.9142L23.3685 14.4381L24.5325 15.2155V17.0631C24.5316 17.1456 24.5498 17.2272 24.5858 17.3015L26.6654 21.4547V23.4618C26.6654 23.6032 26.7216 23.7388 26.8216 23.8388L27.9371 24.9548C22.9899 31.549 13.6338 32.8842 7.0396 27.9369Z" fill="white"/>
</svg>
