<svg width="200" height="62" viewBox="0 0 200 62" fill="none" xmlns="http://www.w3.org/2000/svg">
<rect x="0.769231" y="0.769231" width="198.462" height="60.4615" rx="7.23077" fill="white"/>
<rect x="0.769231" y="0.769231" width="198.462" height="60.4615" rx="7.23077" stroke="#A6A6A6" stroke-width="1.53846"/>
<path fill-rule="evenodd" clip-rule="evenodd" d="M14.5151 11.184C14.0674 11.6579 13.8043 12.3917 13.8043 13.344V47.3409C13.8043 48.2932 14.0674 49.0271 14.5151 49.5009L14.6289 49.6117L33.6736 30.5671V30.1179L14.6289 11.0732L14.5151 11.184Z" fill="#00D7FE"/>
<mask id="mask0_2205_5876" style="mask-type:alpha" maskUnits="userSpaceOnUse" x="33" y="23" width="17" height="14">
<path d="M40.0197 36.9178L33.6736 30.567V30.1178L40.0228 23.7686L47.6874 28.1224C49.8351 29.3439 49.8351 31.3409 47.6874 32.5609L40.1659 36.8347L40.0197 36.9178Z" fill="white"/>
</mask>
<g mask="url(#mask0_2205_5876)">
<path fill-rule="evenodd" clip-rule="evenodd" d="M40.0197 36.9178L33.6736 30.567V30.1178L40.0228 23.7686L47.6874 28.1224C49.8351 29.3439 49.8351 31.3409 47.6874 32.5609L40.1659 36.8347L40.0197 36.9178Z" fill="url(#paint0_linear_2205_5876)"/>
</g>
<mask id="mask1_2205_5876" style="mask-type:alpha" maskUnits="userSpaceOnUse" x="14" y="30" width="27" height="21">
<path d="M40.1657 36.837L33.6734 30.3447L14.5149 49.5032C15.2241 50.2524 16.3934 50.3447 17.7103 49.597L40.1657 36.837Z" fill="white"/>
</mask>
<g mask="url(#mask1_2205_5876)">
<path fill-rule="evenodd" clip-rule="evenodd" d="M40.1658 36.8361L33.6735 30.3438L14.5151 49.5022C15.2243 50.2514 16.3935 50.3438 17.7105 49.5961L40.1658 36.8361Z" fill="url(#paint1_linear_2205_5876)"/>
</g>
<mask id="mask2_2205_5876" style="mask-type:alpha" maskUnits="userSpaceOnUse" x="14" y="10" width="27" height="21">
<path d="M40.1657 23.8513L17.7103 11.0913C16.3934 10.3436 15.2241 10.4359 14.5149 11.1851L33.6734 30.3436L40.1657 23.8513Z" fill="white"/>
</mask>
<g mask="url(#mask2_2205_5876)">
<path fill-rule="evenodd" clip-rule="evenodd" d="M40.1658 23.8508L17.7105 11.0908C16.3935 10.3431 15.2243 10.4354 14.5151 11.1847L33.6735 30.3431L40.1658 23.8508Z" fill="url(#paint2_linear_2205_5876)"/>
</g>
<path fill-rule="evenodd" clip-rule="evenodd" d="M159.837 47.1919H162.708V27.9595H159.837V47.1919ZM185.694 34.8872L182.403 43.2257H182.305L178.889 34.8872H175.797L180.918 46.5411L177.998 53.0242H180.994L188.886 34.8872H185.694ZM169.414 45.0072C168.472 45.0072 167.161 44.538 167.161 43.3749C167.161 41.8903 168.795 41.3211 170.205 41.3211C171.468 41.3211 172.06 41.5934 172.828 41.9642C172.605 43.7457 171.071 45.0072 169.414 45.0072ZM169.76 34.4672C167.681 34.4672 165.529 35.3826 164.638 37.4119L167.186 38.4749C167.731 37.4119 168.745 37.0642 169.809 37.0642C171.294 37.0642 172.803 37.9549 172.828 39.5395V39.7365C172.308 39.4395 171.195 38.9949 169.834 38.9949C167.088 38.9949 164.291 40.5042 164.291 43.3242C164.291 45.898 166.543 47.5565 169.066 47.5565C170.997 47.5565 172.06 46.6903 172.729 45.6749H172.828V47.1595H175.598V39.7872C175.598 36.3719 173.051 34.4672 169.76 34.4672ZM152.018 37.2288H147.935V30.6365H152.018C154.165 30.6365 155.383 32.4134 155.383 33.9319C155.383 35.4226 154.165 37.2288 152.018 37.2288ZM151.945 27.9595H145.066V47.1919H147.935V39.9057H151.945C155.126 39.9057 158.254 37.6011 158.254 33.9319C158.254 30.2626 155.126 27.9595 151.945 27.9595ZM114.435 45.0103C112.452 45.0103 110.792 43.3503 110.792 41.0703C110.792 38.7657 112.452 37.0795 114.435 37.0795C116.394 37.0795 117.929 38.7657 117.929 41.0703C117.929 43.3503 116.394 45.0103 114.435 45.0103ZM117.731 35.9642H117.632C116.988 35.1965 115.749 34.5026 114.188 34.5026C110.915 34.5026 107.917 37.3765 107.917 41.0703C107.917 44.738 110.915 47.5888 114.188 47.5888C115.749 47.5888 116.988 46.8949 117.632 46.1011H117.731V47.0426C117.731 49.5472 116.394 50.8857 114.237 50.8857C112.477 50.8857 111.386 49.6211 110.94 48.5549L108.437 49.5965C109.155 51.3319 111.065 53.4626 114.237 53.4626C117.608 53.4626 120.458 51.4795 120.458 46.6472V34.898H117.731V35.9642ZM122.441 47.1919H125.317V27.958H122.441V47.1919ZM129.554 40.8472C129.48 38.3195 131.512 37.0303 132.974 37.0303C134.115 37.0303 135.081 37.5995 135.403 38.418L129.554 40.8472ZM138.477 38.6657C137.932 37.2042 136.271 34.5026 132.875 34.5026C129.505 34.5026 126.705 37.1534 126.705 41.0457C126.705 44.7134 129.48 47.5888 133.197 47.5888C136.197 47.5888 137.932 45.7549 138.651 44.6888L136.42 43.2011C135.677 44.2919 134.66 45.0103 133.197 45.0103C131.735 45.0103 130.694 44.3411 130.025 43.0288L138.774 39.4103L138.477 38.6657ZM68.7723 36.5103V39.2857H75.4138C75.2153 40.8472 74.6953 41.9872 73.903 42.7811C72.9353 43.7472 71.423 44.8119 68.7723 44.8119C64.683 44.8119 61.4846 41.5165 61.4846 37.4272C61.4846 33.3365 64.683 30.0411 68.7723 30.0411C70.9784 30.0411 72.5892 30.9088 73.7784 32.0242L75.7369 30.0657C74.0753 28.4795 71.8707 27.2642 68.7723 27.2642C63.1707 27.2642 58.4615 31.8257 58.4615 37.4272C58.4615 43.0288 63.1707 47.5888 68.7723 47.5888C71.7953 47.5888 74.0753 46.598 75.8599 44.738C77.6938 42.9042 78.2646 40.3272 78.2646 38.2442C78.2646 37.5995 78.2153 37.0057 78.1153 36.5103H68.7723ZM85.8169 45.0103C83.8338 45.0103 82.123 43.3749 82.123 41.0457C82.123 38.6903 83.8338 37.0795 85.8169 37.0795C87.7984 37.0795 89.5092 38.6903 89.5092 41.0457C89.5092 43.3749 87.7984 45.0103 85.8169 45.0103ZM85.8169 34.5026C82.1969 34.5026 79.2476 37.2534 79.2476 41.0457C79.2476 44.8119 82.1969 47.5888 85.8169 47.5888C89.4353 47.5888 92.3846 44.8119 92.3846 41.0457C92.3846 37.2534 89.4353 34.5026 85.8169 34.5026ZM100.145 45.0103C98.1615 45.0103 96.4507 43.3749 96.4507 41.0457C96.4507 38.6903 98.1615 37.0795 100.145 37.0795C102.128 37.0795 103.837 38.6903 103.837 41.0457C103.837 43.3749 102.128 45.0103 100.145 45.0103ZM100.145 34.5026C96.5261 34.5026 93.5769 37.2534 93.5769 41.0457C93.5769 44.8119 96.5261 47.5888 100.145 47.5888C103.763 47.5888 106.712 44.8119 106.712 41.0457C106.712 37.2534 103.763 34.5026 100.145 34.5026Z" fill="black"/>
<path d="M66.8787 15.3626V18.9661C66.757 19.1464 66.5632 19.3492 66.2973 19.5746C66.0313 19.7954 65.664 19.9892 65.1953 20.156C64.731 20.3182 64.1316 20.3994 63.3969 20.3994C62.7974 20.3994 62.2453 20.2957 61.7405 20.0884C61.2402 19.8765 60.8052 19.57 60.4356 19.1689C60.0706 18.7633 59.7866 18.272 59.5838 17.695C59.3855 17.1136 59.2863 16.4556 59.2863 15.7209V14.9569C59.2863 14.2222 59.3719 13.5664 59.5432 12.9895C59.719 12.4126 59.9759 11.9236 60.314 11.5224C60.652 11.1168 61.0667 10.8103 61.5579 10.603C62.0492 10.3911 62.6126 10.2852 63.2481 10.2852C64.0009 10.2852 64.6296 10.4159 65.1344 10.6773C65.6437 10.9342 66.0404 11.2903 66.3243 11.7455C66.6128 12.2008 66.7976 12.7191 66.8787 13.3005H65.5739C65.5153 12.9444 65.3981 12.6199 65.2223 12.327C65.051 12.034 64.8054 11.7996 64.4854 11.6238C64.1654 11.4435 63.753 11.3534 63.2481 11.3534C62.7929 11.3534 62.3985 11.4368 62.065 11.6036C61.7315 11.7703 61.4565 12.0092 61.2402 12.3202C61.0238 12.6312 60.8616 13.0075 60.7534 13.4493C60.6497 13.891 60.5979 14.389 60.5979 14.9434V15.7209C60.5979 16.2888 60.6633 16.7959 60.794 17.2421C60.9292 17.6883 61.1207 18.0691 61.3686 18.3847C61.6165 18.6957 61.9118 18.9323 62.2543 19.0945C62.6014 19.2568 62.9845 19.3379 63.4036 19.3379C63.8679 19.3379 64.2442 19.2996 64.5327 19.223C64.8212 19.1419 65.0465 19.0472 65.2088 18.939C65.371 18.8264 65.495 18.7204 65.5806 18.6213V16.4173H63.3022V15.3626H66.8787ZM74.8805 19.2027V20.2642H69.6679V19.2027H74.8805ZM69.9316 10.4204V20.2642H68.6268V10.4204H69.9316ZM74.1909 14.6527V15.7141H69.6679V14.6527H74.1909ZM74.8129 10.4204V11.4886H69.6679V10.4204H74.8129ZM79.8535 10.4204V20.2642H78.569V10.4204H79.8535ZM83.0176 10.4204V11.4886H75.4117V10.4204H83.0176ZM88.2107 10.4204V20.2642H86.9059V10.4204H88.2107ZM93.6029 10.4204V20.2642H92.3183V10.4204H93.6029ZM96.7669 10.4204V11.4886H89.161V10.4204H96.7669ZM108.139 15.0313V15.6533C108.139 16.3925 108.047 17.055 107.862 17.641C107.677 18.2269 107.412 18.7249 107.064 19.1351C106.717 19.5453 106.3 19.8585 105.814 20.0749C105.331 20.2912 104.791 20.3994 104.191 20.3994C103.61 20.3994 103.076 20.2912 102.589 20.0749C102.107 19.8585 101.687 19.5453 101.331 19.1351C100.98 18.7249 100.707 18.2269 100.513 17.641C100.319 17.055 100.223 16.3925 100.223 15.6533V15.0313C100.223 14.2921 100.317 13.6318 100.506 13.0504C100.7 12.4644 100.973 11.9664 101.325 11.5562C101.676 11.1416 102.093 10.8261 102.575 10.6097C103.062 10.3934 103.596 10.2852 104.178 10.2852C104.777 10.2852 105.318 10.3934 105.8 10.6097C106.287 10.8261 106.704 11.1416 107.051 11.5562C107.403 11.9664 107.671 12.4644 107.855 13.0504C108.045 13.6318 108.139 14.2921 108.139 15.0313ZM106.848 15.6533V15.0178C106.848 14.4318 106.787 13.9135 106.666 13.4628C106.548 13.0121 106.375 12.6335 106.145 12.327C105.915 12.0205 105.633 11.7883 105.3 11.6306C104.971 11.4728 104.597 11.394 104.178 11.394C103.772 11.394 103.405 11.4728 103.076 11.6306C102.751 11.7883 102.472 12.0205 102.237 12.327C102.007 12.6335 101.829 13.0121 101.703 13.4628C101.577 13.9135 101.514 14.4318 101.514 15.0178V15.6533C101.514 16.2437 101.577 16.7666 101.703 17.2218C101.829 17.6725 102.01 18.0534 102.244 18.3644C102.483 18.6709 102.765 18.903 103.089 19.0607C103.418 19.2185 103.785 19.2974 104.191 19.2974C104.615 19.2974 104.991 19.2185 105.32 19.0607C105.649 18.903 105.926 18.6709 106.152 18.3644C106.382 18.0534 106.555 17.6725 106.672 17.2218C106.79 16.7666 106.848 16.2437 106.848 15.6533ZM117.25 10.4204V20.2642H115.938L110.983 12.6718V20.2642H109.678V10.4204H110.983L115.959 18.0331V10.4204H117.25Z" fill="#666666"/>
<defs>
<linearGradient id="paint0_linear_2205_5876" x1="46.2902" y1="30.3429" x2="33.6736" y2="30.3429" gradientUnits="userSpaceOnUse">
<stop stop-color="#FFBC00"/>
<stop offset="1" stop-color="#FFDA03"/>
</linearGradient>
<linearGradient id="paint1_linear_2205_5876" x1="36.6375" y1="36.4527" x2="20.1706" y2="50.0258" gradientUnits="userSpaceOnUse">
<stop stop-color="#E22652"/>
<stop offset="1" stop-color="#FF3A44"/>
</linearGradient>
<linearGradient id="paint2_linear_2205_5876" x1="17.4161" y1="13.4911" x2="28.3949" y2="23.1448" gradientUnits="userSpaceOnUse">
<stop stop-color="#0ED574"/>
<stop offset="1" stop-color="#07F076"/>
</linearGradient>
</defs>
</svg>
