<svg width="486" height="486" viewBox="0 0 486 486" fill="none" xmlns="http://www.w3.org/2000/svg">
<path d="M142.146 144.547C143.122 144.499 144.071 144.496 145.064 144.494C192.595 144.392 236.052 160.979 269.948 188.741C266.367 235.721 278.984 293.462 332.739 352.967C254.879 420.498 137.366 417.38 63.8267 343.841L61.9126 341.927C99.7773 304.803 148.852 285.889 197.892 285.207L202.591 285.142L199.287 281.802C164.323 246.452 142.525 197.947 142.146 144.547Z" stroke="white" stroke-opacity="0.06" stroke-width="4"/>
<path d="M353.725 334.609C420.564 258.35 420.021 143.88 351.735 68.8918C333.992 88.2048 236.383 205.441 353.725 334.609Z" fill="white" fill-opacity="0.06"/>
</svg>
