<svg width="179" height="34" viewBox="0 0 179 34" fill="none" xmlns="http://www.w3.org/2000/svg">
<g clip-path="url(#clip0_410_46)">
<path d="M7.14648 7.15122V0.127549H9.27842L10.538 4.91781L11.783 0.127549H13.92V7.15122H12.6047L12.5997 1.62224L11.2137 7.15122H9.84608L8.46676 1.62224L8.46174 7.15122H7.14648ZM32.5219 7.15122H30.9888L30.3816 5.55243H27.5628L26.979 7.15122H25.4737L28.2029 0.127549H29.7064L32.5219 7.15122ZM29.9203 4.36558L28.9438 1.76587L27.9951 4.36558H29.9209H29.9203ZM44.1263 0.128106H46.7145C47.2983 0.128106 47.7434 0.172084 48.0493 0.262266C48.4598 0.383067 48.813 0.59906 49.1061 0.909689C49.4007 1.21865 49.623 1.59775 49.7768 2.04755C49.9289 2.49568 50.0057 3.04958 50.0057 3.70702C50.0057 4.28597 49.9339 4.78254 49.7896 5.20116C49.6147 5.71275 49.364 6.12637 49.0386 6.44201C48.793 6.6825 48.461 6.86899 48.0437 7.00259C47.7312 7.10224 47.3139 7.15122 46.7903 7.15122H44.1252V0.127549L44.1263 0.128106ZM45.5497 1.31495V5.96438H46.6048C46.9992 5.96438 47.2839 5.94155 47.4588 5.89757C47.6894 5.84023 47.8794 5.74226 48.0298 5.60476C48.1819 5.46726 48.3044 5.2418 48.3997 4.92783C48.4961 4.61386 48.544 4.1841 48.544 3.64134C48.544 3.09857 48.4966 2.68328 48.3997 2.39214C48.305 2.10099 48.1707 1.87554 47.9991 1.71187C47.8276 1.54988 47.6097 1.4391 47.3446 1.38176C47.1485 1.33778 46.7608 1.31495 46.1847 1.31495H45.5497ZM68.3943 7.15122H66.8612L66.254 5.55243H63.4352L62.8514 7.15122H61.3461L64.0753 0.127549H65.5788L68.3943 7.15122ZM65.7927 4.36558L64.8162 1.76587L63.8675 4.36558H65.7933H65.7927ZM83.2677 4.57155V3.3847H86.3204V6.18705C86.0241 6.47652 85.594 6.72981 85.0297 6.95026C84.4671 7.16959 83.896 7.2787 83.3167 7.2787C82.5819 7.2787 81.9424 7.12506 81.3959 6.8161C80.8511 6.50714 80.4405 6.06402 80.1653 5.49008C79.8907 4.91614 79.7531 4.28987 79.7531 3.61461C79.7531 2.88202 79.9068 2.23126 80.2127 1.66066C80.5202 1.09172 80.9686 0.653615 81.5591 0.349666C82.0109 0.115859 82.5702 6.84022e-05 83.2409 6.84022e-05C84.1128 6.84022e-05 84.7952 0.183217 85.286 0.549515C85.7751 0.917483 86.0909 1.42239 86.2313 2.06982L84.818 2.3348C84.72 1.98965 84.5333 1.71688 84.2604 1.51592C83.9891 1.31662 83.6487 1.21698 83.2393 1.21698C82.6209 1.21698 82.1284 1.41293 81.7636 1.80706C81.3987 2.20119 81.2154 2.7846 81.2154 3.55783C81.2154 4.39341 81.4003 5.01968 81.7702 5.43608C82.1418 5.85304 82.6259 6.06235 83.2264 6.06235C83.5228 6.06235 83.8203 6.00334 84.1183 5.88755C84.4175 5.77176 84.6732 5.62925 84.8871 5.46225V4.571H83.2671L83.2677 4.57155ZM104.813 7.15122H103.28L102.673 5.55243H99.8541L99.2703 7.15122H97.765L100.494 0.127549H101.998L104.813 7.15122ZM102.212 4.36558L101.235 1.76587L100.286 4.36558H102.212H102.212ZM116.045 4.8755L117.429 4.738C117.513 5.20061 117.679 5.53907 117.933 5.75673C118.186 5.9744 118.528 6.08184 118.958 6.08184C119.413 6.08184 119.757 5.98553 119.987 5.79236C120.218 5.59919 120.334 5.37373 120.334 5.11543C120.334 4.94843 120.285 4.80814 120.189 4.69013C120.093 4.57434 119.922 4.47246 119.68 4.38785C119.515 4.32884 119.139 4.22752 118.55 4.08056C117.792 3.89073 117.261 3.65859 116.955 3.38248C116.525 2.99503 116.311 2.5224 116.311 1.96516C116.311 1.60721 116.412 1.27042 116.613 0.958121C116.816 0.645821 117.107 0.408674 117.488 0.245566C117.869 0.0819009 118.328 6.84022e-05 118.868 6.84022e-05C119.746 6.84022e-05 120.409 0.194351 120.852 0.585143C121.297 0.975935 121.529 1.49588 121.552 2.14831L120.129 2.1973C120.068 1.83434 119.939 1.57437 119.741 1.41571C119.543 1.25706 119.245 1.1769 118.849 1.1769C118.44 1.1769 118.119 1.26207 117.889 1.43186C117.74 1.54152 117.665 1.68682 117.665 1.86997C117.665 2.03697 117.735 2.17893 117.876 2.29694C118.054 2.44892 118.488 2.6059 119.177 2.76957C119.865 2.93156 120.375 3.10135 120.703 3.27448C121.034 3.44928 121.292 3.68643 121.479 3.98871C121.665 4.29098 121.758 4.66396 121.758 5.10708C121.758 5.50901 121.647 5.887 121.423 6.23826C121.199 6.58953 120.883 6.85117 120.474 7.02152C120.065 7.19298 119.555 7.27815 118.945 7.27815C118.056 7.27815 117.374 7.07385 116.898 6.66357C116.422 6.25496 116.139 5.6582 116.046 4.87495L116.045 4.8755ZM138.309 4.56153L139.683 4.9835C139.472 5.75673 139.12 6.33067 138.629 6.70643C138.139 7.08108 137.517 7.26868 136.763 7.26868C135.828 7.26868 135.061 6.9497 134.459 6.3123C133.859 5.6749 133.558 4.80313 133.558 3.69645C133.558 2.52741 133.86 1.61835 134.464 0.970924C135.068 0.323502 135.863 -0.000488281 136.848 -0.000488281C137.709 -0.000488281 138.407 0.254473 138.944 0.762725C139.264 1.06333 139.503 1.49532 139.663 2.05924L138.259 2.39269C138.176 2.02974 138.003 1.74193 137.739 1.53095C137.474 1.31996 137.154 1.21531 136.777 1.21531C136.255 1.21531 135.832 1.4018 135.508 1.77589C135.182 2.14887 135.02 2.75342 135.02 3.59068C135.02 4.47692 135.181 5.10931 135.499 5.48563C135.82 5.86306 136.236 6.05122 136.748 6.05122C137.125 6.05122 137.451 5.93209 137.722 5.6916C137.994 5.45111 138.19 5.07535 138.308 4.56042L138.309 4.56153ZM158.08 7.15122H156.547L155.94 5.55243H153.121L152.537 7.15122H151.032L153.761 0.127549H155.265L158.08 7.15122ZM155.479 4.36558L154.502 1.76587L153.553 4.36558H155.479H155.479ZM169.685 7.15122V0.127549H172.674C173.425 0.127549 173.971 0.191568 174.312 0.317378C174.654 0.443188 174.925 0.667532 175.13 0.989295C175.334 1.31328 175.437 1.6807 175.437 2.09598C175.437 2.62427 175.283 3.05904 174.974 3.40252C174.665 3.74599 174.204 3.96143 173.589 4.05161C173.895 4.22975 174.146 4.42626 174.345 4.64003C174.544 4.85435 174.813 5.23512 175.15 5.78123L176.007 7.15122H174.311L173.293 5.61756C172.928 5.07313 172.678 4.72965 172.542 4.5877C172.408 4.44686 172.266 4.34888 172.115 4.29655C171.963 4.24422 171.724 4.21806 171.397 4.21806H171.109V7.15122H169.685H169.685ZM171.108 3.10024H172.158C172.839 3.10024 173.262 3.07073 173.433 3.0134C173.602 2.95606 173.735 2.85641 173.831 2.71557C173.927 2.57473 173.974 2.39826 173.974 2.18728C173.974 1.95013 173.91 1.7603 173.784 1.61334C173.658 1.46804 173.48 1.37619 173.251 1.33889C173.135 1.32275 172.79 1.3144 172.216 1.3144H171.108V3.09968V3.10024Z" fill="#373435"/>
<path d="M12.2986 26.9923L15.8561 28.084C15.3096 30.0858 14.3993 31.571 13.1286 32.5447C11.8579 33.5139 10.2491 34.0004 8.29654 34.0004C5.87827 34.0004 3.8923 33.1754 2.33359 31.5248C0.77935 29.8743 0 27.6186 0 24.7539C0 21.7278 0.78325 19.3752 2.34641 17.699C3.90901 16.0234 5.96741 15.1851 8.51659 15.1851C10.7443 15.1851 12.5526 15.8453 13.9414 17.1613C14.7714 17.9401 15.3898 19.0573 15.8048 20.517L12.171 21.3804C11.9549 20.4407 11.5059 19.6959 10.8246 19.1503C10.1388 18.6042 9.3082 18.3337 8.33443 18.3337C6.98352 18.3337 5.88663 18.8163 5.04823 19.7855C4.20537 20.7502 3.78645 22.3162 3.78645 24.4828C3.78645 26.7763 4.20147 28.4141 5.02706 29.3877C5.85711 30.3653 6.93282 30.8518 8.25811 30.8518C9.23633 30.8518 10.0792 30.5428 10.7822 29.9205C11.4853 29.2987 11.9933 28.325 12.2986 26.9918V26.9923ZM25.4094 33.6959V15.5152H38.8767V18.5875H29.0939V22.6246H38.1904V25.6969H29.0939V30.623H39.2321V33.6953H25.4094V33.6959ZM48.7565 33.6959V15.5152H52.3223L59.8094 27.6987V15.5152H63.2143V33.6959H59.5342L52.1613 21.745V33.6959H48.7565ZM77.5963 33.6959V18.5881H72.2094V15.5157H86.6422V18.5881H81.2809V33.6959H77.5963ZM95.425 33.6959V15.5152H108.892V18.5875H99.1095V22.6246H108.206V25.6969H99.1095V30.623H109.248V33.6953H95.425V33.6959ZM118.874 33.6959V15.6677H122.558V30.6236H131.68V33.6959H118.874ZM140.793 33.6959V15.6677H144.478V30.6236H153.6V33.6959H140.793ZM179 33.6959H175.032L173.461 29.557H166.165L164.653 33.6959H160.757L167.821 15.5152H171.712L179 33.6959ZM172.267 26.4846L169.739 19.756L167.283 26.4846H172.268H172.267Z" fill="#373435"/>
</g>
<defs>
<clipPath id="clip0_410_46">
<rect width="179" height="34" fill="white"/>
</clipPath>
</defs>
</svg>
