<svg width="40" height="40" viewBox="0 0 40 40" fill="none" xmlns="http://www.w3.org/2000/svg">
<g clip-path="url(#clip0_2427_445)">
<path d="M28.8022 26.2665L22.5656 29.8989C22.3271 30.0379 22.0853 30.1448 21.8361 30.2205C21.9151 30.0611 21.9779 29.8942 22.0235 29.7222C22.3548 28.4852 21.6211 27.1941 20.353 26.783C20.3254 26.7741 20.2972 26.767 20.2686 26.7618C18.484 26.44 16.7191 25.8019 15.301 25.2892C14.8062 25.1104 14.3389 24.9414 13.9408 24.8123C12.3097 24.2832 10.844 24.9333 9.62501 25.6389L5.06539 28.2788L4.67363 27.5865C4.24895 26.8364 3.29308 26.5715 2.54301 26.996L0.793278 27.9863C0.0430468 28.4108 -0.221949 29.3666 0.202722 30.1169L5.34708 39.2068C5.55232 39.5693 5.88724 39.8305 6.29038 39.9423C6.42981 39.9809 6.57126 40 6.71198 40C6.97803 40 7.24061 39.9315 7.4777 39.7973L9.22751 38.807C9.97774 38.3823 10.2427 37.4265 9.81799 36.6764L9.33243 35.8184L10.2784 35.2723L18.2293 37.4027C18.6781 37.523 19.1246 37.5827 19.5638 37.5827C20.4523 37.5827 21.3106 37.338 22.0954 36.855L33.4131 29.886C34.4853 29.2258 34.8272 27.5653 34.1305 26.402C33.7931 25.8387 32.4115 24.1644 28.8022 26.2665ZM8.59196 37.6841L6.84214 38.6745C6.71352 38.7473 6.54295 38.7002 6.46997 38.5713L1.32569 29.4815C1.25279 29.3527 1.29996 29.1823 1.42875 29.1093L3.17857 28.119C3.21878 28.0964 3.26418 28.0846 3.31034 28.0847C3.40639 28.0847 3.50114 28.1346 3.55074 28.2223L8.6951 37.3121C8.768 37.4407 8.72083 37.6112 8.59196 37.6841ZM32.7366 28.7873L21.419 35.7563C20.5436 36.2951 19.5828 36.4296 18.5633 36.1563L10.3543 33.9567C10.2724 33.9348 10.1871 33.9292 10.1031 33.9402C10.0191 33.9513 9.93813 33.9788 9.86476 34.0211L8.69696 34.6953L5.70111 29.4018L10.2718 26.7555C11.2935 26.1639 12.3972 25.6679 13.5429 26.0396C13.9208 26.1621 14.3571 26.3199 14.8624 26.5025C16.3139 27.0273 18.1175 27.6793 19.9923 28.0229C20.594 28.2365 20.9303 28.8169 20.7772 29.3882C20.5755 30.1408 19.9427 30.2342 19.4379 30.1769C18.5248 29.9889 17.6553 29.7407 16.7353 29.4781C16.2968 29.3528 15.8435 29.2234 15.3773 29.0984C15.212 29.0541 15.0359 29.0773 14.8877 29.1628C14.7395 29.2484 14.6314 29.3893 14.5871 29.5546C14.5428 29.7199 14.566 29.896 14.6516 30.0441C14.7371 30.1923 14.878 30.3005 15.0433 30.3447C15.4994 30.4669 15.9476 30.5949 16.381 30.7187C17.3346 30.991 18.2353 31.2483 19.2069 31.4469C19.2111 31.4478 19.2152 31.448 19.2194 31.4488C19.2238 31.4496 19.2281 31.4509 19.2325 31.4517L20.0082 31.5777C21.1903 31.7667 22.239 31.5823 23.2151 31.0138L29.4516 27.3814C31.1978 26.3645 32.5331 26.246 33.0235 27.0649C33.3585 27.6244 33.2137 28.4936 32.7366 28.7873ZM3.64106 29.7947C3.65321 29.876 3.64919 29.9589 3.62923 30.0386C3.60928 30.1184 3.57378 30.1934 3.52477 30.2594C3.47576 30.3254 3.41421 30.3811 3.34364 30.4233C3.27307 30.4654 3.19488 30.4933 3.11353 30.5052C3.03219 30.517 2.94929 30.5128 2.86961 30.4926C2.78992 30.4724 2.715 30.4366 2.64915 30.3874C2.58331 30.3382 2.52782 30.2765 2.48587 30.2058C2.44392 30.1351 2.41634 30.0568 2.40471 29.9754C2.38131 29.8117 2.42375 29.6454 2.52274 29.513C2.62173 29.3805 2.76919 29.2927 2.93281 29.2688C3.09642 29.2449 3.26284 29.2868 3.3956 29.3854C3.52836 29.4839 3.61663 29.6311 3.64106 29.7947ZM17.8523 8.69851C17.5491 8.6979 17.2536 8.7936 17.0083 8.9718C16.7631 9.15001 16.5808 9.4015 16.4877 9.69003C16.3932 9.97863 16.393 10.2898 16.4871 10.5785C16.5812 10.8672 16.7647 11.1185 17.0111 11.2961L19.4674 13.0734C19.5233 13.1139 19.5416 13.1701 19.52 13.2357L18.5775 16.1175C18.4825 16.4059 18.4818 16.7171 18.5754 17.0059C18.669 17.2948 18.852 17.5464 19.098 17.7243C19.343 17.9029 19.6383 17.9992 19.9415 17.9993C20.2379 17.9993 20.5344 17.9071 20.7871 17.7227L23.2366 15.9359C23.2924 15.8952 23.3514 15.8953 23.4071 15.9359L25.8565 17.7227C26.1014 17.9022 26.3972 17.9991 26.7008 17.9994C27.0045 17.9996 27.3004 17.9033 27.5457 17.7243C27.7917 17.5462 27.9747 17.2946 28.0682 17.0058C28.1617 16.7169 28.161 16.4058 28.066 16.1174L27.1235 13.2357C27.1021 13.1701 27.1203 13.114 27.1762 13.0735L29.6325 11.2961C29.8789 11.1186 30.0624 10.8673 30.1565 10.5786C30.2506 10.2899 30.2505 9.97872 30.156 9.69011C30.0629 9.40158 29.8806 9.15009 29.6353 8.97189C29.39 8.79368 29.0945 8.69798 28.7913 8.69859H28.7885L25.7566 8.70439H25.7561C25.6873 8.70439 25.6399 8.6698 25.6187 8.60415L24.6872 5.71887C24.5945 5.42968 24.4122 5.17748 24.1667 4.99876C23.9212 4.82003 23.6252 4.72405 23.3215 4.72469C23.0179 4.72413 22.7219 4.82015 22.4764 4.99887C22.231 5.17758 22.0487 5.42974 21.956 5.71887L21.0247 8.60415C21.0034 8.66972 20.9558 8.70439 20.887 8.70439H20.8866L17.8547 8.69859L17.8523 8.69851ZM20.8873 9.9947C21.5123 9.9947 22.0608 9.59551 22.253 9.0006L23.1843 6.11532C23.2055 6.04975 23.2532 6.015 23.322 6.015C23.3909 6.015 23.4384 6.04959 23.4597 6.11516L24.3911 9.00044C24.4837 9.28968 24.6659 9.54196 24.9114 9.72073C25.1569 9.8995 25.4529 9.99548 25.7566 9.99478H25.7595L28.7914 9.98897H28.7918C28.8605 9.98897 28.908 10.0236 28.9293 10.089C28.9505 10.1545 28.9323 10.2104 28.8765 10.2508L26.4203 12.0282C26.1735 12.2059 25.9897 12.4577 25.8957 12.747C25.8017 13.0363 25.8023 13.348 25.8976 13.6369L26.84 16.5184C26.8615 16.584 26.8433 16.64 26.7877 16.6805C26.732 16.7211 26.673 16.7208 26.6173 16.6803L24.1679 14.8936C23.9226 14.7138 23.6264 14.6169 23.3222 14.6169C23.0181 14.6169 22.7218 14.7138 22.4765 14.8936L20.027 16.6804C19.9715 16.7211 19.9124 16.721 19.8567 16.6805C19.8011 16.64 19.7828 16.584 19.8043 16.5186L20.7468 13.6369C20.842 13.348 20.8426 13.0364 20.7487 12.7471C20.6547 12.4578 20.471 12.2061 20.2242 12.0283L17.768 10.2508C17.7122 10.2105 17.6938 10.1545 17.7152 10.0888C17.7365 10.0234 17.784 9.98889 17.8526 9.98889H17.853L20.8849 9.9947H20.8873ZM22.6768 3.00738V0.645152C22.6768 0.474047 22.7447 0.30995 22.8657 0.188961C22.9867 0.0679712 23.1508 0 23.3219 0C23.493 0 23.6571 0.0679712 23.7781 0.188961C23.8991 0.30995 23.9671 0.474047 23.9671 0.645152V3.00738C23.9671 3.17848 23.8991 3.34258 23.7781 3.46357C23.6571 3.58456 23.493 3.65253 23.3219 3.65253C23.1508 3.65253 22.9867 3.58456 22.8657 3.46357C22.7447 3.34258 22.6768 3.17848 22.6768 3.00738ZM28.7739 5.9108C28.653 5.78982 28.585 5.62573 28.585 5.45464C28.585 5.28355 28.653 5.11947 28.7739 4.99848L30.4443 3.3281C30.5041 3.26759 30.5752 3.2195 30.6537 3.18659C30.7321 3.15368 30.8162 3.1366 30.9013 3.13634C30.9863 3.13608 31.0706 3.15264 31.1492 3.18506C31.2279 3.21749 31.2993 3.26514 31.3595 3.32528C31.4196 3.38542 31.4673 3.45686 31.4997 3.53548C31.5321 3.61411 31.5487 3.69837 31.5484 3.78342C31.5482 3.86847 31.5311 3.95264 31.4982 4.03107C31.4653 4.1095 31.4172 4.18065 31.3567 4.24042L29.6863 5.9108C29.6265 5.9708 29.5554 6.01837 29.4771 6.0508C29.3988 6.08323 29.3149 6.09986 29.2301 6.09975C29.1454 6.09989 29.0615 6.08326 28.9832 6.05084C28.9049 6.01841 28.8338 5.97082 28.7739 5.9108ZM15.2873 4.2405C15.2268 4.18073 15.1787 4.10958 15.1458 4.03115C15.1129 3.95272 15.0958 3.86855 15.0956 3.7835C15.0953 3.69845 15.1119 3.61419 15.1443 3.53556C15.1767 3.45694 15.2244 3.3855 15.2845 3.32536C15.3447 3.26522 15.4161 3.21757 15.4947 3.18514C15.5734 3.15272 15.6576 3.13616 15.7427 3.13642C15.8277 3.13668 15.9119 3.15376 15.9903 3.18667C16.0688 3.21958 16.1399 3.26767 16.1997 3.32818L17.8701 4.99856C17.9306 5.05834 17.9786 5.12949 18.0115 5.20792C18.0444 5.28635 18.0615 5.37051 18.0618 5.45556C18.062 5.54061 18.0455 5.62488 18.013 5.7035C17.9806 5.78213 17.9329 5.85356 17.8728 5.9137C17.8126 5.97384 17.7412 6.02149 17.6626 6.05392C17.5839 6.08634 17.4997 6.1029 17.4146 6.10264C17.3296 6.10238 17.2454 6.0853 17.167 6.05239C17.0886 6.01948 17.0174 5.97139 16.9576 5.91088L15.2873 4.2405ZM39.9373 15.576C39.8559 15.3234 39.6963 15.1031 39.4816 14.9471C39.2669 14.7911 39.0082 14.7072 38.7427 14.7078H38.7401L36.4184 14.7122L35.7053 12.5028C35.6241 12.2496 35.4645 12.0288 35.2496 11.8723C35.0346 11.7159 34.7754 11.6318 34.5096 11.6324C34.2437 11.6319 33.9846 11.7159 33.7697 11.8724C33.5548 12.0289 33.3952 12.2497 33.314 12.5028L32.6008 14.7122L30.2792 14.7078H30.2766C30.0112 14.7073 29.7525 14.7911 29.5377 14.9471C29.323 15.1032 29.1634 15.3234 29.0819 15.576C28.9993 15.8287 28.9991 16.1011 29.0815 16.3538C29.1639 16.6066 29.3246 16.8266 29.5403 16.982L31.4212 18.343L30.6995 20.5496C30.6164 20.8021 30.6157 21.0746 30.6976 21.3275C30.7795 21.5805 30.9397 21.8008 31.1551 21.9566C31.3696 22.113 31.6282 22.1973 31.8936 22.1974C32.1532 22.1974 32.4128 22.1167 32.6341 21.9553L34.5097 20.587L36.3854 21.9553C36.5999 22.1124 36.8588 22.1972 37.1247 22.1975C37.3905 22.1977 37.6496 22.1134 37.8644 21.9566C38.0797 21.8008 38.2399 21.5805 38.3218 21.3275C38.4037 21.0746 38.4031 20.8022 38.3199 20.5497L37.5983 18.3431L39.4791 16.9821C39.6948 16.8267 39.8554 16.6066 39.9378 16.3539C40.0202 16.1011 40.02 15.8287 39.9373 15.576ZM36.8218 17.3122C36.6056 17.4677 36.4447 17.6882 36.3624 17.9415C36.2801 18.1948 36.2807 18.4677 36.3641 18.7206L37.0607 20.8509L35.25 19.53C35.0353 19.3726 34.7759 19.2877 34.5096 19.2877C34.2433 19.2877 33.984 19.3726 33.7692 19.53L31.9585 20.8509L32.6552 18.7205C32.7385 18.4676 32.7391 18.1948 32.6568 17.9415C32.5745 17.6883 32.4136 17.4679 32.1975 17.3123L30.3816 15.9983L32.623 16.0026H32.6254C33.1725 16.0026 33.6528 15.6531 33.821 15.1322L34.5096 12.9993L35.198 15.1323C35.2792 15.3855 35.4387 15.6063 35.6537 15.7628C35.8686 15.9192 36.1278 16.0033 36.3937 16.0027H36.3961L38.6374 15.9984L36.8218 17.3122ZM7.12504 16.982L9.0059 18.343L8.2843 20.5496C8.20112 20.8021 8.20042 21.0746 8.28232 21.3275C8.36421 21.5805 8.52446 21.8008 8.73986 21.9566C8.95434 22.1131 9.21293 22.1974 9.4784 22.1975C9.73799 22.1975 9.9975 22.1168 10.2188 21.9553L12.0945 20.587L13.9702 21.9553C14.1847 22.1124 14.4436 22.1972 14.7094 22.1975C14.9753 22.1977 15.2344 22.1134 15.4491 21.9566C15.6645 21.8008 15.8247 21.5805 15.9066 21.3275C15.9885 21.0746 15.9878 20.8022 15.9047 20.5497L15.1831 18.3431L17.0639 16.9821C17.2796 16.8267 17.4403 16.6066 17.5227 16.3539C17.6051 16.1011 17.605 15.8286 17.5223 15.5759C17.4408 15.3233 17.2812 15.1032 17.0665 14.9472C16.8518 14.7912 16.5931 14.7074 16.3277 14.7079H16.325L14.0033 14.7123L13.2902 12.5029C13.209 12.2497 13.0494 12.0289 12.8345 11.8724C12.6195 11.716 12.3604 11.6319 12.0945 11.6325C11.8286 11.632 11.5695 11.716 11.3546 11.8725C11.1397 12.029 10.9801 12.2497 10.8989 12.5029L10.1857 14.7123L7.86423 14.7079H7.86165C7.5962 14.7073 7.33744 14.7911 7.1227 14.9472C6.90796 15.1032 6.74832 15.3234 6.66682 15.5761C6.58412 15.8287 6.58395 16.1011 6.66632 16.3539C6.7487 16.6066 6.90935 16.8266 7.12504 16.982ZM10.2078 16.0026H10.2102C10.4761 16.0032 10.7353 15.9192 10.9503 15.7627C11.1652 15.6063 11.3248 15.3854 11.4059 15.1322L12.0944 12.9993L12.7829 15.1323C12.864 15.3855 13.0236 15.6063 13.2385 15.7628C13.4535 15.9192 13.7126 16.0033 13.9785 16.0027H13.9809L16.2223 15.9984L14.4064 17.3123C14.1903 17.4679 14.0294 17.6884 13.9471 17.9416C13.8648 18.1949 13.8654 18.4678 13.9488 18.7207L14.6455 20.851L12.8348 19.5301C12.6134 19.3686 12.3538 19.2878 12.0943 19.2878C11.8348 19.2878 11.5753 19.3686 11.3539 19.5301L9.54315 20.851L10.2398 18.7207C10.3232 18.4678 10.3237 18.1949 10.2414 17.9417C10.1591 17.6884 9.99827 17.468 9.78218 17.3124L7.96632 15.9985L10.2078 16.0026Z" fill="url(#paint0_linear_2427_445)"/>
</g>
<defs>
<linearGradient id="paint0_linear_2427_445" x1="0.000183105" y1="0" x2="43.532" y2="4.30859" gradientUnits="userSpaceOnUse">
<stop stop-color="#7E4BA4"/>
<stop offset="1" stop-color="#301C3E"/>
</linearGradient>
<clipPath id="clip0_2427_445">
<rect width="40" height="40" fill="white"/>
</clipPath>
</defs>
</svg>
