<svg width="40" height="40" viewBox="0 0 40 40" fill="none" xmlns="http://www.w3.org/2000/svg">
<path d="M9.24732 6C4.14773 6 0 10.2 0 15.3621C0 20.5243 4.14773 24.7243 9.24732 24.7243H15.3318V32.429C15.3318 32.8457 15.4937 33.2453 15.7818 33.5399C16.07 33.8345 16.4608 34 16.8683 34C17.2758 34 17.6666 33.8345 17.9547 33.5399C18.2429 33.2453 18.4047 32.8457 18.4047 32.429V15.3621C18.4047 10.1992 14.297 6 9.24732 6ZM30.7488 6C25.7007 6 21.5929 10.2 21.5929 15.3621C21.5929 20.5243 25.7007 24.7243 30.7488 24.7243H36.927V32.429C36.927 32.8457 37.0889 33.2453 37.3771 33.5399C37.6652 33.8345 38.056 34 38.4635 34C38.871 34 39.2618 33.8345 39.55 33.5399C39.8381 33.2453 40 32.8457 40 32.429V15.3621C40 10.1992 35.8492 6 30.7488 6Z" fill="url(#paint0_linear_2427_361)"/>
<defs>
<linearGradient id="paint0_linear_2427_361" x1="0" y1="6" x2="43.0975" y2="12.0938" gradientUnits="userSpaceOnUse">
<stop stop-color="#7E4BA4"/>
<stop offset="1" stop-color="#301C3E"/>
</linearGradient>
</defs>
</svg>
