<svg width="164" height="64" viewBox="0 0 164 64" fill="none" xmlns="http://www.w3.org/2000/svg">
<g clip-path="url(#clip0_2198_1116)">
<path d="M27.4686 13.2282C27.0261 8.53529 24.9903 3.95967 21.3612 0.351974C21.2432 0.234651 21.1252 0.117324 20.9776 0C16.8765 4.07699 14.8112 9.44455 14.7817 14.8121C10.9756 11.1164 5.75337 8.8286 0 8.8286C0 9.00459 0 9.18057 0 9.32723C0 20.5023 8.76281 29.6535 19.8565 30.3281C20.24 21.7342 23.6625 16.4546 27.4686 13.2282Z" fill="white"/>
<path d="M22.6004 30.2986C33.3105 29.5947 41.8373 21.0007 42.3389 10.2949C39.5655 10.4122 23.4855 11.8788 22.6004 30.2986Z" fill="white"/>
<path d="M22.5415 33.2021C22.335 38.5697 20.8007 45.7851 14.8408 50.7714C15.3424 55.4643 17.3782 60.0399 21.0073 63.6476C21.1253 63.765 21.2728 63.8823 21.3908 63.9996C25.5804 59.8346 27.6753 54.4084 27.6753 48.9528C31.5403 52.7072 36.8511 55.0537 42.693 55.0537C42.693 54.8777 42.693 54.7017 42.693 54.5257C42.7225 43.1747 33.7827 33.8768 22.5415 33.2021Z" fill="white"/>
<path d="M19.8269 32.6455C8.76276 33.3494 0.029438 42.4713 0.029438 53.6464C15.9028 51.8866 19.6204 41.4741 19.8269 32.6455Z" fill="white"/>
<path d="M60.013 35.928C60.013 39.2247 56.6253 40.5787 53.326 40.5787C50.6453 40.6375 48.053 39.519 46.2266 37.5175L48.0824 35.5454C48.4065 38.1356 50.6453 40.0783 53.2965 40.0194C55.771 40.0194 57.5974 39.2541 57.5974 37.1643C57.5974 35.1333 55.0051 34.0737 52.2066 33.1612C48.4949 31.9544 46.6979 30.8653 46.6979 27.9513C46.6979 24.5369 49.7321 23.0357 53.1198 23.0357C55.6237 22.9769 58.0393 23.9482 59.7184 25.8026L58.0393 27.5981C58.0393 26.8916 57.5091 23.595 53.0903 23.595C51.4112 23.595 48.9956 24.272 48.9956 26.4207C48.9956 29.0698 52.6779 29.9823 54.8578 30.7181C58.5401 31.9544 60.013 33.1906 60.013 35.928Z" fill="white"/>
<path d="M78.3651 39.843V40.1962H73.3277V39.843C74.2115 39.843 74.2115 38.8128 74.2115 38.8128V26.8035C74.2115 25.3024 72.9742 23.6541 70.7943 23.6541C67.9074 23.6541 66.1399 26.4209 66.1399 27.8926V38.8128C66.1399 38.8128 66.1399 39.843 67.0237 39.843V40.1962H61.9863V39.843C62.8995 39.843 62.8995 38.8128 62.8995 38.8128V16.9136C62.8995 16.9136 62.8995 15.9422 61.9863 15.9422V15.5596H65.4329C65.8159 15.5596 66.1399 15.8833 66.1399 16.266V26.0382C67.1121 24.0956 69.1152 22.9476 71.2657 23.0359C74.4471 23.0359 77.4519 24.8903 77.4519 28.4519V38.8128C77.4519 38.8128 77.4519 39.843 78.3651 39.843Z" fill="white"/>
<path d="M95.245 39.8432V40.1964H91.7984C91.4154 40.1964 91.0914 39.8726 91.0914 39.49V37.0764C90.0309 39.8432 87.9394 40.5791 86.2308 40.5791C85.8478 40.5791 80.1035 40.9617 80.1035 36.4583C80.1035 33.5148 82.578 32.2491 87.4975 30.071C90.0014 28.9819 91.0619 28.4815 91.0619 27.157V26.8037C91.0619 25.3026 89.7952 23.5954 87.3796 23.5954C84.5517 23.5954 83.3144 25.7147 83.3144 28.0694L80.6926 27.157C81.1934 25.7441 82.9904 23.0361 87.851 23.0361C92.5937 23.0361 94.2729 25.9796 94.2729 28.3932V38.8424C94.3318 38.813 94.3318 39.8432 95.245 39.8432ZM91.0914 28.6581C90.5906 29.1879 89.6185 29.6294 87.9099 30.483C84.0803 32.3374 83.5795 35.428 83.5795 36.6349C83.5795 37.7828 84.0214 40.0198 86.6137 40.0198C90.1782 40.0198 91.0619 35.9284 91.0914 34.9865V28.6581Z" fill="white"/>
<path d="M101.726 24.0954V43.9636C101.726 43.9636 101.755 48.4376 96.6 48.4376C95.6868 48.4671 94.8325 48.2316 94.0371 47.7606L94.3611 47.3486C94.8619 47.6724 95.4216 47.8489 95.9813 47.8489C98.2202 47.8489 98.4853 45.4648 98.4853 44.7289V24.8018C98.4853 24.8018 98.4853 23.8304 97.5721 23.8304V23.3889H101.019C101.431 23.3889 101.726 23.7127 101.726 24.0954ZM97.8961 18.856C97.8961 17.6198 98.8682 16.6484 100.105 16.6484C100.695 16.6484 101.254 16.8545 101.667 17.2666C102.285 17.8847 102.492 18.856 102.168 19.6802C101.814 20.4749 101.019 21.0636 100.105 21.0636C98.8977 21.0636 97.8961 20.0923 97.8961 18.856Z" fill="white"/>
<path d="M109.974 39.8429V40.1961H104.937V39.8429C105.85 39.8429 105.85 38.8127 105.85 38.8127V16.9134C105.85 16.9134 105.85 15.9421 104.937 15.9421V15.5889H108.383C108.56 15.5889 108.737 15.6477 108.884 15.7655C109.002 15.9126 109.09 16.0892 109.09 16.2659V38.8421C109.12 38.8126 109.12 39.8429 109.974 39.8429Z" fill="white"/>
<path d="M127.236 39.8432V40.1964H123.79C123.407 40.1964 123.083 39.8726 123.083 39.49V37.0764C122.022 39.8432 119.931 40.5791 118.222 40.5791C117.839 40.5791 112.095 40.9617 112.095 36.4583C112.095 33.5148 114.569 32.2491 119.489 30.071C121.993 28.9819 123.053 28.4815 123.053 27.157V26.8037C123.053 25.3026 121.786 23.5954 119.371 23.5954C116.543 23.5954 115.306 25.7147 115.306 28.0694L112.684 27.157C113.185 25.7441 114.982 23.0361 119.842 23.0361C124.585 23.0361 126.264 25.9796 126.264 28.3932V38.8424C126.323 38.813 126.323 39.8432 127.236 39.8432ZM123.083 28.6581C122.582 29.1879 121.61 29.6294 119.901 30.483C116.072 32.3374 115.571 35.428 115.571 36.6349C115.571 37.7828 116.013 40.0198 118.605 40.0198C122.169 40.0198 123.053 35.9284 123.083 34.9865V28.6581Z" fill="white"/>
<path d="M145.913 39.8431V40.1963H140.876V39.8431C141.759 39.8431 141.759 38.8129 141.759 38.8129V26.8036C141.759 25.3024 140.522 23.6541 138.342 23.6541C135.455 23.6541 133.688 26.421 133.688 27.8927V38.8129C133.688 38.8129 133.688 39.8431 134.572 39.8431V40.1963H129.534V39.8431C130.447 39.8431 130.447 38.8129 130.447 38.8129V24.7432C130.447 24.7432 130.447 23.7719 129.534 23.7719V23.3892H132.981C133.364 23.3892 133.688 23.713 133.688 24.0957V26.0383C134.66 24.0956 136.663 22.9477 138.814 23.036C141.995 23.036 145 24.8904 145 28.4519V38.8129C145 38.8129 145 39.8431 145.913 39.8431Z" fill="white"/>
<path d="M162.645 35.9579L163.205 36.105C163.205 36.105 161.909 40.5791 155.811 40.5791C150.008 40.5791 147.681 36.6349 147.681 31.7782C147.681 26.9509 150.008 23.0361 155.811 23.0361C163.087 23.0361 164 28.9819 164 31.425H151.127C151.127 31.6016 151.127 31.7487 151.127 31.7782C151.127 36.3111 152.983 40.2553 157.431 39.8138C159.758 39.6666 161.82 38.136 162.645 35.9579ZM151.127 30.8657H160.495V30.8363C160.171 25.8913 158.433 23.5954 155.811 23.5954C152.895 23.5954 151.333 26.8038 151.127 30.8657Z" fill="white"/>
</g>
<defs>
<clipPath id="clip0_2198_1116">
<rect width="164" height="64" fill="white"/>
</clipPath>
</defs>
</svg>
