<svg width="122" height="48" viewBox="0 0 122 48" fill="none" xmlns="http://www.w3.org/2000/svg">
<g clip-path="url(#clip0_2198_1022)">
<path d="M20.3502 9.80019C20.0224 6.3234 18.5141 2.93354 15.8255 0.260761C15.7381 0.173842 15.6507 0.0869196 15.5414 0C12.503 3.02046 10.9729 6.99703 10.9511 10.9736C8.13134 8.23563 4.2624 6.5407 0 6.5407C0 6.67108 0 6.80146 0 6.91011C0 15.1892 6.49196 21.9689 14.7107 22.4687C14.9949 16.1019 17.5305 12.1905 20.3502 9.80019Z" fill="#7F4CA5"/>
<path d="M16.7432 22.447C24.6778 21.9255 30.9949 15.5586 31.3665 7.6272C29.3118 7.71412 17.3989 8.80061 16.7432 22.447Z" fill="#7F4CA5"/>
<path d="M16.7002 24.5981C16.5472 28.5747 15.4105 33.9203 10.9951 37.6144C11.3667 41.0911 12.875 44.481 15.5635 47.1538C15.651 47.2407 15.7603 47.3276 15.8477 47.4145C18.9516 44.3289 20.5036 40.3089 20.5036 36.2671C23.367 39.0485 27.3015 40.7869 31.6295 40.7869C31.6295 40.6565 31.6295 40.5262 31.6295 40.3958C31.6514 31.9863 25.0283 25.0979 16.7002 24.5981Z" fill="#7F4CA5"/>
<path d="M14.6885 24.1853C6.4916 24.7068 0.0214844 31.4648 0.0214844 39.7439C11.7813 38.4401 14.5355 30.726 14.6885 24.1853Z" fill="#7F4CA5"/>
<path d="M44.4608 26.6176C44.4608 29.0599 41.951 30.063 39.5067 30.063C37.5207 30.1066 35.6002 29.278 34.2471 27.7951L35.622 26.3341C35.8621 28.2531 37.5207 29.6923 39.4849 29.6487C41.3181 29.6487 42.6712 29.0817 42.6712 27.5335C42.6712 26.0288 40.7507 25.2438 38.6774 24.5678C35.9276 23.6737 34.5963 22.8668 34.5963 20.708C34.5963 18.1784 36.8442 17.0663 39.354 17.0663C41.209 17.0227 42.9986 17.7423 44.2426 19.1161L42.9986 20.4463C42.9986 19.9229 42.6058 17.4806 39.3321 17.4806C38.0882 17.4806 36.2986 17.9822 36.2986 19.574C36.2986 21.5366 39.0266 22.2126 40.6416 22.7578C43.3696 23.6737 44.4608 24.5896 44.4608 26.6176Z" fill="#7F4CA5"/>
<path d="M58.057 29.5179V29.7795H54.325V29.5179C54.9797 29.5179 54.9797 28.7546 54.9797 28.7546V19.8575C54.9797 18.7454 54.0631 17.5242 52.4481 17.5242C50.3094 17.5242 48.9999 19.574 48.9999 20.6644V28.7546C48.9999 28.7546 48.9999 29.5179 49.6546 29.5179V29.7795H45.9227V29.5179C46.5992 29.5179 46.5993 28.7546 46.5993 28.7546V12.5305C46.5993 12.5305 46.5992 11.8109 45.9227 11.8109V11.5274H48.4761C48.7598 11.5274 48.9999 11.7673 48.9999 12.0508V19.2906C49.7201 17.8513 51.2042 17.0009 52.7973 17.0663C55.1543 17.0663 57.3804 18.4401 57.3804 21.0787V28.7546C57.3804 28.7546 57.3804 29.5179 58.057 29.5179Z" fill="#7F4CA5"/>
<path d="M70.5625 29.5179V29.7795H68.0091C67.7254 29.7795 67.4853 29.5397 67.4853 29.2562V27.468C66.6996 29.5179 65.1501 30.063 63.8843 30.063C63.6006 30.063 59.3449 30.3465 59.3449 27.0101C59.3449 24.8294 61.1781 23.8918 64.8228 22.2781C66.6778 21.4712 67.4635 21.1005 67.4635 20.1192V19.8575C67.4635 18.7454 66.525 17.4806 64.7354 17.4806C62.6403 17.4806 61.7237 19.0507 61.7237 20.7952L59.7814 20.1192C60.1524 19.0725 61.4837 17.0663 65.0846 17.0663C68.5983 17.0663 69.8423 19.2469 69.8423 21.0351V28.7764C69.886 28.7546 69.886 29.5179 70.5625 29.5179ZM67.4853 21.2313C67.1143 21.6239 66.3941 21.951 65.1283 22.5833C62.2911 23.9572 61.9201 26.2469 61.9201 27.1409C61.9201 27.9914 62.2475 29.6487 64.168 29.6487C66.8088 29.6487 67.4635 26.6176 67.4853 25.9198V21.2313Z" fill="#7F4CA5"/>
<path d="M75.3641 17.8514V32.5709C75.3641 32.5709 75.386 35.8854 71.5667 35.8854C70.8902 35.9073 70.2573 35.7328 69.668 35.3839L69.9081 35.0786C70.2791 35.3185 70.6938 35.4493 71.1084 35.4493C72.7671 35.4493 72.9635 33.683 72.9635 33.1378V18.3747C72.9635 18.3747 72.9635 17.6551 72.2869 17.6551V17.328H74.8404C75.1459 17.328 75.3641 17.5679 75.3641 17.8514ZM72.527 13.9698C72.527 13.0539 73.2472 12.3343 74.1638 12.3343C74.6003 12.3343 75.0149 12.487 75.3205 12.7922C75.7788 13.2502 75.9316 13.9698 75.6915 14.5804C75.4296 15.1692 74.8404 15.6053 74.1638 15.6053C73.269 15.6053 72.527 14.8857 72.527 13.9698Z" fill="#7F4CA5"/>
<path d="M81.4742 29.5178V29.7795H77.7422V29.5178C78.4188 29.5178 78.4188 28.7546 78.4188 28.7546V12.5304C78.4188 12.5304 78.4188 11.8108 77.7422 11.8108V11.5491H80.2957C80.4266 11.5491 80.5576 11.5928 80.6667 11.68C80.754 11.789 80.8195 11.9199 80.8195 12.0507V28.7764C80.8413 28.7546 80.8413 29.5178 81.4742 29.5178Z" fill="#7F4CA5"/>
<path d="M94.2634 29.5178V29.7795H91.71C91.4263 29.7795 91.1862 29.5396 91.1862 29.2562V27.468C90.4005 29.5178 88.851 30.063 87.5852 30.063C87.3015 30.063 83.0457 30.3465 83.0457 27.0101C83.0457 24.8294 84.879 23.8917 88.5236 22.278C90.3787 21.4712 91.1644 21.1005 91.1644 20.1192V19.8575C91.1644 18.7454 90.2259 17.4806 88.4363 17.4806C86.3412 17.4806 85.4246 19.0507 85.4246 20.7952L83.4822 20.1192C83.8532 19.0725 85.1845 17.0663 88.7855 17.0663C92.2992 17.0663 93.5432 19.2469 93.5432 21.0351V28.7764C93.5869 28.7546 93.5868 29.5178 94.2634 29.5178ZM91.1862 21.2313C90.8152 21.6238 90.095 21.9509 88.8292 22.5833C85.992 23.9571 85.621 26.2468 85.621 27.1409C85.621 27.9914 85.9484 29.6487 87.8689 29.6487C90.5096 29.6487 91.1644 26.6176 91.1862 25.9197V21.2313Z" fill="#7F4CA5"/>
<path d="M108.1 29.5179V29.7795H104.368V29.5179C105.023 29.5179 105.023 28.7546 105.023 28.7546V19.8575C105.023 18.7454 104.106 17.5242 102.491 17.5242C100.352 17.5242 99.043 19.574 99.043 20.6644V28.7546C99.043 28.7546 99.043 29.5179 99.6977 29.5179V29.7795H95.9658V29.5179C96.6423 29.5179 96.6423 28.7546 96.6423 28.7546V18.3311C96.6423 18.3311 96.6423 17.6114 95.9658 17.6114V17.328H98.5192C98.8029 17.328 99.043 17.5678 99.043 17.8513V19.2906C99.7632 17.8513 101.247 17.0009 102.84 17.0663C105.197 17.0663 107.423 18.4401 107.423 21.0787V28.7546C107.423 28.7546 107.423 29.5179 108.1 29.5179Z" fill="#7F4CA5"/>
<path d="M120.496 26.6393L120.911 26.7484C120.911 26.7484 119.95 30.063 115.433 30.063C111.133 30.063 109.409 27.1409 109.409 23.5428C109.409 19.9665 111.133 17.0662 115.433 17.0662C120.823 17.0662 121.5 21.4712 121.5 23.2811H111.963C111.963 23.412 111.963 23.521 111.963 23.5428C111.963 26.901 113.338 29.8231 116.633 29.496C118.357 29.387 119.885 28.253 120.496 26.6393ZM111.963 22.8668H118.903V22.845C118.663 19.1815 117.375 17.4806 115.433 17.4806C113.272 17.4806 112.115 19.8575 111.963 22.8668Z" fill="#7F4CA5"/>
</g>
<defs>
<clipPath id="clip0_2198_1022">
<rect width="121.5" height="47.4146" fill="white"/>
</clipPath>
</defs>
</svg>
