<svg width="32" height="32" viewBox="0 0 32 32" fill="none" xmlns="http://www.w3.org/2000/svg">
<g clip-path="url(#clip0_2427_257)">
<path d="M29.8433 13.823C29.346 13.8223 28.8637 13.9926 28.4771 14.3053C28.0905 14.6181 27.8233 15.0542 27.7201 15.5406H24.8144C24.7089 13.5096 23.9009 11.5784 22.5286 10.0774L24.5889 8.02077C25.0325 8.31444 25.5691 8.43372 26.0953 8.35567C26.6216 8.27762 27.1004 8.00775 27.4398 7.59797C27.7791 7.18818 27.9549 6.66742 27.9334 6.13582C27.912 5.60422 27.6947 5.09933 27.3235 4.71824C26.9522 4.33715 26.4532 4.10678 25.9223 4.07142C25.3914 4.03607 24.8663 4.19823 24.4477 4.52672C24.0292 4.85521 23.7469 5.32683 23.6552 5.85089C23.5634 6.37495 23.6686 6.91443 23.9506 7.36559L21.8765 9.43967C20.3653 8.08593 18.4318 7.29744 16.4048 7.20829V4.30038C16.931 4.20317 17.4027 3.91482 17.7291 3.4908C18.0555 3.06678 18.2135 2.53704 18.1729 2.00348C18.1322 1.46993 17.8957 0.970256 17.5088 0.600586C17.1219 0.230916 16.612 0.0173645 16.0772 0.00101338C15.5423 -0.0153378 15.0203 0.166667 14.6116 0.512013C14.2028 0.85736 13.9362 1.34165 13.8631 1.87173C13.7899 2.4018 13.9153 2.94021 14.2152 3.38338C14.5151 3.82655 14.9683 4.14317 15.4876 4.27233V7.2151C13.4797 7.33336 11.5733 8.13734 10.087 9.49261L8.02836 7.43399C8.32791 6.99077 8.45298 6.45244 8.37952 5.92255C8.30606 5.39267 8.03925 4.90866 7.63042 4.56365C7.22159 4.21864 6.69962 4.03699 6.16493 4.05364C5.63024 4.0703 5.12059 4.28408 4.73403 4.65388C4.34747 5.02367 4.1113 5.52334 4.07096 6.05677C4.03062 6.5902 4.18896 7.1197 4.51551 7.54342C4.84206 7.96714 5.31377 8.25514 5.83987 8.35202C6.36598 8.4489 6.90933 8.34781 7.36539 8.0682L9.4415 10.1372C8.08575 11.6464 7.29571 13.5793 7.20619 15.6061H4.31538C4.21976 15.1082 3.95493 14.6587 3.56578 14.3337C3.17662 14.0088 2.68708 13.8283 2.18011 13.823C1.89438 13.8215 1.61116 13.8764 1.34674 13.9846C1.08231 14.0929 0.841885 14.2523 0.639289 14.4538C0.436693 14.6553 0.27592 14.8949 0.166214 15.1587C0.0565073 15.4225 3.05176e-05 15.7054 3.05176e-05 15.9912C3.05176e-05 16.2769 0.0565073 16.5598 0.166214 16.8236C0.27592 17.0875 0.436693 17.327 0.639289 17.5285C0.841885 17.73 1.08231 17.8894 1.34674 17.9977C1.61116 18.1059 1.89438 18.1608 2.18011 18.1593C2.66424 18.1664 3.13633 18.0082 3.51838 17.7108C3.90044 17.4133 4.16961 16.9945 4.28144 16.5234H7.21313C7.32545 18.5298 8.12649 20.436 9.48107 21.9204L7.43451 23.9705C6.98684 23.6695 6.44364 23.5447 5.90948 23.6202C5.37532 23.6957 4.88797 23.9661 4.54125 24.3794C4.19453 24.7927 4.01295 25.3196 4.03147 25.8588C4.05 26.3979 4.26731 26.9112 4.64158 27.2997C5.01585 27.6882 5.52061 27.9246 6.05869 27.9632C6.59677 28.0019 7.13013 27.8401 7.55609 27.5091C7.98204 27.178 8.27048 26.7011 8.36588 26.1701C8.46127 25.6392 8.35687 25.0917 8.07278 24.6331L10.1316 22.5743C11.6282 23.9212 13.5423 24.7127 15.5531 24.8163V27.711C15.0298 27.8242 14.567 28.1269 14.2535 28.5608C13.94 28.9948 13.7981 29.5293 13.855 30.0616C13.9119 30.5939 14.1636 31.0863 14.5618 31.4442C14.9599 31.802 15.4764 32 16.0117 32C16.547 32 17.0634 31.802 17.4616 31.4442C17.8597 31.0863 18.1115 30.5939 18.1684 30.0616C18.2253 29.5293 18.0834 28.9948 17.7699 28.5608C17.4564 28.1269 16.9935 27.8242 16.4703 27.711V24.8163C18.4987 24.7119 20.4281 23.9076 21.93 22.5403L23.9786 24.5889C23.6845 25.0364 23.5663 25.5769 23.6467 26.1064C23.7272 26.6358 24.0006 27.1168 24.4144 27.4568C24.8281 27.7968 25.353 27.9718 25.888 27.9481C26.423 27.9244 26.9304 27.7036 27.3124 27.3284C27.6945 26.9531 27.9242 26.4498 27.9575 25.9153C27.9908 25.3808 27.8252 24.8528 27.4927 24.4331C27.1601 24.0133 26.6841 23.7313 26.1562 23.6414C25.6282 23.5515 25.0857 23.66 24.633 23.9461L22.5765 21.882C23.9246 20.3855 24.7151 18.4696 24.8144 16.4579H27.7268C27.8148 16.8571 28.0139 17.2234 28.3011 17.5144C28.5884 17.8053 28.952 18.0092 29.3501 18.1023C29.7482 18.1955 30.1646 18.1742 30.5511 18.0409C30.9376 17.9075 31.2786 17.6677 31.5346 17.3489C31.7906 17.0301 31.9513 16.6454 31.9981 16.2393C32.0448 15.8331 31.9758 15.422 31.799 15.0533C31.6221 14.6847 31.3446 14.3736 30.9985 14.1559C30.6525 13.9382 30.2519 13.8228 29.843 13.823H29.8433ZM24.9069 5.33378C25.1417 5.09902 25.4601 4.96713 25.792 4.96712C26.124 4.96711 26.4424 5.09898 26.6772 5.33371C26.9119 5.56845 27.0438 5.88682 27.0438 6.2188C27.0438 6.55078 26.912 6.86917 26.6772 7.10392C26.5612 7.22128 26.4232 7.31455 26.271 7.37836C26.1189 7.44218 25.9556 7.47528 25.7906 7.47577C25.6256 7.47626 25.4621 7.44412 25.3096 7.3812C25.157 7.31828 25.0185 7.22583 24.9018 7.10916C24.7851 6.99248 24.6926 6.8539 24.6297 6.70136C24.5668 6.54883 24.5346 6.38536 24.5351 6.22036C24.5356 6.05536 24.5687 5.89208 24.6325 5.73991C24.6963 5.58775 24.7896 5.44977 24.9069 5.33378ZM7.11643 7.10392C6.94137 7.279 6.71833 7.39824 6.4755 7.44655C6.23268 7.49487 5.98098 7.47009 5.75224 7.37535C5.5235 7.28061 5.32799 7.12017 5.19043 6.91431C5.05288 6.70846 4.97946 6.46643 4.97946 6.21885C4.97946 5.97126 5.05288 5.72924 5.19043 5.52338C5.32799 5.31753 5.5235 5.15708 5.75224 5.06235C5.98098 4.96761 6.23268 4.94283 6.4755 4.99114C6.71833 5.03946 6.94137 5.1587 7.11643 5.33378C7.23269 5.44999 7.32492 5.58796 7.38785 5.73983C7.45077 5.89169 7.48316 6.05446 7.48316 6.21885C7.48316 6.38323 7.45077 6.54601 7.38785 6.69787C7.32492 6.84973 7.23269 6.98771 7.11643 7.10392ZM2.18011 17.251C1.93253 17.251 1.69052 17.1776 1.48468 17.04C1.27883 16.9025 1.1184 16.707 1.02367 16.4782C0.928936 16.2495 0.904156 15.9978 0.952463 15.755C1.00077 15.5122 1.11999 15.2891 1.29506 15.1141C1.47013 14.939 1.69317 14.8198 1.93599 14.7715C2.17881 14.7232 2.43049 14.748 2.65922 14.8428C2.88795 14.9375 3.08344 15.098 3.22099 15.3038C3.35853 15.5097 3.43194 15.7517 3.43194 15.9992C3.43156 16.3311 3.29955 16.6493 3.06486 16.884C2.83018 17.1187 2.51199 17.2506 2.18011 17.251ZM7.11643 26.6647C7.0002 26.7809 6.86221 26.8732 6.71035 26.9361C6.55849 26.999 6.39572 27.0314 6.23134 27.0314C6.06696 27.0314 5.90419 26.999 5.75232 26.9361C5.60045 26.8732 5.46246 26.781 5.34622 26.6648C5.22998 26.5485 5.13778 26.4106 5.07487 26.2587C5.01196 26.1068 4.97957 25.9441 4.97957 25.7797C4.97956 25.6153 5.01193 25.4525 5.07483 25.3007C5.13773 25.1488 5.22993 25.0108 5.34616 24.8946C5.5727 24.6676 5.87783 24.5365 6.19839 24.5283C6.51894 24.5202 6.83035 24.6356 7.06814 24.8507C7.1012 24.9027 7.14457 24.9473 7.19557 24.9818C7.3943 25.2218 7.49632 25.5273 7.48168 25.8386C7.46704 26.1499 7.3368 26.4445 7.11643 26.6648V26.6647ZM24.9069 24.8946C25.082 24.7195 25.305 24.6003 25.5479 24.5519C25.7907 24.5036 26.0424 24.5284 26.2711 24.6231C26.4999 24.7179 26.6954 24.8783 26.8329 25.0842C26.9705 25.29 27.0439 25.5321 27.0439 25.7796C27.0439 26.0272 26.9705 26.2692 26.8329 26.4751C26.6954 26.681 26.4999 26.8414 26.2711 26.9361C26.0424 27.0309 25.7907 27.0557 25.5479 27.0073C25.305 26.959 25.082 26.8398 24.9069 26.6647C24.7907 26.5485 24.6985 26.4105 24.6355 26.2587C24.5726 26.1068 24.5402 25.944 24.5402 25.7796C24.5402 25.6153 24.5726 25.4525 24.6355 25.3006C24.6985 25.1488 24.7907 25.0108 24.9069 24.8946ZM14.7599 2.16773C14.7599 1.92015 14.8333 1.67813 14.9709 1.47228C15.1084 1.26643 15.3039 1.10599 15.5327 1.01124C15.7614 0.916498 16.0131 0.891709 16.2559 0.940009C16.4987 0.988309 16.7218 1.10753 16.8968 1.28259C17.0719 1.45765 17.1911 1.6807 17.2394 1.92352C17.2877 2.16634 17.2629 2.41803 17.1682 2.64676C17.0734 2.87549 16.913 3.07099 16.7071 3.20854C16.5013 3.34608 16.2593 3.4195 16.0117 3.4195C15.6798 3.4191 15.3617 3.28709 15.127 3.05242C14.8923 2.81776 14.7603 2.49959 14.7599 2.16773ZM17.2635 29.8308C17.2637 30.0745 17.1928 30.3129 17.0595 30.5169C16.9261 30.7209 16.7361 30.8815 16.5128 30.9791C16.2895 31.0767 16.0425 31.1069 15.8023 31.0661C15.562 31.0254 15.3389 30.9154 15.1602 30.7496C14.9816 30.5838 14.8552 30.3695 14.7966 30.133C14.738 29.8964 14.7498 29.6479 14.8304 29.4179C14.911 29.1879 15.057 28.9865 15.2505 28.8383C15.4439 28.6901 15.6765 28.6016 15.9195 28.5836C15.9803 28.596 16.043 28.596 16.1039 28.5836C16.4188 28.6071 16.7132 28.7486 16.9282 28.9798C17.1432 29.2111 17.263 29.515 17.2635 29.8308ZM16.0117 23.911C14.4497 23.911 12.9229 23.4478 11.6242 22.58C10.3255 21.7123 9.31326 20.4789 8.71553 19.0358C8.1178 17.5928 7.96141 16.0049 8.26613 14.473C8.57085 12.941 9.323 11.5339 10.4275 10.4294C11.5319 9.32496 12.9391 8.57282 14.471 8.2681C16.0029 7.96338 17.5908 8.11977 19.0339 8.7175C20.4769 9.31523 21.7103 10.3274 22.5781 11.6262C23.4458 12.9249 23.909 14.4517 23.909 16.0137C23.9066 18.1074 23.0738 20.1148 21.5933 21.5953C20.1128 23.0758 18.1055 23.9086 16.0117 23.911ZM29.8433 17.251C29.5957 17.251 29.3537 17.1776 29.1478 17.0401C28.942 16.9025 28.7815 16.707 28.6868 16.4783C28.592 16.2495 28.5673 15.9979 28.6156 15.755C28.6639 15.5122 28.7831 15.2892 28.9581 15.1141C29.1332 14.939 29.3562 14.8198 29.5991 14.7715C29.8419 14.7232 30.0936 14.748 30.3223 14.8428C30.551 14.9375 30.7465 15.0979 30.8841 15.3038C31.0216 15.5097 31.095 15.7517 31.095 15.9992C31.0947 16.3311 30.9627 16.6493 30.728 16.884C30.4933 17.1186 30.1751 17.2506 29.8433 17.251Z" fill="white"/>
<path d="M21.4824 12.5759L16.241 9.54985C16.1713 9.50959 16.0922 9.4884 16.0117 9.4884C15.9312 9.4884 15.8521 9.50959 15.7824 9.54985L10.541 12.5759C10.4713 12.6161 10.4134 12.674 10.3732 12.7438C10.3329 12.8135 10.3117 12.8926 10.3117 12.9731V19.0253C10.3117 19.1058 10.3329 19.1849 10.3732 19.2547C10.4134 19.3244 10.4713 19.3823 10.541 19.4226L15.7824 22.4486C15.8521 22.4888 15.9312 22.51 16.0117 22.51C16.0922 22.51 16.1713 22.4888 16.241 22.4486L21.4824 19.4226C21.5521 19.3823 21.61 19.3244 21.6503 19.2547C21.6905 19.1849 21.7117 19.1058 21.7117 19.0253V12.9731C21.7117 12.8926 21.6905 12.8135 21.6503 12.7438C21.61 12.674 21.5521 12.6161 21.4824 12.5759ZM16.0117 10.4766L17.6634 11.4301L13.3396 13.9263L11.6879 12.9727L16.0117 10.4766ZM15.5531 21.2571L11.229 18.7606V13.7671L15.5531 16.2636V21.2571ZM16.0117 15.4693L14.2569 14.4561L18.5807 11.9599L20.3359 12.9729L16.0117 15.4693ZM20.7945 18.7606L16.4703 21.2571V16.2636L20.7945 13.7671V18.7606Z" fill="white"/>
</g>
<defs>
<clipPath id="clip0_2427_257">
<rect width="32" height="32" fill="white"/>
</clipPath>
</defs>
</svg>
