<svg width="40" height="40" viewBox="0 0 40 40" fill="none" xmlns="http://www.w3.org/2000/svg">
<g clip-path="url(#clip0_2427_439)">
<path d="M26.7046 15.8113L22.6086 13.4473C22.6028 13.4438 22.5969 13.4406 22.591 13.4372L20.2734 12.0997C20.1903 12.0517 20.096 12.0264 20 12.0264C19.904 12.0264 19.8097 12.0517 19.7266 12.0997L13.2933 15.8112C13.2101 15.8592 13.141 15.9283 13.093 16.0115C13.045 16.0947 13.0198 16.1891 13.0198 16.2851V23.7128C13.0198 23.8088 13.0451 23.9031 13.0931 23.9863C13.1411 24.0695 13.2101 24.1385 13.2933 24.1865L19.7266 27.9004C19.8097 27.9484 19.904 27.9737 20 27.9737C20.096 27.9737 20.1903 27.9484 20.2734 27.9004L23.4892 26.0445L26.7048 24.1865C26.788 24.1385 26.857 24.0694 26.905 23.9863C26.953 23.9031 26.9783 23.8088 26.9783 23.7128V16.2851C26.9783 16.1891 26.953 16.0947 26.905 16.0115C26.8569 15.9283 26.7878 15.8593 26.7046 15.8113ZM23.0188 14.9472L17.6807 18.0299L16.9804 17.6254L22.3182 14.5429L23.0188 14.9472ZM17.1343 18.9776V21.0177L16.4345 20.6134V18.5735L17.1343 18.9776ZM20 13.205L21.2241 13.9115L15.8866 16.9937L14.6605 16.2856L20 13.205ZM19.4531 26.4794L14.1138 23.397V17.2329L15.3403 17.9415V20.929C15.3403 21.025 15.3656 21.1193 15.4136 21.2025C15.4616 21.2856 15.5306 21.3546 15.6138 21.4026L17.4076 22.439C17.4907 22.487 17.585 22.5123 17.681 22.5123C17.777 22.5123 17.8713 22.487 17.9545 22.439C18.0376 22.391 18.1067 22.322 18.1546 22.2388C18.2026 22.1557 18.2279 22.0614 18.2279 21.9654V19.6094L19.4531 20.3169V26.4794ZM20 19.3695L18.7745 18.6617L24.113 15.5788L25.3388 16.2862L20 19.3695ZM25.8841 23.3971L20.5469 26.4793V20.3169L25.8841 17.2344V23.3971ZM34.9617 29.7829C33.7801 29.7821 32.6362 30.1987 31.732 30.9594L28.607 27.8322C30.5599 25.691 31.6425 22.8973 31.6423 19.9992C31.6422 17.1011 30.5594 14.3076 28.6063 12.1665L31.6812 9.09162C32.6492 9.92711 33.8994 10.3621 35.1769 10.3079C36.4545 10.2537 37.6633 9.71443 38.557 8.79998C38.5817 8.7784 38.6044 8.75463 38.6248 8.72896C39.2841 8.03136 39.7305 7.15989 39.9112 6.21716C40.0919 5.27443 39.9996 4.29968 39.645 3.40768C39.2904 2.51567 38.6883 1.74355 37.9097 1.18221C37.131 0.620863 36.2082 0.293673 35.2498 0.239157C34.2915 0.18464 33.3375 0.405067 32.5002 0.874485C31.6629 1.3439 30.9772 2.04277 30.5237 2.88881C30.0703 3.73485 29.8679 4.69283 29.9406 5.64998C30.0133 6.60712 30.3579 7.52358 30.9339 8.29146L27.8328 11.393C25.6917 9.43985 22.8981 8.35703 20 8.35693C17.1018 8.35683 14.3082 9.43945 12.167 11.3925L9.02344 8.25076C9.51237 7.61654 9.84299 6.87485 9.98786 6.08725C10.1327 5.29966 10.0877 4.48887 9.8564 3.72218C9.62514 2.95549 9.21436 2.25501 8.65814 1.67889C8.10193 1.10276 7.41633 0.6676 6.65825 0.409523C5.90017 0.151447 5.09146 0.0778974 4.29926 0.194979C3.50706 0.312061 2.7542 0.616397 2.10318 1.08273C1.45216 1.54906 0.92175 2.16394 0.555972 2.87633C0.190193 3.58872 -0.00040377 4.37807 6.42224e-07 5.17888C-0.000598384 6.45547 0.485542 7.68426 1.35938 8.6149C1.38755 8.65361 1.42073 8.68842 1.45805 8.71841C2.34488 9.61745 3.53765 10.1497 4.79907 10.2093C6.0605 10.2689 7.29813 9.85147 8.26578 9.04005L11.393 12.1657C9.43904 14.3067 8.35574 17.1007 8.35564 19.9993C8.35553 22.8979 9.43864 25.6919 11.3924 27.8331L8.26742 30.9597C7.284 30.1357 6.02307 29.7183 4.74223 29.7928C3.46138 29.8672 2.2573 30.4279 1.37594 31.3602C0.494587 32.2926 0.00248191 33.5263 0.000158126 34.8093C-0.00216566 36.0923 0.485467 37.3278 1.36344 38.2633C1.38925 38.2978 1.41907 38.3291 1.45227 38.3565C1.92194 38.8345 2.48244 39.2136 3.10081 39.4717C3.71917 39.7298 4.38291 39.8617 5.05298 39.8595C5.72305 39.8573 6.38592 39.7212 7.00259 39.459C7.61926 39.1969 8.17728 38.8141 8.64383 38.3331C8.65868 38.3192 8.67273 38.3044 8.68594 38.2889C9.51502 37.4196 10.0051 36.2819 10.0674 35.0822C10.1296 33.8826 9.75989 32.7003 9.02524 31.7498L12.1659 28.6072C14.307 30.5609 17.101 31.644 19.9996 31.6439C22.8982 31.6437 25.6921 30.5604 27.833 28.6065L30.9743 31.7495C30.2435 32.6954 29.8738 33.8708 29.9315 35.0648C29.9892 36.2587 30.4706 37.393 31.2892 38.264C31.3149 38.2984 31.3447 38.3296 31.3778 38.3569C31.8475 38.8349 32.4081 39.2141 33.0265 39.4722C33.645 39.7304 34.3088 39.8622 34.9789 39.8599C35.6491 39.8577 36.312 39.7215 36.9287 39.4592C37.5454 39.197 38.1034 38.814 38.5699 38.3329C38.5844 38.3194 38.5981 38.305 38.6109 38.2899C39.2909 37.5763 39.7463 36.6787 39.9209 35.7086C40.0954 34.7385 39.9813 33.7384 39.5927 32.8326C39.2041 31.9267 38.5581 31.1549 37.7349 30.6127C36.9117 30.0706 35.9474 29.7821 34.9617 29.7829ZM34.9617 9.21833C34.0421 9.21908 33.1515 8.89684 32.4453 8.30787C32.6329 8.08926 32.8653 7.91363 33.1269 7.79291C33.3884 7.6722 33.6729 7.60925 33.9609 7.60833H35.9594C36.2481 7.60883 36.5334 7.67171 36.7956 7.79266C37.0577 7.91361 37.2907 8.08978 37.4785 8.30912C36.7719 8.89745 35.8812 9.21921 34.9617 9.21833ZM33.7592 4.67193C33.7618 4.35496 33.8895 4.05185 34.1145 3.82862C34.3396 3.60539 34.6437 3.48013 34.9607 3.48013C35.2776 3.48013 35.5818 3.60539 35.8068 3.82862C36.0318 4.05185 36.1596 4.35496 36.1621 4.67193C36.1621 5.93708 35.5393 6.51333 34.9606 6.51333C34.382 6.51333 33.7592 5.93693 33.7592 4.67193ZM34.9617 1.33216C35.6792 1.33149 36.3833 1.52672 36.9981 1.8968C37.6128 2.26688 38.1148 2.79777 38.45 3.4322C38.7851 4.06663 38.9407 4.78053 38.9 5.49689C38.8592 6.21326 38.6237 6.90491 38.2188 7.49724C37.8157 7.06642 37.298 6.75972 36.7266 6.61326C37.0501 6.13396 37.2562 5.48505 37.2562 4.67177C37.2562 4.063 37.0143 3.47916 36.5839 3.04869C36.1534 2.61822 35.5696 2.37638 34.9608 2.37638C34.352 2.37638 33.7682 2.61822 33.3377 3.04869C32.9072 3.47916 32.6654 4.063 32.6654 4.67177C32.6654 5.4363 32.8465 6.10201 33.1908 6.61443C32.6224 6.76164 32.1075 7.06715 31.7059 7.49544C31.3017 6.90317 31.0667 6.21183 31.0262 5.49589C30.9857 4.77994 31.1414 4.06652 31.4763 3.43247C31.8113 2.79842 32.3129 2.26777 32.9271 1.89767C33.5413 1.52757 34.2448 1.33205 34.9619 1.33216H34.9617ZM1.09375 5.17888C1.09312 4.56124 1.23759 3.95209 1.51551 3.40052C1.79344 2.84894 2.19705 2.37037 2.69382 2.00336C3.19059 1.63635 3.76663 1.39117 4.37552 1.28758C4.98441 1.18399 5.60912 1.22488 6.19932 1.40696C6.78951 1.58904 7.32867 1.90722 7.77336 2.33586C8.21805 2.76449 8.55583 3.2916 8.75948 3.87469C8.96314 4.45779 9.02696 5.08058 8.94582 5.69286C8.86468 6.30515 8.64084 6.88981 8.29234 7.39974C7.88966 6.96909 7.37237 6.66238 6.80133 6.51568C7.12438 6.03623 7.33031 5.38724 7.33031 4.57404C7.32678 3.96757 7.08338 3.38715 6.65328 2.95956C6.22319 2.53197 5.64136 2.29196 5.03488 2.29196C4.42841 2.29196 3.84658 2.53197 3.41648 2.95956C2.98639 3.38715 2.74299 3.96757 2.73945 4.57404C2.73945 5.33857 2.92023 6.00435 3.26414 6.51685C2.69599 6.6641 2.18127 6.96952 1.77977 7.39763C1.33216 6.74435 1.09298 5.97079 1.09375 5.17888ZM6.23609 4.57435C6.23609 5.83443 5.61938 6.41115 5.0432 6.41685H5.02609C4.44984 6.41115 3.8332 5.83443 3.8332 4.57435C3.83576 4.25739 3.96347 3.95427 4.1885 3.73104C4.41354 3.50781 4.71767 3.38255 5.03465 3.38255C5.35162 3.38255 5.65576 3.50781 5.88079 3.73104C6.10583 3.95427 6.23354 4.25739 6.23609 4.57435ZM5.03594 9.12083C4.11632 9.12165 3.22563 8.79943 2.51938 8.21044C2.70694 7.99183 2.9394 7.81619 3.20094 7.69548C3.46248 7.57477 3.74695 7.51182 4.035 7.51091H5.01938C5.02461 7.51091 5.02977 7.51138 5.035 7.51138C5.04023 7.51138 5.04602 7.51091 5.05156 7.51091H6.03359C6.32232 7.51141 6.60753 7.57428 6.8697 7.69523C7.13187 7.81619 7.36481 7.99236 7.55258 8.21169C6.84599 8.8 5.95538 9.12174 5.03594 9.12083ZM5.03594 38.7654C4.11584 38.7661 3.22475 38.4434 2.51852 37.8536C2.7061 37.6348 2.93865 37.4589 3.20033 37.3381C3.46201 37.2172 3.74667 37.1541 4.03492 37.1532H4.99852C5.01063 37.1532 5.02273 37.1543 5.03492 37.1543C5.04711 37.1543 5.0607 37.1534 5.07359 37.1532H6.03352C6.32247 37.1537 6.60789 37.2167 6.87023 37.3378C7.13257 37.4589 7.36563 37.6353 7.55344 37.8549C6.84689 38.4441 5.95589 38.7664 5.03594 38.7657V38.7654ZM3.83344 34.2188C3.83216 34.0602 3.86229 33.9029 3.9221 33.7561C3.9819 33.6092 4.0702 33.4756 4.18189 33.363C4.29358 33.2504 4.42646 33.161 4.57286 33.1C4.71926 33.039 4.87629 33.0076 5.03488 33.0076C5.19348 33.0076 5.35051 33.039 5.49691 33.1C5.64331 33.161 5.77619 33.2504 5.88788 33.363C5.99957 33.4756 6.08787 33.6092 6.14767 33.7561C6.20748 33.9029 6.23761 34.0602 6.23633 34.2188C6.23633 35.4707 5.62695 36.0469 5.05328 36.0591H5.01648C4.44313 36.0469 3.83344 35.4707 3.83344 34.2188ZM8.29305 37.0426C7.89037 36.6119 7.37305 36.3051 6.80195 36.1584C7.125 35.6797 7.33031 35.0313 7.33031 34.2188C7.33208 33.9162 7.27401 33.6163 7.15944 33.3363C7.04488 33.0562 6.87608 32.8016 6.66275 32.587C6.44943 32.3724 6.19578 32.2022 5.91641 32.086C5.63704 31.9698 5.33746 31.9099 5.03488 31.9099C4.73231 31.9099 4.43272 31.9698 4.15335 32.086C3.87398 32.2022 3.62034 32.3724 3.40701 32.587C3.19369 32.8016 3.02489 33.0562 2.91032 33.3363C2.79576 33.6163 2.73769 33.9162 2.73945 34.2188C2.73945 34.9825 2.92 35.6475 3.26352 36.1596C2.69532 36.307 2.18061 36.6126 1.77914 37.0408C1.37483 36.4482 1.13985 35.7565 1.09951 35.0402C1.05917 34.324 1.215 33.6103 1.55021 32.976C1.88542 32.3417 2.38731 31.8109 3.00184 31.4407C3.61636 31.0705 4.32023 30.875 5.03764 30.8752C5.75505 30.8754 6.45881 31.0713 7.07313 31.4418C7.68745 31.8124 8.18905 32.3435 8.52391 32.9779C8.85877 33.6124 9.01421 34.3262 8.97347 35.0424C8.93273 35.7587 8.69737 36.4502 8.29274 37.0426H8.29305ZM20 30.5493C14.1825 30.5493 9.44969 25.8164 9.44969 19.9989C9.44969 14.1826 14.1825 9.45083 20 9.45083C25.8162 9.45083 30.548 14.1826 30.548 19.9989C30.548 25.8164 25.8162 30.5493 20 30.5493ZM34.9617 38.7657C34.0416 38.7664 33.1506 38.4437 32.4443 37.854C32.6319 37.6351 32.8644 37.4591 33.1262 37.3382C33.3879 37.2172 33.6726 37.1541 33.9609 37.1532H34.9245C34.9366 37.1532 34.9487 37.1543 34.9608 37.1543C34.9729 37.1543 34.9866 37.1534 34.9998 37.1532H35.9597C36.2487 37.1537 36.5341 37.2167 36.7965 37.3378C37.0588 37.4589 37.2919 37.6354 37.4797 37.855C36.773 38.4442 35.8818 38.7665 34.9617 38.7657ZM33.7592 34.2188C33.7579 34.0602 33.7881 33.9029 33.8479 33.7561C33.9077 33.6092 33.996 33.4756 34.1077 33.363C34.2194 33.2504 34.3522 33.161 34.4986 33.1C34.645 33.039 34.8021 33.0076 34.9607 33.0076C35.1193 33.0076 35.2763 33.039 35.4227 33.1C35.5691 33.161 35.702 33.2504 35.8137 33.363C35.9254 33.4756 36.0136 33.6092 36.0735 33.7561C36.1333 33.9029 36.1634 34.0602 36.1621 34.2188C36.1621 35.4707 35.5527 36.0469 34.979 36.0591H34.9423C34.3689 36.0469 33.7592 35.4707 33.7592 34.2188ZM38.2188 37.0426C37.8161 36.6119 37.2988 36.3051 36.7277 36.1584C37.0504 35.6794 37.2559 35.0311 37.2559 34.2188C37.2559 33.61 37.0141 33.0262 36.5836 32.5957C36.1532 32.1652 35.5693 31.9234 34.9605 31.9234C34.3518 31.9234 33.7679 32.1652 33.3375 32.5957C32.907 33.0262 32.6652 33.61 32.6652 34.2188C32.6652 34.9825 32.8457 35.6475 33.1892 36.1596C32.621 36.307 32.1063 36.6126 31.7048 37.0409C31.3005 36.4483 31.0655 35.7566 31.0251 35.0403C30.9847 34.324 31.1406 33.6103 31.4758 32.9759C31.811 32.3416 32.3129 31.8108 32.9274 31.4406C33.5419 31.0704 34.2458 30.8749 34.9633 30.875C35.6807 30.8752 36.3845 31.0711 36.9988 31.4417C37.6132 31.8122 38.1148 32.3433 38.4497 32.9778C38.7845 33.6123 38.94 34.3261 38.8992 35.0424C38.8585 35.7586 38.6231 36.4502 38.2184 37.0426H38.2188Z" fill="url(#paint0_linear_2427_439)"/>
</g>
<defs>
<linearGradient id="paint0_linear_2427_439" x1="0" y1="0.140869" x2="43.528" y2="4.47977" gradientUnits="userSpaceOnUse">
<stop stop-color="#7E4BA4"/>
<stop offset="1" stop-color="#301C3E"/>
</linearGradient>
<clipPath id="clip0_2427_439">
<rect width="40" height="40" fill="white"/>
</clipPath>
</defs>
</svg>
