<svg width="32" height="32" viewBox="0 0 32 32" fill="none" xmlns="http://www.w3.org/2000/svg">
<g clip-path="url(#clip0_2427_199)">
<path d="M1.32586 13.2017C1.0074 13.2534 0.71423 13.4068 0.490222 13.639C0.266214 13.8712 0.123416 14.1696 0.0831965 14.4897C-0.0266478 15.4856 -0.0277248 16.4904 0.0799848 17.4865C0.116527 17.8115 0.258043 18.1156 0.483071 18.3529C0.708098 18.5901 1.00436 18.7475 1.32692 18.8012L3.02396 19.079C3.34978 20.4667 3.89974 21.792 4.6522 23.0027L3.6533 24.3979C3.25526 24.9376 3.2649 25.6762 3.67678 26.2054C3.99472 26.5943 4.33296 26.9662 4.6901 27.3195C5.01759 27.6475 5.37967 27.9771 5.81436 28.3424C6.06993 28.539 6.38237 28.6472 6.70475 28.651C7.02712 28.6547 7.342 28.5538 7.60207 28.3632L9.00417 27.3574C10.2136 28.1097 11.5376 28.6599 12.9241 28.9861L13.2026 30.6859C13.2541 31.0044 13.4074 31.2977 13.6396 31.5218C13.8718 31.746 14.1704 31.8888 14.4906 31.9291C14.7975 31.9636 15.1056 31.9872 15.4143 32H15.4596C15.7376 31.9998 16.0048 31.8929 16.2062 31.7013C16.3099 31.6023 16.3923 31.4832 16.4485 31.3514C16.5047 31.2196 16.5335 31.0777 16.5332 30.9344V26.6603C16.53 26.0892 16.0792 25.621 15.5086 25.5963C10.4039 25.3298 6.40163 21.1131 6.40163 16.0015C6.40163 10.8898 10.4039 6.67313 15.5086 6.40661C16.0801 6.38155 16.5312 5.912 16.5332 5.33995V1.06801C16.5336 0.924551 16.5047 0.782512 16.4484 0.650564C16.3921 0.518616 16.3095 0.399527 16.2057 0.300569C16.102 0.198871 15.9784 0.119773 15.8426 0.0682713C15.7068 0.0167699 15.5619 -0.00601587 15.4168 0.00135327C15.1065 0.0136209 14.7987 0.0359976 14.483 0.0680094C14.163 0.109239 13.8652 0.253367 13.6343 0.478663C13.4034 0.703959 13.252 0.998209 13.203 1.31705L12.9251 3.01515C11.5386 3.34168 10.2146 3.892 9.00517 4.64448L7.60307 3.64075C7.34066 3.44884 7.02278 3.34782 6.69773 3.35302C6.37267 3.35822 6.05819 3.46935 5.80204 3.66955C5.41536 3.98607 5.04528 4.32235 4.69326 4.67702C4.33046 5.03168 3.9889 5.40744 3.67036 5.80233C3.47227 6.05823 3.36266 6.37155 3.35805 6.69513C3.35343 7.01871 3.45406 7.33503 3.64477 7.59647L4.65009 9.0002C3.89828 10.2108 3.34902 11.5359 3.02396 12.9234L1.32586 13.2017ZM3.98879 13.4993C4.29887 11.993 4.8937 10.5597 5.74133 9.27646C5.80066 9.18632 5.83125 9.0803 5.82906 8.97241C5.82687 8.86452 5.792 8.75984 5.72907 8.67218L4.51257 6.97355C4.45776 6.90123 4.42743 6.81332 4.42599 6.72259C4.42456 6.63185 4.45208 6.54302 4.50456 6.469C4.79691 6.1067 5.11052 5.76209 5.44375 5.43699C5.76744 5.11001 6.10742 4.79957 6.46239 4.50686C6.53672 4.45019 6.6276 4.4195 6.72106 4.4195C6.81453 4.4195 6.90541 4.45019 6.97974 4.50686L8.67573 5.72394C8.7635 5.78671 8.86824 5.82139 8.97613 5.82339C9.08401 5.8254 9.18997 5.79463 9.28001 5.73515C10.5622 4.88719 11.9946 4.29215 13.5002 3.98208C13.606 3.96029 13.7026 3.90691 13.7774 3.82901C13.8521 3.75112 13.9015 3.65237 13.9189 3.54582L14.2544 1.49196C14.2661 1.40222 14.3063 1.31861 14.3691 1.25343C14.4319 1.18824 14.5139 1.14492 14.6032 1.12982C14.8903 1.09998 15.1782 1.07935 15.4667 1.06796L15.4549 5.34043C9.77687 5.63043 5.32276 10.3204 5.32592 16.0059C5.32902 21.6913 9.7883 26.3764 15.4667 26.6602L15.4592 30.9343C15.1751 30.9225 14.8916 30.9006 14.6091 30.8687C14.5195 30.8556 14.4365 30.8138 14.3726 30.7495C14.3088 30.6853 14.2675 30.6021 14.2549 30.5124L13.9189 28.4575C13.9015 28.3509 13.8521 28.2522 13.7774 28.1743C13.7026 28.0964 13.606 28.043 13.5002 28.0212C11.9946 27.7109 10.5622 27.1157 9.28001 26.2676C9.18992 26.2082 9.08393 26.1775 8.97604 26.1796C8.86816 26.1817 8.76344 26.2165 8.67573 26.2793L6.97816 27.4975C6.90762 27.5523 6.82139 27.5832 6.73207 27.5856C6.64274 27.588 6.55499 27.5618 6.48161 27.5108C6.08962 27.1807 5.74986 26.8708 5.44375 26.5652C5.11672 26.2421 4.80645 25.9024 4.51414 25.5476C4.45813 25.4728 4.42786 25.3819 4.42786 25.2884C4.42786 25.195 4.45813 25.104 4.51414 25.0292L5.72959 23.3322C5.79245 23.2444 5.82722 23.1397 5.82932 23.0318C5.83141 22.924 5.80073 22.818 5.74133 22.7279C4.89364 21.4449 4.29881 20.0117 3.98879 18.5055C3.96702 18.3999 3.91372 18.3033 3.83593 18.2285C3.75814 18.1538 3.6595 18.1044 3.55305 18.0869L1.49972 17.7503C1.40671 17.7349 1.32129 17.6895 1.25648 17.6211C1.19168 17.5526 1.15105 17.4648 1.1408 17.3711C1.04091 16.4538 1.04198 15.5283 1.14401 14.6112C1.15693 14.5215 1.19858 14.4384 1.26271 14.3743C1.32684 14.3103 1.41 14.2688 1.49972 14.256L3.55247 13.92C3.65932 13.9025 3.7583 13.8528 3.83625 13.7777C3.91419 13.7026 3.9674 13.6055 3.98879 13.4993Z" fill="white"/>
<path d="M30.3997 14.4012C30.07 14.4026 29.7487 14.5058 29.4799 14.6967C29.211 14.8877 29.0078 15.157 28.8978 15.4679H16.5332V13.8679H25.0664C25.9501 13.8679 26.6664 13.1515 26.6664 12.2679V9.50314C27.4011 9.24342 27.8418 8.49214 27.71 7.72412C27.5782 6.9561 26.9123 6.39468 26.133 6.39468C25.3538 6.39468 24.6879 6.9561 24.5561 7.72412C24.4243 8.49214 24.865 9.24342 25.5997 9.50314V12.2679C25.5997 12.5624 25.3609 12.8013 25.0663 12.8013H16.5332V11.2012H22.3998C22.6943 11.2012 22.9331 10.9625 22.9331 10.6679C22.9331 10.3733 22.6943 10.1345 22.3998 10.1345H16.5332V9.06788H19.7332C20.6168 9.06788 21.3332 8.35156 21.3332 7.46787V4.16986C22.0679 3.91013 22.5085 3.15886 22.3768 2.39084C22.245 1.62282 21.579 1.0614 20.7998 1.0614C20.0206 1.0614 19.3546 1.62282 19.2229 2.39084C19.0911 3.15886 19.5318 3.91013 20.2665 4.16986V7.46797C20.2665 7.7625 20.0277 8.00133 19.7331 8.00133H16.3923C16.3025 7.83437 16.1664 7.69687 16.0004 7.60531C15.8344 7.51374 15.6455 7.472 15.4564 7.48508C10.962 7.76977 7.46252 11.4979 7.46252 16.0013C7.46252 20.5046 10.962 24.2328 15.4564 24.5175H15.5188C15.6975 24.519 15.8734 24.4717 16.0273 24.3807C16.1812 24.2898 16.3074 24.1586 16.3923 24.0012H19.7331C20.0276 24.0012 20.2665 24.24 20.2665 24.5346V27.8327C19.5318 28.0924 19.0911 28.8437 19.2229 29.6117C19.3546 30.3797 20.0206 30.9411 20.7998 30.9411C21.579 30.9411 22.245 30.3797 22.3768 29.6117C22.5085 28.8437 22.0679 28.0924 21.3332 27.8327V24.5346C21.3332 23.6509 20.6168 22.9346 19.7332 22.9346H16.5332V21.8679H22.3998C22.6943 21.8679 22.9331 21.6291 22.9331 21.3346C22.9331 21.0401 22.6943 20.8013 22.3998 20.8013H16.5332V19.2013H25.0664C25.361 19.2013 25.5998 19.4401 25.5998 19.7346V22.4994C24.8651 22.7591 24.4244 23.5104 24.5562 24.2784C24.688 25.0464 25.3539 25.6078 26.1331 25.6078C26.9124 25.6078 27.5783 25.0464 27.7101 24.2784C27.8419 23.5104 27.4012 22.7591 26.6665 22.4994V19.7346C26.6665 18.851 25.9502 18.1346 25.0665 18.1346H16.5332V16.5345H28.8978C29.1704 17.2996 29.9737 17.7384 30.7647 17.5542C31.5558 17.37 32.0827 16.6216 31.9893 15.8148C31.8958 15.0081 31.2119 14.3998 30.3997 14.4012ZM26.1331 7.46797C26.4276 7.46797 26.6664 7.70674 26.6664 8.00133C26.6664 8.29591 26.4276 8.53468 26.1331 8.53468C25.8386 8.53468 25.5998 8.29591 25.5998 8.00133C25.5998 7.70674 25.8385 7.46797 26.1331 7.46797ZM20.7998 2.13469C21.0943 2.13469 21.3332 2.37346 21.3332 2.66805C21.3332 2.96263 21.0944 3.20135 20.7998 3.20135C20.5052 3.20135 20.2665 2.96258 20.2665 2.66805C20.2665 2.37352 20.5052 2.13469 20.7998 2.13469ZM20.7998 29.8678C20.5053 29.8678 20.2665 29.629 20.2665 29.3344C20.2665 29.0398 20.5053 28.801 20.7998 28.801C21.0943 28.801 21.3332 29.0398 21.3332 29.3344C21.3332 29.629 21.0943 29.8678 20.7998 29.8678ZM26.1331 24.5345C25.8386 24.5345 25.5998 24.2957 25.5998 24.0011C25.5998 23.7065 25.8386 23.4678 26.1331 23.4678C26.4276 23.4678 26.6664 23.7066 26.6664 24.0011C26.6664 24.2956 26.4276 24.5345 26.1331 24.5345ZM8.53324 16.0012C8.53771 12.0863 11.5619 8.8379 15.4665 8.55385V23.4486C11.5619 23.1645 8.53771 19.9161 8.53324 16.0012ZM30.3997 16.5345C30.1052 16.5345 29.8664 16.2958 29.8664 16.0012C29.8664 15.7066 30.1051 15.4679 30.3997 15.4679C30.6943 15.4679 30.9331 15.7066 30.9331 16.0012C30.9331 16.2957 30.6942 16.5345 30.3997 16.5345Z" fill="white"/>
</g>
<defs>
<clipPath id="clip0_2427_199">
<rect width="32" height="32" fill="white"/>
</clipPath>
</defs>
</svg>
